<?xml version="1.0" encoding="iso-8859-1"?>
<!-- Generator: Adobe Illustrator 16.0.0, SVG Export Plug-In . SVG Version: 6.00 Build 0)  -->
<!DOCTYPE svg PUBLIC "-//W3C//DTD SVG 1.1//EN" "http://www.w3.org/Graphics/SVG/1.1/DTD/svg11.dtd">
<svg version="1.1" id="Layer_1" xmlns="http://www.w3.org/2000/svg" xmlns:xlink="http://www.w3.org/1999/xlink" x="0px" y="0px"
	 width="30px" height="30px" viewBox="0 0 30 30" style="enable-background:new 0 0 30 30;" xml:space="preserve">
<g>
	<defs>
		<path id="SVGID_1_" d="M29.25,16.5c0.219,0,0.398,0.07,0.539,0.211S30,17.023,30,17.227s-0.07,0.383-0.211,0.539
			S29.469,18,29.25,18s-0.398-0.07-0.539-0.211S28.5,17.469,28.5,17.25s0.07-0.398,0.211-0.539S29.031,16.5,29.25,16.5z M25.5,18
			v-7.5h-1.828l-2.813-2.766C20.703,7.578,20.516,7.5,20.297,7.5h-4.734c-0.188,0-0.359,0.063-0.516,0.188l-3.891,3.563
			c-0.344,0.344-0.523,0.75-0.539,1.219s0.133,0.875,0.445,1.219s0.711,0.523,1.195,0.539s0.898-0.133,1.242-0.445l3.516-3.188
			c0.156-0.156,0.336-0.227,0.539-0.211s0.375,0.094,0.516,0.234s0.203,0.32,0.188,0.539s-0.086,0.391-0.211,0.516l-1.359,1.219
			l5.719,4.641c0.125,0.125,0.266,0.281,0.422,0.469H25.5z M21.563,19.781c0.125-0.188,0.18-0.383,0.164-0.586
			s-0.102-0.367-0.258-0.492l-5.906-4.781l-1.078,0.984c-0.531,0.5-1.125,0.781-1.781,0.844c-0.563,0.063-1.109-0.031-1.641-0.281
			c-0.469-0.219-0.828-0.469-1.078-0.75c-0.625-0.656-0.914-1.43-0.867-2.32s0.398-1.633,1.055-2.227l2.766-2.531L12.891,7.5H9.609
			c-0.188,0-0.359,0.078-0.516,0.234L6.328,10.5H4.5V18h2.156l4.219,4.031c0.469,0.375,1.008,0.531,1.617,0.469
			s1.117-0.344,1.523-0.844l0.469-0.609l1.453,1.266c0.188,0.156,0.414,0.219,0.68,0.188s0.492-0.156,0.68-0.375l1.922-2.391
			l0.844,0.703c0.156,0.125,0.344,0.172,0.563,0.141s0.391-0.125,0.516-0.281L21.563,19.781z M29.625,9
			c0.094,0,0.18,0.039,0.258,0.117S30,9.281,30,9.375v0.75c0,0.094-0.039,0.18-0.117,0.258S29.719,10.5,29.625,10.5H27v9h2.625
			c0.094,0,0.18,0.039,0.258,0.117S30,19.781,30,19.875v0.75c0,0.094-0.039,0.18-0.117,0.258S29.719,21,29.625,21H27
			c-0.406,0-0.758-0.148-1.055-0.445S25.5,19.906,25.5,19.5h-2.25c-0.063,0.469-0.234,0.875-0.516,1.219l-0.422,0.563
			c-0.375,0.438-0.859,0.703-1.453,0.797c-0.5,0.063-0.953-0.016-1.359-0.234l-1.031,1.219C17.969,23.688,17.313,24,16.5,24
			c-0.594,0-1.109-0.188-1.547-0.563l-0.328-0.281C13.938,23.719,13.148,24,12.258,24s-1.68-0.281-2.367-0.844L6.047,19.5H4.5
			c0,0.406-0.148,0.758-0.445,1.055S3.406,21,3,21H0.375c-0.094,0-0.18-0.039-0.258-0.117S0,20.719,0,20.625v-0.75
			c0-0.094,0.039-0.18,0.117-0.258S0.281,19.5,0.375,19.5H3v-9H0.375c-0.094,0-0.18-0.039-0.258-0.117S0,10.219,0,10.125v-0.75
			c0-0.094,0.039-0.18,0.117-0.258S0.281,9,0.375,9h5.297l2.344-2.344C8.484,6.219,9.016,6,9.609,6h3.281
			c0.5,0,0.953,0.156,1.359,0.469C14.688,6.156,15.125,6,15.563,6h4.734c0.625,0,1.156,0.219,1.594,0.656L24.328,9H29.625z M0.75,18
			c-0.219,0-0.398-0.078-0.539-0.234S0,17.43,0,17.227s0.07-0.375,0.211-0.516S0.531,16.5,0.75,16.5s0.398,0.07,0.539,0.211
			S1.5,17.023,1.5,17.227s-0.07,0.383-0.211,0.539S0.969,18,0.75,18z"/>
	</defs>
	<clipPath id="SVGID_2_">
		<use xlink:href="#SVGID_1_"  style="overflow:visible;"/>
	</clipPath>
	<g style="clip-path:url(#SVGID_2_);">
		<defs>
			<rect id="SVGID_3_" width="30" height="30"/>
		</defs>
		<clipPath id="SVGID_4_">
			<use xlink:href="#SVGID_3_"  style="overflow:visible;"/>
		</clipPath>
		<rect x="-5" y="1" style="clip-path:url(#SVGID_4_);fill:#B5B4B5;" width="40" height="28"/>
	</g>
</g>
</svg>
