<?xml version="1.0" encoding="iso-8859-1"?>
<!-- Generator: Adobe Illustrator 16.0.0, SVG Export Plug-In . SVG Version: 6.00 Build 0)  -->
<!DOCTYPE svg PUBLIC "-//W3C//DTD SVG 1.1//EN" "http://www.w3.org/Graphics/SVG/1.1/DTD/svg11.dtd">
<svg version="1.1" id="Layer_1" xmlns="http://www.w3.org/2000/svg" xmlns:xlink="http://www.w3.org/1999/xlink" x="0px" y="0px"
	 width="26px" height="26px" viewBox="0 0 26 26" style="enable-background:new 0 0 26 26;" xml:space="preserve">
<g>
	<defs>
		<path id="SVGID_1_" d="M15.453,14.984c0-0.234,0.13-0.469,0.391-0.703c0.156-0.13,0.469-0.325,0.938-0.586
			c0.859-0.495,1.458-0.951,1.797-1.367c0.625-0.703,0.938-1.563,0.938-2.578c0-0.912-0.286-1.771-0.859-2.578
			c-0.521-0.729-1.224-1.315-2.109-1.758S14.75,4.75,13.813,4.75c-1.276,0-2.383,0.273-3.32,0.82
			C9.607,6.065,8.826,6.82,8.148,7.836c-0.104,0.13-0.143,0.28-0.117,0.449s0.104,0.306,0.234,0.41l1.641,1.25
			c0.156,0.104,0.319,0.143,0.488,0.117s0.306-0.104,0.41-0.234c0.495-0.625,0.898-1.055,1.211-1.289
			c0.417-0.287,0.918-0.43,1.504-0.43s1.101,0.169,1.543,0.508c0.495,0.391,0.742,0.873,0.742,1.445
			c0,0.521-0.195,0.951-0.586,1.289c-0.234,0.182-0.677,0.404-1.328,0.664c-0.755,0.338-1.289,0.638-1.602,0.898
			c-0.495,0.469-0.742,1.106-0.742,1.914v0.547c0,0.183,0.059,0.332,0.176,0.449S11.99,16,12.172,16h2.656
			c0.183,0,0.332-0.059,0.449-0.176s0.176-0.267,0.176-0.449V14.984z M13.5,22.25c0.677,0,1.263-0.247,1.758-0.742
			S16,20.427,16,19.75s-0.247-1.263-0.742-1.758S14.177,17.25,13.5,17.25c-0.677,0-1.263,0.247-1.758,0.742S11,19.073,11,19.75
			s0.248,1.263,0.742,1.758S12.823,22.25,13.5,22.25z M13.813,3.5c1.146,0,2.259,0.273,3.34,0.82s1.946,1.289,2.598,2.227
			c0.677,0.99,1.016,2.057,1.016,3.203c0,0.938-0.195,1.771-0.586,2.5c-0.313,0.573-0.755,1.094-1.328,1.563
			c-0.339,0.261-0.82,0.573-1.445,0.938c-0.339,0.208-0.573,0.352-0.703,0.43v0.195c0,0.313-0.071,0.599-0.215,0.859
			s-0.332,0.481-0.566,0.664c0.417,0.339,0.742,0.755,0.977,1.25s0.352,1.028,0.352,1.602c0,1.042-0.364,1.927-1.094,2.656
			S14.542,23.5,13.5,23.5c-1.042,0-1.927-0.364-2.656-1.094S9.75,20.792,9.75,19.75c0-0.573,0.117-1.106,0.352-1.602
			s0.56-0.911,0.977-1.25c-0.234-0.183-0.423-0.403-0.566-0.664s-0.215-0.547-0.215-0.859v-0.547c0-0.808,0.182-1.497,0.547-2.07
			c0.287-0.469,0.69-0.873,1.211-1.211c0.313-0.182,0.781-0.404,1.406-0.664c0.391-0.182,0.651-0.313,0.781-0.391
			c0.208-0.13,0.313-0.287,0.313-0.469s-0.11-0.338-0.332-0.469s-0.437-0.195-0.645-0.195c-0.339,0-0.619,0.072-0.84,0.215
			s-0.541,0.488-0.957,1.035c-0.313,0.391-0.723,0.619-1.23,0.684s-0.97-0.059-1.387-0.371l-1.641-1.25
			C7.133,9.385,6.898,8.995,6.82,8.5s0.013-0.951,0.273-1.367c0.833-1.224,1.797-2.135,2.891-2.734S12.354,3.5,13.813,3.5z"/>
	</defs>
	<clipPath id="SVGID_2_">
		<use xlink:href="#SVGID_1_"  style="overflow:visible;"/>
	</clipPath>
	<g style="clip-path:url(#SVGID_2_);">
		<defs>
			<rect id="SVGID_3_" width="26" height="26"/>
		</defs>
		<clipPath id="SVGID_4_">
			<use xlink:href="#SVGID_3_"  style="overflow:visible;"/>
		</clipPath>
		<rect x="1.793" y="-1.5" style="clip-path:url(#SVGID_4_);fill:#AC6289;" width="23.972" height="30"/>
	</g>
</g>
</svg>
