<?xml version="1.0" encoding="iso-8859-1"?>
<!-- Generator: Adobe Illustrator 16.0.0, SVG Export Plug-In . SVG Version: 6.00 Build 0)  -->
<!DOCTYPE svg PUBLIC "-//W3C//DTD SVG 1.1//EN" "http://www.w3.org/Graphics/SVG/1.1/DTD/svg11.dtd">
<svg version="1.1" id="Layer_1" xmlns="http://www.w3.org/2000/svg" xmlns:xlink="http://www.w3.org/1999/xlink" x="0px" y="0px"
	 width="60px" height="60px" viewBox="0 0 60 60" style="enable-background:new 0 0 60 60;" xml:space="preserve">
<g>
	<defs>
		<path id="SVGID_1_" d="M28.969,21h2.063c0.375,0,0.672,0.109,0.891,0.328s0.297,0.484,0.234,0.797L31.5,37.875
			c0,0.313-0.109,0.578-0.328,0.797S30.688,39,30.375,39h-0.75c-0.313,0-0.578-0.109-0.797-0.328S28.5,38.219,28.5,37.969
			l-0.656-15.844c-0.063-0.313,0.016-0.578,0.234-0.797S28.594,21,28.969,21z M30,40.875c0.75,0,1.375,0.25,1.875,0.75
			s0.75,1.125,0.75,1.875s-0.25,1.375-0.75,1.875s-1.125,0.75-1.875,0.75s-1.375-0.25-1.875-0.75s-0.75-1.125-0.75-1.875
			s0.25-1.375,0.75-1.875S29.25,40.875,30,40.875z M53.813,48.75l-22.5-39C31,9.25,30.563,9,30,9s-1,0.25-1.313,0.75l-22.5,39
			c-0.25,0.5-0.234,1,0.047,1.5S6.938,51,7.5,51h45c0.563,0,0.984-0.25,1.266-0.75S54.063,49.25,53.813,48.75z M56.438,47.25
			c0.5,1,0.656,2.016,0.469,3.047s-0.688,1.906-1.5,2.625S53.625,54,52.5,54h-45c-1.125,0-2.094-0.359-2.906-1.078
			s-1.313-1.594-1.5-2.625S3.063,48.25,3.563,47.25l22.5-39c0.563-1,1.359-1.672,2.391-2.016s2.063-0.344,3.094,0
			s1.828,1.016,2.391,2.016L56.438,47.25z"/>
	</defs>
	<clipPath id="SVGID_2_">
		<use xlink:href="#SVGID_1_"  style="overflow:visible;"/>
	</clipPath>
	<g style="clip-path:url(#SVGID_2_);">
		<defs>
			<rect id="SVGID_3_" width="60" height="60"/>
		</defs>
		<clipPath id="SVGID_4_">
			<use xlink:href="#SVGID_3_"  style="overflow:visible;"/>
		</clipPath>
		<rect x="-1.983" y="0.977" style="clip-path:url(#SVGID_4_);fill:#AC6289;" width="63.965" height="58.023"/>
	</g>
</g>
</svg>
