<?xml version="1.0" encoding="iso-8859-1"?>
<!-- Generator: Adobe Illustrator 16.0.0, SVG Export Plug-In . SVG Version: 6.00 Build 0)  -->
<!DOCTYPE svg PUBLIC "-//W3C//DTD SVG 1.1//EN" "http://www.w3.org/Graphics/SVG/1.1/DTD/svg11.dtd">
<svg version="1.1" id="Layer_1" xmlns="http://www.w3.org/2000/svg" xmlns:xlink="http://www.w3.org/1999/xlink" x="0px" y="0px"
	 width="30px" height="30px" viewBox="0 0 30 30" style="enable-background:new 0 0 30 30;" xml:space="preserve">
<g>
	<defs>
		<path id="SVGID_1_" d="M24.531,16.5l1.875-9H7.328l1.688,9H24.531z M22.75,25.5c0.406,0,0.758-0.148,1.055-0.445
			S24.25,24.406,24.25,24s-0.148-0.758-0.445-1.055S23.156,22.5,22.75,22.5s-0.758,0.148-1.055,0.445S21.25,23.594,21.25,24
			s0.148,0.758,0.445,1.055S22.344,25.5,22.75,25.5z M12.25,24c0-0.406-0.148-0.758-0.445-1.055S11.156,22.5,10.75,22.5
			s-0.758,0.148-1.055,0.445S9.25,23.594,9.25,24s0.148,0.758,0.445,1.055S10.344,25.5,10.75,25.5s0.758-0.148,1.055-0.445
			S12.25,24.406,12.25,24z M26.875,6c0.344,0,0.633,0.141,0.867,0.422s0.305,0.594,0.211,0.938l-2.016,9.75
			c-0.063,0.25-0.195,0.461-0.398,0.633S25.109,18,24.859,18H9.297l0.563,3h13.875c0.281,0,0.523,0.078,0.727,0.234
			s0.336,0.359,0.398,0.609c0.594,0.594,0.891,1.313,0.891,2.156s-0.289,1.555-0.867,2.133S23.594,27,22.75,27
			s-1.555-0.289-2.133-0.867S19.75,24.844,19.75,24c0-0.531,0.141-1.031,0.422-1.5h-6.844c0.281,0.469,0.422,0.969,0.422,1.5
			c0,0.844-0.289,1.555-0.867,2.133S11.594,27,10.75,27s-1.555-0.289-2.133-0.867S7.75,24.859,7.75,24.047s0.266-1.5,0.797-2.063
			L5.266,4.5H1.563c-0.156,0-0.289-0.055-0.398-0.164S1,4.094,1,3.938V3.563c0-0.156,0.055-0.289,0.164-0.398S1.406,3,1.563,3h3.984
			C5.828,3,6.07,3.086,6.273,3.258s0.336,0.398,0.398,0.68L7.047,6H26.875z"/>
	</defs>
	<clipPath id="SVGID_2_">
		<use xlink:href="#SVGID_1_"  style="overflow:visible;"/>
	</clipPath>
	<g style="clip-path:url(#SVGID_2_);">
		<defs>
			<rect id="SVGID_3_" width="30" height="30"/>
		</defs>
		<clipPath id="SVGID_4_">
			<use xlink:href="#SVGID_3_"  style="overflow:visible;"/>
		</clipPath>
		<rect x="-4" y="-2" style="clip-path:url(#SVGID_4_);fill:#AC6289;" width="36.993" height="34"/>
	</g>
</g>
</svg>
