<?xml version="1.0" encoding="iso-8859-1"?>
<!-- Generator: Adobe Illustrator 16.0.0, SVG Export Plug-In . SVG Version: 6.00 Build 0)  -->
<!DOCTYPE svg PUBLIC "-//W3C//DTD SVG 1.1//EN" "http://www.w3.org/Graphics/SVG/1.1/DTD/svg11.dtd">
<svg version="1.1" id="Layer_1" xmlns="http://www.w3.org/2000/svg" xmlns:xlink="http://www.w3.org/1999/xlink" x="0px" y="0px"
	 width="30px" height="30px" viewBox="0 0 30 30" style="enable-background:new 0 0 30 30;" xml:space="preserve">
<g>
	<defs>
		<path id="SVGID_1_" d="M23.5,24.891v-2.109c0-0.813-0.203-1.578-0.609-2.297s-0.969-1.313-1.688-1.781l-1.031-0.609L21.344,15
			h-1.453c-0.094,0.188-0.625,1.094-1.594,2.719l-1.453,2.344l1.453,5.438h4.594c0.188,0,0.336-0.055,0.445-0.164
			S23.5,25.078,23.5,24.891z M12.25,25.5h4.5l-1.5-5.625l1.031-1.781c-0.625,0.188-1.219,0.281-1.781,0.281
			s-1.156-0.094-1.781-0.281l1.031,1.781L12.25,25.5z M6.109,25.5h4.594l1.453-5.438c-1.875-3.063-2.875-4.75-3-5.063H7.797l1.266,3
			l-1.172,0.656c-0.75,0.438-1.336,1.023-1.758,1.758S5.5,21.938,5.5,22.781v2.109c0,0.188,0.055,0.336,0.164,0.445
			S5.922,25.5,6.109,25.5z M9.953,8.813v0.047L9.625,8.906C8.688,9.125,8,9.328,7.563,9.516c0.688,0.25,1.563,0.469,2.625,0.656
			C11.5,10.391,12.938,10.5,14.5,10.5s3-0.109,4.313-0.328c1.063-0.188,1.938-0.406,2.625-0.656C21,9.328,20.281,9.125,19.281,8.906
			l-0.234-0.047V8.813C18.609,7,17.969,5.563,17.125,4.5l-0.516,0.281c-0.563,0.281-0.938,0.453-1.125,0.516
			c-0.313,0.094-0.641,0.148-0.984,0.164s-0.672-0.039-0.984-0.164c-0.219-0.094-0.594-0.281-1.125-0.563L11.875,4.5
			C11.031,5.563,10.406,7,10,8.813H9.953z M10,12.375c0,1.25,0.438,2.313,1.313,3.188s1.938,1.313,3.188,1.313
			s2.313-0.438,3.188-1.313S19,13.625,19,12.375V12c-0.156,0.094-0.25,0.172-0.281,0.234l-0.047,0.188
			c-0.219,0.688-0.469,1.156-0.75,1.406c-0.188,0.188-0.453,0.313-0.797,0.375c-0.438,0.094-0.828,0.047-1.172-0.141
			c-0.469-0.281-0.813-0.75-1.031-1.406c-0.063-0.188-0.203-0.281-0.422-0.281s-0.359,0.094-0.422,0.281
			c-0.25,0.719-0.594,1.188-1.031,1.406c-0.375,0.188-0.781,0.234-1.219,0.141c-0.313-0.094-0.563-0.219-0.75-0.375
			c-0.25-0.25-0.484-0.703-0.703-1.359l-0.094-0.234c0-0.063-0.078-0.141-0.234-0.234C10.016,12.156,10,12.281,10,12.375z
			 M22,17.438c0.906,0.563,1.633,1.32,2.18,2.273S25,21.688,25,22.781v2.109c0,0.594-0.203,1.094-0.609,1.5S23.484,27,22.891,27
			H6.109c-0.594,0-1.094-0.203-1.5-0.609S4,25.484,4,24.891v-2.109c0-1.125,0.289-2.172,0.867-3.141s1.336-1.734,2.273-2.297
			l-1.172-2.813c-0.125-0.25-0.109-0.484,0.047-0.703S6.375,13.5,6.625,13.5h1.969C8.531,13.125,8.5,12.773,8.5,12.445
			s0.031-0.68,0.094-1.055c-0.969-0.25-1.727-0.531-2.273-0.844S5.5,9.891,5.5,9.516s0.289-0.734,0.867-1.078
			s1.367-0.625,2.367-0.844c0.219-0.75,0.516-1.516,0.891-2.297C9.969,4.578,10.328,4,10.703,3.563C10.984,3.188,11.375,3,11.875,3
			c0.156,0,0.305,0.023,0.445,0.07s0.445,0.195,0.914,0.445l0.609,0.281c0.438,0.219,0.875,0.219,1.313,0l0.609-0.281
			c0.438-0.219,0.727-0.359,0.867-0.422S16.938,3,17.125,3c0.5,0,0.891,0.188,1.172,0.563c0.375,0.469,0.734,1.047,1.078,1.734
			c0.375,0.781,0.672,1.547,0.891,2.297c1,0.219,1.789,0.5,2.367,0.844S23.5,9.133,23.5,9.492s-0.273,0.703-0.82,1.031
			s-1.305,0.617-2.273,0.867c0.063,0.375,0.094,0.727,0.094,1.055s-0.031,0.68-0.094,1.055h2.016c0.25,0,0.453,0.109,0.609,0.328
			s0.188,0.453,0.094,0.703L22,17.438z"/>
	</defs>
	<clipPath id="SVGID_2_">
		<use xlink:href="#SVGID_1_"  style="overflow:visible;"/>
	</clipPath>
	<g style="clip-path:url(#SVGID_2_);">
		<defs>
			<rect id="SVGID_3_" width="30" height="30"/>
		</defs>
		<clipPath id="SVGID_4_">
			<use xlink:href="#SVGID_3_"  style="overflow:visible;"/>
		</clipPath>
		<rect x="-1" y="-2" style="clip-path:url(#SVGID_4_);fill:#AC6289;" width="31" height="34"/>
	</g>
</g>
</svg>
