<?xml version="1.0" encoding="iso-8859-1"?>
<!-- Generator: Adobe Illustrator 16.0.0, SVG Export Plug-In . SVG Version: 6.00 Build 0)  -->
<!DOCTYPE svg PUBLIC "-//W3C//DTD SVG 1.1//EN" "http://www.w3.org/Graphics/SVG/1.1/DTD/svg11.dtd">
<svg version="1.1" id="Layer_1" xmlns="http://www.w3.org/2000/svg" xmlns:xlink="http://www.w3.org/1999/xlink" x="0px" y="0px"
	 width="26px" height="26px" viewBox="0 0 26 26" style="enable-background:new 0 0 26 26;" xml:space="preserve">
<g>
	<defs>
		<path id="SVGID_1_" d="M13.063,22.094c-0.104,0.078-0.221,0.117-0.352,0.117s-0.234-0.039-0.313-0.117l-8.242-8.281
			C4.052,13.734,4,13.63,4,13.5s0.052-0.234,0.156-0.313l8.242-8.281c0.078-0.078,0.182-0.117,0.313-0.117s0.248,0.039,0.352,0.117
			l0.273,0.313c0.078,0.078,0.117,0.182,0.117,0.313s-0.039,0.248-0.117,0.352l-6.992,6.953h14.688c0.13,0,0.241,0.045,0.332,0.137
			c0.091,0.091,0.137,0.202,0.137,0.332v0.391c0,0.13-0.046,0.241-0.137,0.332s-0.202,0.137-0.332,0.137H6.344l6.992,6.953
			c0.078,0.104,0.117,0.222,0.117,0.352s-0.039,0.234-0.117,0.313L13.063,22.094z"/>
	</defs>
	<clipPath id="SVGID_2_">
		<use xlink:href="#SVGID_1_"  style="overflow:visible;"/>
	</clipPath>
	<g style="clip-path:url(#SVGID_2_);">
		<defs>
			<rect id="SVGID_3_" width="26" height="26"/>
		</defs>
		<clipPath id="SVGID_4_">
			<use xlink:href="#SVGID_3_"  style="overflow:visible;"/>
		</clipPath>
		<rect x="-1" y="-0.211" style="clip-path:url(#SVGID_4_);fill:#65656A;" width="27.5" height="27.422"/>
	</g>
</g>
</svg>
