<?xml version="1.0" encoding="iso-8859-1"?>
<!-- Generator: Adobe Illustrator 16.0.0, SVG Export Plug-In . SVG Version: 6.00 Build 0)  -->
<!DOCTYPE svg PUBLIC "-//W3C//DTD SVG 1.1//EN" "http://www.w3.org/Graphics/SVG/1.1/DTD/svg11.dtd">
<svg version="1.1" id="Layer_1" xmlns="http://www.w3.org/2000/svg" xmlns:xlink="http://www.w3.org/1999/xlink" x="0px" y="0px"
	 width="26px" height="26px" viewBox="0 0 26 26" style="enable-background:new 0 0 26 26;" xml:space="preserve">
<g>
	<defs>
		<path id="SVGID_1_" d="M22.25,19.438V7.563c0-0.078-0.032-0.15-0.098-0.215S22.016,7.25,21.938,7.25h-1.875
			c-0.078,0-0.149,0.033-0.215,0.098S19.75,7.484,19.75,7.563v11.875c0,0.078,0.032,0.149,0.098,0.215s0.137,0.098,0.215,0.098
			h1.875c0.078,0,0.149-0.032,0.215-0.098S22.25,19.516,22.25,19.438z M17.25,19.438V7.563c0-0.078-0.032-0.15-0.098-0.215
			S17.016,7.25,16.938,7.25h-1.875c-0.078,0-0.149,0.033-0.215,0.098S14.75,7.484,14.75,7.563v11.875
			c0,0.078,0.032,0.149,0.098,0.215s0.137,0.098,0.215,0.098h1.875c0.078,0,0.149-0.032,0.215-0.098S17.25,19.516,17.25,19.438z
			 M12.25,19.438V7.563c0-0.078-0.033-0.15-0.098-0.215S12.016,7.25,11.938,7.25h-0.625c-0.078,0-0.15,0.033-0.215,0.098
			S11,7.484,11,7.563v11.875c0,0.078,0.033,0.149,0.098,0.215s0.137,0.098,0.215,0.098h0.625c0.078,0,0.15-0.032,0.215-0.098
			S12.25,19.516,12.25,19.438z M9.75,19.438V7.563c0-0.078-0.033-0.15-0.098-0.215S9.516,7.25,9.438,7.25H8.813
			c-0.078,0-0.15,0.033-0.215,0.098S8.5,7.484,8.5,7.563v11.875c0,0.078,0.033,0.149,0.098,0.215s0.137,0.098,0.215,0.098h0.625
			c0.078,0,0.15-0.032,0.215-0.098S9.75,19.516,9.75,19.438z M7.25,19.438V7.563c0-0.078-0.033-0.15-0.098-0.215
			S7.016,7.25,6.938,7.25H5.063c-0.078,0-0.15,0.033-0.215,0.098S4.75,7.484,4.75,7.563v11.875c0,0.078,0.033,0.149,0.098,0.215
			s0.137,0.098,0.215,0.098h1.875c0.078,0,0.15-0.032,0.215-0.098S7.25,19.516,7.25,19.438z M24.125,3.5
			c0.521,0,0.964,0.182,1.328,0.547S26,4.854,26,5.375v16.25c0,0.521-0.183,0.964-0.547,1.328S24.646,23.5,24.125,23.5H2.875
			c-0.521,0-0.963-0.183-1.328-0.547S1,22.146,1,21.625V5.375c0-0.521,0.182-0.963,0.547-1.328S2.354,3.5,2.875,3.5H24.125z"/>
	</defs>
	<clipPath id="SVGID_2_">
		<use xlink:href="#SVGID_1_"  style="overflow:visible;"/>
	</clipPath>
	<g style="clip-path:url(#SVGID_2_);">
		<defs>
			<rect id="SVGID_3_" width="26" height="26"/>
		</defs>
		<clipPath id="SVGID_4_">
			<use xlink:href="#SVGID_3_"  style="overflow:visible;"/>
		</clipPath>
		<rect x="-4" y="-1.5" style="clip-path:url(#SVGID_4_);fill:#FFFFFF;" width="35" height="30"/>
	</g>
</g>
</svg>
