<?xml version="1.0" encoding="iso-8859-1"?>
<!-- Generator: Adobe Illustrator 16.0.0, SVG Export Plug-In . SVG Version: 6.00 Build 0)  -->
<!DOCTYPE svg PUBLIC "-//W3C//DTD SVG 1.1//EN" "http://www.w3.org/Graphics/SVG/1.1/DTD/svg11.dtd">
<svg version="1.1" id="Layer_1" xmlns="http://www.w3.org/2000/svg" xmlns:xlink="http://www.w3.org/1999/xlink" x="0px" y="0px"
	 width="30px" height="30px" viewBox="0 0 30 30" style="enable-background:new 0 0 30 30;" xml:space="preserve">
<g>
	<defs>
		<path id="SVGID_1_" d="M5.25,20.813c0.469,0,0.867,0.164,1.195,0.492s0.492,0.727,0.492,1.195s-0.164,0.867-0.492,1.195
			s-0.727,0.492-1.195,0.492s-0.867-0.164-1.195-0.492S3.563,22.969,3.563,22.5s0.164-0.867,0.492-1.195S4.781,20.813,5.25,20.813z
			 M5.25,13.313c0.469,0,0.867,0.164,1.195,0.492S6.938,14.531,6.938,15s-0.164,0.867-0.492,1.195s-0.727,0.492-1.195,0.492
			s-0.867-0.164-1.195-0.492S3.563,15.469,3.563,15s0.164-0.867,0.492-1.195S4.781,13.313,5.25,13.313z M5.25,5.813
			c0.469,0,0.867,0.164,1.195,0.492S6.938,7.031,6.938,7.5S6.773,8.367,6.445,8.695S5.719,9.188,5.25,9.188S4.383,9.023,4.055,8.695
			S3.563,7.969,3.563,7.5s0.164-0.867,0.492-1.195S4.781,5.813,5.25,5.813z M27,23.063c0,0.063-0.031,0.125-0.094,0.188
			s-0.125,0.094-0.188,0.094H9.281c-0.063,0-0.125-0.031-0.188-0.094S9,23.125,9,23.063v-1.125c0-0.063,0.031-0.125,0.094-0.188
			s0.125-0.094,0.188-0.094h17.438c0.063,0,0.125,0.031,0.188,0.094S27,21.875,27,21.938V23.063z M27,15.563
			c0,0.063-0.031,0.125-0.094,0.188s-0.125,0.094-0.188,0.094H9.281c-0.063,0-0.125-0.031-0.188-0.094S9,15.625,9,15.563v-1.125
			c0-0.063,0.031-0.125,0.094-0.188s0.125-0.094,0.188-0.094h17.438c0.063,0,0.125,0.031,0.188,0.094S27,14.375,27,14.438V15.563z
			 M9.281,8.344c-0.063,0-0.125-0.031-0.188-0.094S9,8.125,9,8.063V6.938C9,6.875,9.031,6.813,9.094,6.75s0.125-0.094,0.188-0.094
			h17.438c0.063,0,0.125,0.031,0.188,0.094S27,6.875,27,6.938v1.125c0,0.063-0.031,0.125-0.094,0.188s-0.125,0.094-0.188,0.094
			H9.281z"/>
	</defs>
	<clipPath id="SVGID_2_">
		<use xlink:href="#SVGID_1_"  style="overflow:visible;"/>
	</clipPath>
	<g style="clip-path:url(#SVGID_2_);">
		<defs>
			<rect id="SVGID_3_" width="30" height="30"/>
		</defs>
		<clipPath id="SVGID_4_">
			<use xlink:href="#SVGID_3_"  style="overflow:visible;"/>
		</clipPath>
		<rect x="-1.438" y="0.813" style="clip-path:url(#SVGID_4_);fill:#B5B4B5;" width="33.438" height="28.375"/>
	</g>
</g>
</svg>
