<?xml version="1.0" encoding="iso-8859-1"?>
<!-- Generator: Adobe Illustrator 16.0.0, SVG Export Plug-In . SVG Version: 6.00 Build 0)  -->
<!DOCTYPE svg PUBLIC "-//W3C//DTD SVG 1.1//EN" "http://www.w3.org/Graphics/SVG/1.1/DTD/svg11.dtd">
<svg version="1.1" id="Layer_1" xmlns="http://www.w3.org/2000/svg" xmlns:xlink="http://www.w3.org/1999/xlink" x="0px" y="0px"
	 width="128px" height="128px" viewBox="0 0 128 128" style="enable-background:new 0 0 128 128;" xml:space="preserve">
<g>
	<defs>
		<path id="SVGID_1_" d="M58.027,29.775C43.383,50.375,31.961,44.034,41.021,2.843C42.35,0.809,43.186,0,43.186,0
			c-0.295,2.141-0.533,4.2-0.73,6.21c6.724-2.435,13.972-3.767,21.54-3.767c5.444,0,10.725,0.71,15.768,2.01
			C73.54,8.841,66.505,17.837,58.027,29.775z M127,65.222c0,16.358-6.28,31.238-16.563,42.416
			c6.707,14.528-4.297,23.148-19.515,14.34C82.765,125.835,73.639,128,63.996,128c-7.831,0-15.333-1.438-22.262-4.045
			c-2.173,1.708-5.354,2.558-9.929,2.288c-2.337-0.139-4.198-1.381-5.674-3.465c16.645,0.605,14.267-14.233,11.2-31.017
			c-3.255-17.821,6.683-32.546,23.352-2.477c5.452,9.854,12.767,20.779,18.538,25.461c20.68,16.768,36.979,2.198,19.597-18.834
			c-22.27-26.948-31.51-41.477-23.253-53.774c7.272-10.835,23.885-29.22,19.047-37.113c1.566,0.139,3.091,0.678,4.608,1.708
			c2.558,1.765,3.018,4.584,2.181,7.983C116.923,26.147,127,44.516,127,65.222z M33.199,10.475
			c-4.395,6.848-9.569,17.307-13.013,32.063c-3.919,16.792-7.207,44.394-4.903,62.435C6.371,94.155,1,80.321,1,65.222
			C1,41.705,13.988,21.212,33.199,10.475z"/>
	</defs>
	<clipPath id="SVGID_2_">
		<use xlink:href="#SVGID_1_"  style="overflow:visible;"/>
	</clipPath>
	<g style="clip-path:url(#SVGID_2_);">
		<defs>
			<rect id="SVGID_3_" width="128" height="128"/>
		</defs>
		<clipPath id="SVGID_4_">
			<use xlink:href="#SVGID_3_"  style="overflow:visible;"/>
		</clipPath>
		<rect x="-4" y="-5" style="clip-path:url(#SVGID_4_);fill:#AC6289;" width="136" height="138"/>
	</g>
</g>
<g>
	<defs>
		<path id="SVGID_5_" d="M58.027,29.775C43.383,50.375,31.961,44.034,41.021,2.843C42.35,0.809,43.186,0,43.186,0
			c-0.295,2.141-0.533,4.2-0.73,6.21c6.724-2.435,13.972-3.767,21.54-3.767c5.444,0,10.725,0.71,15.768,2.01
			C73.54,8.841,66.505,17.837,58.027,29.775z M127,65.222c0,16.358-6.28,31.238-16.563,42.416
			c6.707,14.528-4.297,23.148-19.515,14.34C82.765,125.835,73.639,128,63.996,128c-7.831,0-15.333-1.438-22.262-4.045
			c-2.173,1.708-5.354,2.558-9.929,2.288c-2.337-0.139-4.198-1.381-5.674-3.465c16.645,0.605,14.267-14.233,11.2-31.017
			c-3.255-17.821,6.683-32.546,23.352-2.477c5.452,9.854,12.767,20.779,18.538,25.461c20.68,16.768,36.979,2.198,19.597-18.834
			c-22.27-26.948-31.51-41.477-23.253-53.774c7.272-10.835,23.885-29.22,19.047-37.113c1.566,0.139,3.091,0.678,4.608,1.708
			c2.558,1.765,3.018,4.584,2.181,7.983C116.923,26.147,127,44.516,127,65.222z M33.199,10.475
			c-4.395,6.848-9.569,17.307-13.013,32.063c-3.919,16.792-7.207,44.394-4.903,62.435C6.371,94.155,1,80.321,1,65.222
			C1,41.705,13.988,21.212,33.199,10.475z"/>
	</defs>
	<clipPath id="SVGID_6_">
		<use xlink:href="#SVGID_5_"  style="overflow:visible;"/>
	</clipPath>
	<g style="clip-path:url(#SVGID_6_);">
		<defs>
			<rect id="SVGID_7_" width="128" height="128"/>
		</defs>
		<clipPath id="SVGID_8_">
			<use xlink:href="#SVGID_7_"  style="overflow:visible;"/>
		</clipPath>
		<defs>
			<filter id="Adobe_OpacityMaskFilter" filterUnits="userSpaceOnUse" x="0" y="0" width="128.16" height="128.16">
				<feColorMatrix  type="matrix" values="1 0 0 0 0  0 1 0 0 0  0 0 1 0 0  0 0 0 1 0"/>
			</filter>
		</defs>
		<mask maskUnits="userSpaceOnUse" x="0" y="0" width="128.16" height="128.16" id="SVGID_9_">
			<g style="filter:url(#Adobe_OpacityMaskFilter);">
				<g>
					<defs>
						<rect id="SVGID_10_" x="1" width="126" height="128"/>
					</defs>
					<clipPath id="SVGID_11_" style="clip-path:url(#SVGID_8_);">
						<use xlink:href="#SVGID_10_"  style="overflow:visible;"/>
					</clipPath>
					<g style="clip-path:url(#SVGID_11_);">
						<image style="overflow:visible;" width="126" height="128" xlink:href="6D345795.jpg"  transform="matrix(1 0 0 -1 1 128)">
						</image>
					</g>
				</g>
			</g>
		</mask>
		<g style="opacity:0.2;clip-path:url(#SVGID_8_);mask:url(#SVGID_9_);">
			<defs>
				<filter id="Adobe_OpacityMaskFilter_1_" filterUnits="userSpaceOnUse" x="0" y="0" width="128.16" height="128.16">
					<feColorMatrix  type="matrix" values="1 0 0 0 0  0 1 0 0 0  0 0 1 0 0  0 0 0 1 0"/>
				</filter>
			</defs>
			<mask maskUnits="userSpaceOnUse" x="0" y="0" width="128.16" height="128.16" id="SVGID_9_">
				<g style="filter:url(#Adobe_OpacityMaskFilter_1_);">
					<rect x="-1" y="-1" width="130" height="130"/>
					<g style="enable-background:new    ;">
						<g>
							<defs>
								<rect id="SVGID_12_" x="1" width="126" height="128"/>
							</defs>
							<clipPath id="SVGID_13_">
								<use xlink:href="#SVGID_12_"  style="overflow:visible;"/>
							</clipPath>
							<g>
								<defs>
									<rect id="SVGID_14_" x="1" width="126" height="128"/>
								</defs>
								<clipPath id="SVGID_15_" style="clip-path:url(#SVGID_13_);">
									<use xlink:href="#SVGID_14_"  style="overflow:visible;"/>
								</clipPath>
								<g style="clip-path:url(#SVGID_15_);">
									
										<image style="overflow:visible;" width="126" height="128" xlink:href="6D345797.jpg"  transform="matrix(1 0 0 -1 1 128)">
									</image>
								</g>
							</g>
						</g>
					</g>
				</g>
			</mask>
			<g style="opacity:0.2;">
				<g>
					<defs>
						<rect id="SVGID_16_" width="128" height="128"/>
					</defs>
					<clipPath id="SVGID_17_">
						<use xlink:href="#SVGID_16_"  style="overflow:visible;"/>
					</clipPath>
					<defs>
						<filter id="Adobe_OpacityMaskFilter_2_" filterUnits="userSpaceOnUse" x="0" y="0" width="128.16" height="128.16">
							<feColorMatrix  type="matrix" values="1 0 0 0 0  0 1 0 0 0  0 0 1 0 0  0 0 0 1 0"/>
						</filter>
					</defs>
					<mask maskUnits="userSpaceOnUse" x="0" y="0" width="128.16" height="128.16" id="SVGID_9_">
						<g style="filter:url(#Adobe_OpacityMaskFilter_2_);">
							<g>
								<defs>
									<rect id="SVGID_18_" x="1" width="126" height="128"/>
								</defs>
								<clipPath id="SVGID_19_" style="clip-path:url(#SVGID_17_);">
									<use xlink:href="#SVGID_18_"  style="overflow:visible;"/>
								</clipPath>
								<g style="clip-path:url(#SVGID_19_);">
									
										<image style="overflow:visible;" width="126" height="128" xlink:href="6D345792.jpg"  transform="matrix(1 0 0 -1 1 128)">
									</image>
								</g>
							</g>
						</g>
					</mask>
					<g style="clip-path:url(#SVGID_17_);">
						
							<image style="overflow:visible;" width="534" height="534" xlink:href="6D345793.jpg"  transform="matrix(0.24 0 0 0.24 0 0)">
						</image>
					</g>
				</g>
			</g>
		</g>
	</g>
</g>
</svg>
