<svg xmlns="http://www.w3.org/2000/svg" width="60" height="60" viewBox="0 0 60 60">
  <path fill="#FFF" fill-rule="evenodd" d="M56.4373726,47.2500018 C56.9373709,48.2499999 57.093621,49.265622 56.9061215,50.2968695 C56.7186219,51.3281171 56.2186236,52.2031145 55.4061251,52.9218633 C54.5936265,53.640612 53.6248793,53.9999857 52.499882,53.9999857 L7.49998927,53.9999857 C6.37499195,53.9999857 5.40624474,53.640612 4.5937462,52.9218633 C3.78124766,52.2031145 3.28124933,51.3281171 3.09374978,50.2968695 C2.90625022,49.265622 3.06250033,48.2499999 3.56249866,47.2500018 L26.062445,8.25009477 C26.6249437,7.25009668 27.4218168,6.57822423 28.4530643,6.23447458 C29.4843119,5.89072492 30.5155594,5.89072492 31.5468069,6.23447458 C32.5780545,6.57822423 33.3749276,7.25009668 33.9374262,8.25009477 L56.4373726,47.2500018 Z M29.9999356,39.187521 C28.812438,39.187521 27.7968159,39.609395 26.9530679,40.453143 C26.1093199,41.296891 25.6874459,42.3125131 25.6874459,43.5000107 C25.6874459,44.6875084 26.1093199,45.7031305 26.9530679,46.5468785 C27.7968159,47.3906265 28.812438,47.8125004 29.9999356,47.8125004 C31.1874333,47.8125004 32.2030554,47.3906265 33.0468034,46.5468785 C33.8905514,45.7031305 34.3124253,44.6875084 34.3124253,43.5000107 C34.3124253,42.3125131 33.8905514,41.296891 33.0468034,40.453143 C32.2030554,39.609395 31.1874333,39.187521 29.9999356,39.187521 Z M25.8749455,23.7188079 L26.6249437,36.4687775 C26.6249437,36.7187774 26.7343189,36.9531518 26.9530679,37.1719008 C27.1718169,37.3906498 27.4374422,37.500025 27.749941,37.500025 L32.2499303,37.500025 C32.562429,37.500025 32.8280544,37.3906498 33.0468034,37.1719008 C33.2655524,36.9531518 33.3749276,36.7187774 33.3749276,36.4687775 L34.1249258,23.7188079 C34.1249258,23.3438088 34.0155506,23.046934 33.7968016,22.828185 C33.5780526,22.609436 33.3124273,22.5000608 32.9999285,22.5000608 L26.9999428,22.5000608 C26.687444,22.5000608 26.4218187,22.609436 26.2030697,22.828185 C25.9843207,23.046934 25.8749455,23.3438088 25.8749455,23.7188079 Z"/>
</svg>
