<svg xmlns="http://www.w3.org/2000/svg" width="30" height="30" viewBox="0 0 30 30">
  <path fill="#AC6289" fill-rule="evenodd" d="M21.9999571,17.4375156 C22.9062047,18.0000143 23.6327655,18.7578252 24.1796394,19.7109477 C24.7265133,20.6640702 24.9999499,21.6875058 24.9999499,22.7812529 L24.9999499,24.8906229 C24.9999499,25.4843717 24.7968257,25.98437 24.3905764,26.3906193 C23.9843271,26.7968686 23.4843288,26.9999928 22.89058,26.9999928 L6.10936997,26.9999928 C5.51562115,26.9999928 5.01562282,26.7968686 4.60937355,26.3906193 C4.20312428,25.98437 4,25.4843717 4,24.8906229 L4,22.7812529 C4,21.6562556 4.28906205,20.6093833 4.86718543,19.6406354 C5.44530882,18.6718875 6.20311975,17.9062645 7.14061751,17.3437659 L5.96874531,14.5312726 C5.84374537,14.2812734 5.85937081,14.046899 6.01562019,13.8281493 C6.17186958,13.6093995 6.37499458,13.500025 6.62499374,13.500025 L8.59373905,13.500025 C8.53123944,13.1250259 8.49998927,12.7734643 8.49998927,12.44534 C8.49998927,12.1172158 8.53123944,11.7656542 8.59373905,11.3906551 C7.62499112,11.1406559 6.8671809,10.8594066 6.32030697,10.5469071 C5.77343303,10.2344076 5.49999642,9.89065864 5.49999642,9.51565953 C5.49999642,9.14066043 5.78905847,8.78128605 6.36718186,8.4375371 C6.94530524,8.09378816 7.73436633,7.81253883 8.73436371,7.59378912 C8.95311343,6.8437909 9.24998748,6.07816797 9.62498659,5.29691959 C9.96873553,4.57817154 10.3281099,4.00004745 10.703109,3.56254873 C10.9843583,3.18754962 11.3749822,3.00005007 11.8749812,3.00005007 C12.0312306,3.00005007 12.179668,3.02348751 12.3202927,3.0703624 C12.4609173,3.11723729 12.7656041,3.26567467 13.234353,3.51567384 L13.8437265,3.79692317 C14.2812252,4.01567288 14.7187247,4.01567288 15.1562234,3.79692317 L15.7655969,3.51567384 C16.2030957,3.29692412 16.4921577,3.15629946 16.6327824,3.09379984 C16.773407,3.03130023 16.9374692,3.00005007 17.1249687,3.00005007 C17.6249678,3.00005007 18.0155916,3.18754962 18.2968409,3.56254873 C18.67184,4.03129761 19.0312144,4.60942099 19.3749633,5.29691959 C19.7499624,6.07816797 20.0468365,6.8437909 20.2655862,7.59378912 C21.2655836,7.81253883 22.0546447,8.09378816 22.6327681,8.4375371 C23.2108915,8.78128605 23.4999535,9.13284771 23.4999535,9.49222209 C23.4999535,9.85159647 23.2265169,10.1953454 22.679643,10.5234696 C22.132769,10.8515938 21.3749588,11.1406559 20.4062109,11.3906551 C20.4687105,11.7656542 20.4999607,12.1172158 20.4999607,12.44534 C20.4999607,12.7734643 20.4687105,13.1250259 20.4062109,13.500025 L22.4218311,13.500025 C22.6718302,13.500025 22.8749552,13.6093995 23.0312046,13.8281493 C23.187454,14.046899 23.2187042,14.2812734 23.1249544,14.5312726 L21.9999571,17.4375156 Z M9.99998569,12.3750277 C9.99998569,13.625025 10.4374844,14.687522 11.3124826,15.5625201 C12.1874807,16.4375183 13.2499777,16.875017 14.499975,16.875017 C15.7499722,16.875017 16.8124692,16.4375183 17.6874674,15.5625201 C18.5624655,14.687522 18.9999642,13.625025 18.9999642,12.3750277 L18.9999642,12.0000286 C18.8437148,12.0937784 18.7499651,12.1719034 18.7187149,12.2344031 L18.67184,12.4219026 C18.4530903,13.1094012 18.2030911,13.5781501 17.9218418,13.8281493 C17.7343423,14.0156488 17.4687176,14.1406487 17.1249687,14.2031484 C16.68747,14.2968981 16.2968454,14.2500232 15.9530965,14.0625237 C15.4843476,13.7812744 15.1405987,13.3125255 14.921849,12.656277 C14.8593493,12.4687775 14.7187247,12.3750277 14.499975,12.3750277 C14.2812252,12.3750277 14.1406006,12.4687775 14.078101,12.656277 C13.8281018,13.3750251 13.4843521,13.843774 13.0468534,14.0625237 C12.6718543,14.2500232 12.2656051,14.2968981 11.8281063,14.2031484 C11.5156068,14.1093986 11.2656077,13.9843986 11.0781081,13.8281493 C10.828109,13.5781501 10.5937345,13.1250259 10.3749848,12.4687775 L10.281235,12.2344031 C10.281235,12.1719034 10.20311,12.0937784 10.0468606,12.0000286 C10.0156104,12.156278 9.99998569,12.2812779 9.99998569,12.3750277 Z M9.95311081,8.81253621 L9.95311081,8.8594111 L9.62498659,8.90628599 C8.68748882,9.1250357 7.99999022,9.32815998 7.56249151,9.51565953 C8.24999011,9.7656587 9.12498754,9.98440842 10.1874852,10.171908 C11.4999821,10.3906577 12.9374789,10.5000322 14.499975,10.5000322 C16.062471,10.5000322 17.4999678,10.3906577 18.8124647,10.171908 C19.8749624,9.98440842 20.7499598,9.7656587 21.4374584,9.51565953 C20.9999597,9.32815998 20.2812109,9.1250357 19.2812136,8.90628599 L19.0468391,8.8594111 L19.0468391,8.81253621 C18.6093404,7.00004029 17.9687167,5.5625442 17.1249687,4.50004649 L16.6093449,4.78129582 C16.0468463,5.06254515 15.6718472,5.23441998 15.4843476,5.29691959 C15.1718481,5.39066937 14.8437239,5.44535698 14.499975,5.4609817 C14.156226,5.47660642 13.8281018,5.42191953 13.5156023,5.29691959 C13.2968526,5.20316982 12.9218535,5.01567026 12.390605,4.73442093 L11.8749812,4.50004649 C11.0312332,5.5625442 10.406235,7.00004029 9.99998569,8.81253621 L9.95311081,8.81253621 Z M6.10936997,25.4999964 L10.703109,25.4999964 L12.1562306,20.0625094 C10.281235,17.0000169 9.28123765,15.312521 9.15623771,15.0000215 L7.79686595,15.0000215 L9.06248793,18.0000143 L7.89061572,18.6562627 C7.14061751,19.0937615 6.55468141,19.6796976 6.13280741,20.414071 C5.71093342,21.1484445 5.49999642,21.9375049 5.49999642,22.7812529 L5.49999642,24.8906229 C5.49999642,25.0781224 5.55468403,25.2265598 5.66405853,25.3359343 C5.77343303,25.4453088 5.92187042,25.4999964 6.10936997,25.4999964 Z M12.2499803,25.4999964 L16.7499696,25.4999964 L15.2499732,19.8750098 L16.2812207,18.0937641 C15.6562224,18.2812636 15.0624736,18.3750134 14.499975,18.3750134 C13.9374763,18.3750134 13.3437275,18.2812636 12.7187292,18.0937641 L13.7499768,19.8750098 L12.2499803,25.4999964 Z M23.4999535,24.8906229 L23.4999535,22.7812529 C23.4999535,21.9687551 23.2968292,21.2031314 22.89058,20.4843834 C22.4843307,19.7656353 21.921832,19.1718865 21.203084,18.7031376 L20.1718364,18.0937641 L21.3437086,15.0000215 L19.8905871,15.0000215 C19.7968373,15.187521 19.2655888,16.0937686 18.2968409,17.718765 L16.8437194,20.0625094 L18.2968409,25.4999964 L22.89058,25.4999964 C23.0780795,25.4999964 23.2265169,25.4453088 23.3358914,25.3359343 C23.4452659,25.2265598 23.4999535,25.0781224 23.4999535,24.8906229 Z"/>
</svg>
