<svg xmlns="http://www.w3.org/2000/svg" width="60" height="60" viewBox="0 0 60 60">
  <path fill="#AC6289" fill-rule="evenodd" d="M56.4373726,47.2500018 C56.9373709,48.2499999 57.093621,49.265622 56.9061215,50.2968695 C56.7186219,51.3281171 56.2186236,52.2031145 55.4061251,52.9218633 C54.5936265,53.640612 53.6248793,53.9999857 52.499882,53.9999857 L7.49998927,53.9999857 C6.37499195,53.9999857 5.40624474,53.640612 4.5937462,52.9218633 C3.78124766,52.2031145 3.28124933,51.3281171 3.09374978,50.2968695 C2.90625022,49.265622 3.06250033,48.2499999 3.56249866,47.2500018 L26.062445,8.25009477 C26.6249437,7.25009668 27.4218168,6.57822423 28.4530643,6.23447458 C29.4843119,5.89072492 30.5155594,5.89072492 31.5468069,6.23447458 C32.5780545,6.57822423 33.3749276,7.25009668 33.9374262,8.25009477 L56.4373726,47.2500018 Z M53.8123789,48.7499982 L31.3124325,9.7500912 C30.9999337,9.25009286 30.5624343,9.00009298 29.9999356,9.00009298 C29.437437,9.00009298 28.9999375,9.25009286 28.6874388,9.7500912 L6.1874924,48.7499982 C5.93749252,49.2499965 5.95311796,49.7499963 6.23436729,50.2499946 C6.51561662,50.749993 6.93749061,50.9999928 7.49998927,50.9999928 L52.499882,50.9999928 C53.0623806,50.9999928 53.4842546,50.749993 53.765504,50.2499946 C54.0467533,49.7499963 54.0623787,49.2499965 53.8123789,48.7499982 Z M29.9999356,40.875017 C30.7499338,40.875017 31.3749328,41.1250169 31.8749312,41.6250152 C32.3749295,42.1250135 32.6249294,42.7500125 32.6249294,43.5000107 C32.6249294,44.2500089 32.3749295,44.8750079 31.8749312,45.3750063 C31.3749328,45.8750046 30.7499338,46.1250045 29.9999356,46.1250045 C29.2499374,46.1250045 28.6249384,45.8750046 28.1249401,45.3750063 C27.6249418,44.8750079 27.3749419,44.2500089 27.3749419,43.5000107 C27.3749419,42.7500125 27.6249418,42.1250135 28.1249401,41.6250152 C28.6249384,41.1250169 29.2499374,40.875017 29.9999356,40.875017 Z M28.9686881,21.0000644 L31.0311832,21.0000644 C31.4061823,21.0000644 31.703057,21.1094396 31.921806,21.3281886 C32.140555,21.5469376 32.2186808,21.8125629 32.1561805,22.1250617 L31.4999321,37.8750241 C31.4999321,38.1875229 31.3905568,38.4531482 31.1718078,38.6718972 C30.9530588,38.8906462 30.6874335,39.0000215 30.3749347,39.0000215 L29.6249365,39.0000215 C29.3124377,39.0000215 29.0468124,38.8906462 28.8280634,38.6718972 C28.6093144,38.4531482 28.4999392,38.2187738 28.4999392,37.9687739 L27.8436908,22.1250617 C27.7811904,21.8125629 27.8593162,21.5469376 28.0780652,21.3281886 C28.2968142,21.1094396 28.593689,21.0000644 28.9686881,21.0000644 Z"/>
</svg>
