<svg xmlns="http://www.w3.org/2000/svg" width="30" height="30" viewBox="0 0 30 30">
  <path fill="#AC6289" fill-rule="evenodd" d="M27.7499338,16.5000179 C28.3749321,16.5000179 28.9061813,16.7187676 29.34368,17.1562663 C29.7811788,17.593765 29.9999285,18.1250142 29.9999285,18.7500125 L29.9999285,24.7499982 C29.9999285,25.3749965 29.7811788,25.9062457 29.34368,26.3437444 C28.9061813,26.7812431 28.3749321,26.9999928 27.7499338,26.9999928 L18.7499553,26.9999928 C18.124957,26.9999928 17.5937078,26.7812431 17.1562091,26.3437444 C16.7187104,25.9062457 16.4999607,25.3749965 16.4999607,24.7499982 L16.4999607,18.7500125 C16.4999607,18.1250142 16.7187104,17.593765 17.1562091,17.1562663 C17.5937078,16.7187676 18.124957,16.5000179 18.7499553,16.5000179 L19.4999535,16.5000179 L19.4999535,14.2500232 C19.4999535,13.2187757 19.8671399,12.3359655 20.6015134,11.6015921 C21.3358869,10.8672186 22.218697,10.5000322 23.2499446,10.5000322 C24.2811921,10.5000322 25.1640023,10.8672186 25.8983758,11.6015921 C26.6327492,12.3359655 26.9999356,13.2187757 26.9999356,14.2500232 L26.9999356,16.5000179 L27.7499338,16.5000179 Z M20.9999499,14.2500232 L20.9999499,16.5000179 L25.4999392,16.5000179 L25.4999392,14.2500232 C25.4999392,13.625025 25.2811895,13.0937758 24.8436908,12.656277 C24.406192,12.2187783 23.8749428,12.0000286 23.2499446,12.0000286 C22.6249463,12.0000286 22.0936971,12.2187783 21.6561984,12.656277 C21.2186996,13.0937758 20.9999499,13.625025 20.9999499,14.2500232 Z M28.4999321,24.7499982 L28.4999321,18.7500125 C28.4999321,18.5312628 28.4296197,18.351576 28.2889951,18.2109513 C28.1483704,18.0703266 27.9686836,18.0000143 27.7499338,18.0000143 L18.7499553,18.0000143 C18.5312056,18.0000143 18.3515187,18.0703266 18.2108941,18.2109513 C18.0702694,18.351576 17.9999571,18.5312628 17.9999571,18.7500125 L17.9999571,24.7499982 C17.9999571,24.9687479 18.0702694,25.1484348 18.2108941,25.2890594 C18.3515187,25.4296841 18.5312056,25.4999964 18.7499553,25.4999964 L27.7499338,25.4999964 C27.9686836,25.4999964 28.1483704,25.4296841 28.2889951,25.2890594 C28.4296197,25.1484348 28.4999321,24.9687479 28.4999321,24.7499982 Z M10.499975,15.0000215 C9.40622781,15.0000215 8.39841771,14.7343969 7.47654467,14.2031484 C6.55467163,13.6718999 5.82811087,12.9453391 5.29686237,12.0234661 C4.76561388,11.101593 4.49998927,10.0937829 4.49998927,9.00003576 C4.49998927,7.90628861 4.76561388,6.89847851 5.29686237,5.97660547 C5.82811087,5.05473243 6.55467163,4.32817166 7.47654467,3.79692317 C8.39841771,3.26567467 9.40622781,3.00005007 10.499975,3.00005007 C11.5937221,3.00005007 12.6015322,3.26567467 13.5234053,3.79692317 C14.4452783,4.32817166 15.1718391,5.05473243 15.7030876,5.97660547 C16.2343361,6.89847851 16.4999607,7.90628861 16.4999607,9.00003576 C16.4999607,10.0937829 16.2343361,11.101593 15.7030876,12.0234661 C15.1718391,12.9453391 14.4452783,13.6718999 13.5234053,14.2031484 C12.6015322,14.7343969 11.5937221,15.0000215 10.499975,15.0000215 Z M10.499975,4.50004649 C9.24997771,4.50004649 8.18748072,4.93754521 7.31248257,5.81254336 C6.43748441,6.68754151 5.99998569,7.7500385 5.99998569,9.00003576 C5.99998569,10.250033 6.43748441,11.31253 7.31248257,12.1875282 C8.18748072,13.0625263 9.24997771,13.500025 10.499975,13.500025 C11.7499722,13.500025 12.8124692,13.0625263 13.6874674,12.1875282 C14.5624655,11.31253 14.9999642,10.250033 14.9999642,9.00003576 C14.9999642,7.7500385 14.5624655,6.68754151 13.6874674,5.81254336 C12.8124692,4.93754521 11.7499722,4.50004649 10.499975,4.50004649 Z M2.24999464,25.4999964 L15.093714,25.4999964 C15.1874638,26.0312449 15.4062135,26.531244 15.7499624,26.9999928 L2.24999464,26.9999928 C1.62499636,26.9999928 1.09374715,26.7812431 0.656248435,26.3437444 C0.218749717,25.9062457 0,25.3749965 0,24.7499982 L0,22.7812529 C0,21.6562556 0.281249329,20.6093833 0.843747988,19.6406354 C1.40624665,18.6718875 2.17186958,17.9062645 3.14061751,17.3437659 C4.10936544,16.7812672 5.15623771,16.5000179 6.28123502,16.5000179 C6.68748429,16.5000179 7.21873279,16.6093924 7.87498122,16.8281421 C8.31247994,16.953142 8.67185432,17.0468918 8.95310365,17.1093914 C9.42185254,17.2031412 9.92966359,17.2500161 10.4765375,17.2500161 C11.0234115,17.2500161 11.5468472,17.2031412 12.0468463,17.1093914 C12.3280956,17.0468918 12.68747,16.953142 13.1249687,16.8281421 C13.7812171,16.6093924 14.3124656,16.5000179 14.7187149,16.5000179 C14.9374646,16.5000179 15.2655888,16.531268 15.7030876,16.5937677 C15.3905881,17.0312664 15.1874638,17.5156407 15.093714,18.0468892 L14.7187149,18.0000143 C14.4687157,18.0000143 14.0780912,18.0781394 13.5468427,18.2343887 C12.484345,18.5781377 11.4687229,18.7500125 10.499975,18.7500125 C9.53122704,18.7500125 8.51560494,18.5781377 7.45310723,18.2343887 C6.92185874,18.0781394 6.53123419,18.0000143 6.28123502,18.0000143 C4.96873815,18.0000143 3.84374084,18.4687632 2.90624307,19.406261 C1.96874531,20.3437587 1.49999642,21.468756 1.49999642,22.7812529 L1.49999642,24.7499982 C1.49999642,24.9687479 1.57030876,25.1484348 1.71093342,25.2890594 C1.85155809,25.4296841 2.03124492,25.4999964 2.24999464,25.4999964 Z"/>
</svg>
