<svg xmlns="http://www.w3.org/2000/svg" width="26" height="26" viewBox="0 0 26 26">
  <path fill="#65656A" fill-rule="evenodd" d="M14.5781069,13.5000179 L19.4218454,18.3437563 C19.4739284,18.3958393 19.4999702,18.4674542 19.4999702,18.5585996 C19.4999702,18.649745 19.4739284,18.7213598 19.4218454,18.7734428 L18.52341,19.6718782 C18.471327,19.7239612 18.3997122,19.750003 18.3085668,19.750003 C18.2174214,19.750003 18.1458066,19.7239612 18.0937236,19.6718782 L13.2499851,14.8281397 L8.40624665,19.6718782 C8.35416364,19.7239612 8.28254883,19.750003 8.19140341,19.750003 C8.10025799,19.750003 8.02864318,19.7239612 7.97656017,19.6718782 L7.07812481,18.7734428 C7.0260418,18.7213598 7,18.649745 7,18.5585996 C7,18.4674542 7.0260418,18.3958393 7.07812481,18.3437563 L11.9218633,13.5000179 L7.07812481,8.65627943 C7.0260418,8.60419642 7,8.53258161 7,8.44143619 C7,8.35029077 7.0260418,8.27867596 7.07812481,8.22659295 L7.97656017,7.3281576 C8.02864318,7.27607459 8.10025799,7.25003278 8.19140341,7.25003278 C8.28254883,7.25003278 8.35416364,7.27607459 8.40624665,7.3281576 L13.2499851,12.171896 L18.0937236,7.3281576 C18.1458066,7.27607459 18.2174214,7.25003278 18.3085668,7.25003278 C18.3997122,7.25003278 18.471327,7.27607459 18.52341,7.3281576 L19.4218454,8.22659295 C19.4739284,8.27867596 19.4999702,8.35029077 19.4999702,8.44143619 C19.4999702,8.53258161 19.4739284,8.60419642 19.4218454,8.65627943 L14.5781069,13.5000179 Z"/>
</svg>
