<svg xmlns="http://www.w3.org/2000/svg" width="30" height="30" viewBox="0 0 30 30">
  <path fill="#AC6289" fill-rule="evenodd" d="M8.62498659,25.3124969 C8.53123681,25.4374968 8.40623687,25.4999964 8.24998748,25.4999964 C8.09373809,25.4999964 7.96873815,25.4374968 7.87498838,25.3124969 L3.93749776,21.3750063 C3.81249782,21.2500063 3.74999821,21.1171944 3.74999821,20.9765697 C3.74999821,20.835945 3.81249782,20.7031331 3.93749776,20.5781332 L4.26562198,20.2500089 C4.35937176,20.125009 4.4843717,20.0625094 4.64062109,20.0625094 C4.79687048,20.0625094 4.93749514,20.125009 5.06249508,20.2500089 L7.45311438,22.6875031 L7.45311438,5.06254515 C7.45311438,4.90629576 7.50780199,4.7734831 7.61717649,4.6641086 C7.72655099,4.5547341 7.85936365,4.50004649 8.01561304,4.50004649 L8.48436192,4.50004649 C8.64061131,4.50004649 8.77342397,4.5547341 8.88279847,4.6641086 C8.99217298,4.7734831 9.04686058,4.90629576 9.04686058,5.06254515 L9.04686058,22.6875031 L11.4374799,20.2500089 C11.5624798,20.125009 11.7031045,20.0625094 11.8593539,20.0625094 C12.0156033,20.0625094 12.1406032,20.125009 12.234353,20.2500089 L12.5624772,20.5781332 C12.6874771,20.7031331 12.7499768,20.835945 12.7499768,20.9765697 C12.7499768,21.1171944 12.6874771,21.2500063 12.5624772,21.3750063 L8.62498659,25.3124969 Z M20.9999571,17.4375156 C20.9999571,17.593765 20.9452695,17.7265777 20.835895,17.8359522 C20.7265205,17.9453267 20.5937078,18.0000143 20.4374584,18.0000143 L15.56247,18.0000143 C15.4062207,18.0000143 15.273408,17.9453267 15.1640335,17.8359522 C15.054659,17.7265777 14.9999714,17.593765 14.9999714,17.4375156 L14.9999714,17.0625165 C14.9999714,16.9062672 15.054659,16.7734545 15.1640335,16.66408 C15.273408,16.5547055 15.4062207,16.5000179 15.56247,16.5000179 L20.4374584,16.5000179 C20.5937078,16.5000179 20.7265205,16.5547055 20.835895,16.66408 C20.9452695,16.7734545 20.9999571,16.9062672 20.9999571,17.0625165 L20.9999571,17.4375156 Z M23.9999499,12.9375264 C23.9999499,13.0937758 23.9452623,13.2265884 23.8358878,13.3359629 C23.7265133,13.4453374 23.5937007,13.500025 23.4374513,13.500025 L15.56247,13.500025 C15.4062207,13.500025 15.273408,13.4453374 15.1640335,13.3359629 C15.054659,13.2265884 14.9999714,13.0937758 14.9999714,12.9375264 L14.9999714,12.5625273 C14.9999714,12.4062779 15.054659,12.2734652 15.1640335,12.1640907 C15.273408,12.0547162 15.4062207,12.0000286 15.56247,12.0000286 L23.4374513,12.0000286 C23.5937007,12.0000286 23.7265133,12.0547162 23.8358878,12.1640907 C23.9452623,12.2734652 23.9999499,12.4062779 23.9999499,12.5625273 L23.9999499,12.9375264 Z M26.9999428,8.4375371 C26.9999428,8.59378649 26.9452552,8.72659915 26.8358807,8.83597365 C26.7265062,8.94534815 26.5936935,9.00003576 26.4374441,9.00003576 L15.56247,9.00003576 C15.4062207,9.00003576 15.273408,8.94534815 15.1640335,8.83597365 C15.054659,8.72659915 14.9999714,8.59378649 14.9999714,8.4375371 L14.9999714,8.062538 C14.9999714,7.90628861 15.054659,7.77347595 15.1640335,7.66410145 C15.273408,7.55472695 15.4062207,7.50003934 15.56247,7.50003934 L26.4374441,7.50003934 C26.5936935,7.50003934 26.7265062,7.55472695 26.8358807,7.66410145 C26.9452552,7.77347595 26.9999428,7.90628861 26.9999428,8.062538 L26.9999428,8.4375371 Z M17.9999642,21.9375049 C17.9999642,22.0937543 17.9452766,22.226567 17.8359021,22.3359415 C17.7265276,22.445316 17.593715,22.5000036 17.4374656,22.5000036 L15.56247,22.5000036 C15.4062207,22.5000036 15.273408,22.445316 15.1640335,22.3359415 C15.054659,22.226567 14.9999714,22.0937543 14.9999714,21.9375049 L14.9999714,21.5625058 C14.9999714,21.4062564 15.054659,21.2734438 15.1640335,21.1640693 C15.273408,21.0546948 15.4062207,21.0000072 15.56247,21.0000072 L17.4374656,21.0000072 C17.593715,21.0000072 17.7265276,21.0546948 17.8359021,21.1640693 C17.9452766,21.2734438 17.9999642,21.4062564 17.9999642,21.5625058 L17.9999642,21.9375049 Z"/>
</svg>
