<svg xmlns="http://www.w3.org/2000/svg" width="30" height="30" viewBox="0 0 30 30">
  <path fill="#AC6289" fill-rule="evenodd" d="M7.87498838,4.68754604 C7.96873815,4.5625461 8.09373809,4.50004649 8.24998748,4.50004649 C8.40623687,4.50004649 8.53123681,4.5625461 8.62498659,4.68754604 L12.5624772,8.62503666 C12.6874771,8.7500366 12.7499768,8.88284854 12.7499768,9.02347321 C12.7499768,9.16409787 12.6874771,9.29690982 12.5624772,9.42190976 L12.234353,9.75003397 C12.1406032,9.87503392 12.0156033,9.93753353 11.8593539,9.93753353 C11.7031045,9.93753353 11.5624798,9.87503392 11.4374799,9.75003397 L9.04686058,7.31253979 L9.04686058,24.9374978 C9.04686058,25.0937472 8.99217298,25.2265598 8.88279847,25.3359343 C8.77342397,25.4453088 8.64061131,25.4999964 8.48436192,25.4999964 L8.01561304,25.4999964 C7.85936365,25.4999964 7.72655099,25.4453088 7.61717649,25.3359343 C7.50780199,25.2265598 7.45311438,25.0937472 7.45311438,24.9374978 L7.45311438,7.31253979 L5.06249508,9.75003397 C4.93749514,9.87503392 4.79687048,9.93753353 4.64062109,9.93753353 C4.4843717,9.93753353 4.35937176,9.87503392 4.26562198,9.75003397 L3.93749776,9.42190976 C3.81249782,9.29690982 3.74999821,9.16409787 3.74999821,9.02347321 C3.74999821,8.88284854 3.81249782,8.7500366 3.93749776,8.62503666 L7.87498838,4.68754604 Z M20.9999571,17.4375156 C20.9999571,17.593765 20.9452695,17.7265777 20.835895,17.8359522 C20.7265205,17.9453267 20.5937078,18.0000143 20.4374584,18.0000143 L15.56247,18.0000143 C15.4062207,18.0000143 15.273408,17.9453267 15.1640335,17.8359522 C15.054659,17.7265777 14.9999714,17.593765 14.9999714,17.4375156 L14.9999714,17.0625165 C14.9999714,16.9062672 15.054659,16.7734545 15.1640335,16.66408 C15.273408,16.5547055 15.4062207,16.5000179 15.56247,16.5000179 L20.4374584,16.5000179 C20.5937078,16.5000179 20.7265205,16.5547055 20.835895,16.66408 C20.9452695,16.7734545 20.9999571,16.9062672 20.9999571,17.0625165 L20.9999571,17.4375156 Z M23.9999499,12.9375264 C23.9999499,13.0937758 23.9452623,13.2265884 23.8358878,13.3359629 C23.7265133,13.4453374 23.5937007,13.500025 23.4374513,13.500025 L15.56247,13.500025 C15.4062207,13.500025 15.273408,13.4453374 15.1640335,13.3359629 C15.054659,13.2265884 14.9999714,13.0937758 14.9999714,12.9375264 L14.9999714,12.5625273 C14.9999714,12.4062779 15.054659,12.2734652 15.1640335,12.1640907 C15.273408,12.0547162 15.4062207,12.0000286 15.56247,12.0000286 L23.4374513,12.0000286 C23.5937007,12.0000286 23.7265133,12.0547162 23.8358878,12.1640907 C23.9452623,12.2734652 23.9999499,12.4062779 23.9999499,12.5625273 L23.9999499,12.9375264 Z M26.9999428,8.4375371 C26.9999428,8.59378649 26.9452552,8.72659915 26.8358807,8.83597365 C26.7265062,8.94534815 26.5936935,9.00003576 26.4374441,9.00003576 L15.56247,9.00003576 C15.4062207,9.00003576 15.273408,8.94534815 15.1640335,8.83597365 C15.054659,8.72659915 14.9999714,8.59378649 14.9999714,8.4375371 L14.9999714,8.062538 C14.9999714,7.90628861 15.054659,7.77347595 15.1640335,7.66410145 C15.273408,7.55472695 15.4062207,7.50003934 15.56247,7.50003934 L26.4374441,7.50003934 C26.5936935,7.50003934 26.7265062,7.55472695 26.8358807,7.66410145 C26.9452552,7.77347595 26.9999428,7.90628861 26.9999428,8.062538 L26.9999428,8.4375371 Z M17.9999642,21.9375049 C17.9999642,22.0937543 17.9452766,22.226567 17.8359021,22.3359415 C17.7265276,22.445316 17.593715,22.5000036 17.4374656,22.5000036 L15.56247,22.5000036 C15.4062207,22.5000036 15.273408,22.445316 15.1640335,22.3359415 C15.054659,22.226567 14.9999714,22.0937543 14.9999714,21.9375049 L14.9999714,21.5625058 C14.9999714,21.4062564 15.054659,21.2734438 15.1640335,21.1640693 C15.273408,21.0546948 15.4062207,21.0000072 15.56247,21.0000072 L17.4374656,21.0000072 C17.593715,21.0000072 17.7265276,21.0546948 17.8359021,21.1640693 C17.9452766,21.2734438 17.9999642,21.4062564 17.9999642,21.5625058 L17.9999642,21.9375049 Z"/>
</svg>
