<svg xmlns="http://www.w3.org/2000/svg" width="30" height="30" viewBox="0 0 30 30">
  <path fill="#AC6289" fill-rule="evenodd" d="M14.9999714,3.37504917 C17.0937166,3.37504917 19.0312118,3.89848566 20.8124575,4.94535793 C22.5937033,5.9922302 24.0077627,7.40628956 25.0546349,9.18753532 C26.1015072,10.9687811 26.6249437,12.9062762 26.6249437,15.0000215 C26.6249437,17.0937667 26.1015072,19.0312618 25.0546349,20.8125076 C24.0077627,22.5937534 22.5937033,24.0078127 20.8124575,25.054685 C19.0312118,26.1015573 17.0937166,26.6249937 14.9999714,26.6249937 C12.9062261,26.6249937 10.968731,26.1015573 9.18748525,25.054685 C7.40623949,24.0078127 5.99218013,22.5937534 4.94530786,20.8125076 C3.8984356,19.0312618 3.37499911,17.0937667 3.37499911,15.0000215 C3.37499911,12.9062762 3.8984356,10.9687811 4.94530786,9.18753532 C5.99218013,7.40628956 7.40623949,5.9922302 9.18748525,4.94535793 C10.968731,3.89848566 12.9062261,3.37504917 14.9999714,3.37504917 Z M14.9999714,25.1249973 C16.8437168,25.1249973 18.5390255,24.6718732 20.0858968,23.7656256 C21.6327681,22.859378 22.8593279,21.6250054 23.7655755,20.0625094 C24.6718231,18.5000134 25.1249472,16.8047047 25.1249472,14.976584 C25.1249472,13.1484634 24.6718231,11.4609674 23.7655755,9.91409608 C22.8593279,8.36722477 21.6249554,7.14066496 20.0624593,6.23441736 C18.4999633,5.32816976 16.8046546,4.8750456 14.9765339,4.8750456 C13.1484133,4.8750456 11.4609173,5.32816976 9.91404602,6.23441736 C8.3671747,7.14066496 7.14061489,8.37503749 6.23436729,9.93753353 C5.32811969,11.5000296 4.87499553,13.1953383 4.87499553,15.0234589 C4.87499553,16.8515795 5.32811969,18.5390755 6.23436729,20.0859468 C7.14061489,21.6328181 8.37498742,22.859378 9.93748346,23.7656256 C11.4999795,24.6718732 13.1874755,25.1249973 14.9999714,25.1249973 Z M13.1718507,20.625008 C13.078101,20.750008 12.953101,20.8125076 12.7968516,20.8125076 C12.6406023,20.8125076 12.4999776,20.750008 12.3749776,20.625008 L8.34373726,16.5468928 C8.24998748,16.453143 8.20311259,16.3281431 8.20311259,16.1718937 C8.20311259,16.0156443 8.24998748,15.8750196 8.34373726,15.7500197 L8.76561125,15.3750206 C8.85936103,15.2812708 8.98436097,15.2343959 9.14061036,15.2343959 C9.29685975,15.2343959 9.43748441,15.2812708 9.56248435,15.3750206 L12.7968516,18.6562627 L20.4374584,11.015656 C20.5624584,10.9219062 20.703083,10.8750313 20.8593324,10.8750313 C21.0155818,10.8750313 21.1405817,10.9375309 21.2343315,11.0625308 L21.6562055,11.43753 C21.7499553,11.5625299 21.7968302,11.7031546 21.7968302,11.8594039 C21.7968302,12.0156533 21.7499553,12.1406533 21.6562055,12.2344031 L13.1718507,20.625008 Z"/>
</svg>
