<svg xmlns="http://www.w3.org/2000/svg" width="30" height="30" viewBox="0 0 30 30">
  <path fill="#AC6289" fill-rule="evenodd" d="M18.7499624,4.50004649 C17.5312154,4.50004649 16.406218,4.80473327 15.3749705,5.41410681 C14.343723,6.02348036 13.5234124,6.8437909 12.9140389,7.87503844 C12.3046653,8.90628599 11.9999785,10.0312833 11.9999785,11.2500304 C11.9999785,12.1250286 12.1562279,12.9687765 12.4687274,13.7812744 L4.49999642,21.7500054 L4.49999642,25.4999964 L8.99998569,25.4999964 L8.99998569,22.5000036 L11.9999785,22.5000036 L11.9999785,19.5000107 L14.2499732,19.5000107 L16.2187185,17.5312654 C17.0312163,17.8437649 17.8749643,18.0000143 18.7499624,18.0000143 C19.9687095,18.0000143 21.0937069,17.6953275 22.1249544,17.085954 C23.1562019,16.4765804 23.9765125,15.6562699 24.585886,14.6250224 C25.1952596,13.5937748 25.4999464,12.4687775 25.4999464,11.2500304 C25.4999464,10.0312833 25.1952596,8.90628599 24.585886,7.87503844 C23.9765125,6.8437909 23.1562019,6.02348036 22.1249544,5.41410681 C21.0937069,4.80473327 19.9687095,4.50004649 18.7499624,4.50004649 Z M18.7499624,3.00005007 C20.2499589,3.00005007 21.6327681,3.36723645 22.8983901,4.10160994 C24.164012,4.83598343 25.1640094,5.83598081 25.8983829,7.10160279 C26.6327564,8.36722477 26.9999428,9.75003397 26.9999428,11.2500304 C26.9999428,12.7500268 26.6327564,14.132836 25.8983829,15.398458 C25.1640094,16.66408 24.164012,17.6640774 22.8983901,18.3984509 C21.6327681,19.1328243 20.2499589,19.5000107 18.7499624,19.5000107 C18.0312144,19.5000107 17.3280911,19.406261 16.6405925,19.2187614 L15.1874709,20.6718829 C14.9687212,20.8906327 14.7030973,21.0000072 14.3905978,21.0000072 L13.499975,21.0000072 L13.499975,22.8750027 C13.499975,23.1875022 13.3906005,23.4531261 13.1718507,23.6718758 C12.953101,23.8906255 12.6874771,24 12.3749776,24 L10.4999821,24 L10.4999821,25.8749955 C10.4999821,26.187495 10.3906076,26.4531189 10.1718579,26.6718686 C9.95310818,26.8906183 9.68748429,26.9999928 9.3749848,26.9999928 L4.12499732,26.9999928 C3.81249782,26.9999928 3.54687393,26.8906183 3.32812422,26.6718686 C3.1093745,26.4531189 3,26.187495 3,25.8749955 L3,21.6093807 C3,21.2968812 3.1093745,21.0312573 3.32812422,20.8125076 L10.7812314,13.3594004 C10.5937319,12.6719018 10.4999821,11.9687784 10.4999821,11.2500304 C10.4999821,9.75003397 10.8671685,8.36722477 11.601542,7.10160279 C12.3359155,5.83598081 13.3359129,4.83598343 14.6015348,4.10160994 C15.8671568,3.36723645 17.249966,3.00005007 18.7499624,3.00005007 Z M20.9999571,8.062538 C20.7499579,8.062538 20.5312082,8.15628777 20.3437086,8.34378733 C20.1562091,8.53128688 20.0624593,8.7500366 20.0624593,9.00003576 C20.0624593,9.25003493 20.1562091,9.46878465 20.3437086,9.6562842 C20.5312082,9.84378375 20.7499579,9.93753353 20.9999571,9.93753353 C21.2499563,9.93753353 21.468706,9.84378375 21.6562055,9.6562842 C21.8437051,9.46878465 21.9374548,9.25003493 21.9374548,9.00003576 C21.9374548,8.7500366 21.8437051,8.53128688 21.6562055,8.34378733 C21.468706,8.15628777 21.2499563,8.062538 20.9999571,8.062538 Z M20.9999571,6.75004113 C21.6249554,6.75004113 22.1562046,6.96879084 22.5937033,7.40628956 C23.031202,7.84378828 23.2499517,8.37503749 23.2499517,9.00003576 C23.2499517,9.62503403 23.031202,10.1562832 22.5937033,10.593782 C22.1562046,11.0312807 21.6249554,11.2500304 20.9999571,11.2500304 C20.3749588,11.2500304 19.8437096,11.0312807 19.4062109,10.593782 C18.9687122,10.1562832 18.7499624,9.62503403 18.7499624,9.00003576 C18.7499624,8.37503749 18.9687122,7.84378828 19.4062109,7.40628956 C19.8437096,6.96879084 20.3749588,6.75004113 20.9999571,6.75004113 Z"/>
</svg>
