<svg xmlns="http://www.w3.org/2000/svg" width="30" height="30" viewBox="0 0 30 30">
  <path fill="#AC6289" fill-rule="evenodd" d="M26.8749383,6.00004292 C27.2186873,6.00004292 27.5077493,6.14066758 27.7421237,6.42191691 C27.9764982,6.70316624 28.0468105,7.01566573 27.9530607,7.35941467 L25.9374405,17.1093914 C25.8749409,17.3593906 25.7421283,17.5703276 25.539004,17.7422024 C25.3358797,17.9140772 25.1093173,18.0000143 24.8593181,18.0000143 L9.29685522,18.0000143 L9.85935388,21.0000072 L23.7343208,21.0000072 C24.0155701,21.0000072 24.2577573,21.0781322 24.4608816,21.2343816 C24.6640058,21.390631 24.7968185,21.593756 24.8593181,21.8437551 C25.4530669,22.437504 25.749941,23.156252 25.749941,24 C25.749941,24.843748 25.4608789,25.554684 24.8827556,26.1328074 C24.3046322,26.7109308 23.5936961,26.9999928 22.7499481,26.9999928 C21.9062002,26.9999928 21.1952641,26.7109308 20.6171407,26.1328074 C20.0390173,25.554684 19.7499553,24.843748 19.7499553,24 C19.7499553,23.4687515 19.89058,22.9687525 20.1718293,22.5000036 L13.3280956,22.5000036 C13.6093449,22.9687525 13.7499696,23.4687515 13.7499696,24 C13.7499696,24.843748 13.4609076,25.554684 12.8827842,26.1328074 C12.3046608,26.7109308 11.5937247,26.9999928 10.7499768,26.9999928 C9.90622877,26.9999928 9.19529272,26.7109308 8.61716934,26.1328074 C8.03904596,25.554684 7.74998391,24.8593727 7.74998391,24.0468749 C7.74998391,23.2343771 8.01560851,22.5468785 8.54685701,21.9843798 L5.26561483,4.50004649 L1.56249866,4.50004649 C1.40624927,4.50004649 1.27343661,4.44535888 1.16406211,4.33598438 C1.05468761,4.22660988 1,4.09379722 1,3.93754783 L1,3.56254873 C1,3.40629934 1.05468761,3.27348668 1.16406211,3.16411218 C1.27343661,3.05473768 1.40624927,3.00005007 1.56249866,3.00005007 L5.54686416,3.00005007 C5.82811349,3.00005007 6.07030065,3.08598712 6.27342493,3.25786195 C6.4765492,3.42973678 6.60936186,3.6562985 6.67186148,3.93754783 L7.04686058,6.00004292 L26.8749383,6.00004292 Z M12.2499732,24 C12.2499732,23.5937507 12.1015358,23.2421891 11.8046617,22.945315 C11.5077877,22.648441 11.156226,22.5000036 10.7499768,22.5000036 C10.3437275,22.5000036 9.99216582,22.648441 9.69529177,22.945315 C9.39841771,23.2421891 9.24998033,23.5937507 9.24998033,24 C9.24998033,24.4062493 9.39841771,24.7578109 9.69529177,25.054685 C9.99216582,25.351559 10.3437275,25.4999964 10.7499768,25.4999964 C11.156226,25.4999964 11.5077877,25.351559 11.8046617,25.054685 C12.1015358,24.7578109 12.2499732,24.4062493 12.2499732,24 Z M22.7499481,25.4999964 C23.1561974,25.4999964 23.5077591,25.351559 23.8046331,25.054685 C24.1015072,24.7578109 24.2499446,24.4062493 24.2499446,24 C24.2499446,23.5937507 24.1015072,23.2421891 23.8046331,22.945315 C23.5077591,22.648441 23.1561974,22.5000036 22.7499481,22.5000036 C22.3436989,22.5000036 21.9921372,22.648441 21.6952632,22.945315 C21.3983891,23.2421891 21.2499517,23.5937507 21.2499517,24 C21.2499517,24.4062493 21.3983891,24.7578109 21.6952632,25.054685 C21.9921372,25.351559 22.3436989,25.4999964 22.7499481,25.4999964 Z M24.5311939,16.5000179 L26.4061894,7.50003934 L7.32810991,7.50003934 L9.01560589,16.5000179 L24.5311939,16.5000179 Z"/>
</svg>
