<svg xmlns="http://www.w3.org/2000/svg" width="30" height="30" viewBox="0 0 30 30">
  <path fill="#AC6289" fill-rule="evenodd" d="M15.4218454,15.7968946 C15.2030957,16.0156443 14.9374718,16.1250188 14.6249723,16.1250188 C14.3124728,16.1250188 14.0468489,16.0156443 13.8280992,15.7968946 C13.6093495,15.5781448 13.499975,15.312521 13.499975,15.0000215 C13.499975,14.687522 13.6093495,14.4218981 13.8280992,14.2031484 C14.0468489,13.9843986 14.3124728,13.8750241 14.6249723,13.8750241 C14.9374718,13.8750241 15.2030957,13.9843986 15.4218454,14.2031484 C15.6405951,14.4218981 15.7499696,14.687522 15.7499696,15.0000215 C15.7499696,15.312521 15.6405951,15.5781448 15.4218454,15.7968946 Z M19.4530858,8.8594111 C19.859335,8.8594111 20.203084,9.03909793 20.4843333,9.39847231 C20.7655826,9.75784669 20.8437077,10.1094084 20.7187078,10.4531573 L18.093714,17.718765 C17.9687141,18.0937641 17.7187149,18.3437632 17.3437158,18.4687632 L10.0781081,21.0937569 C9.98435835,21.1250071 9.89060857,21.1406318 9.79685879,21.1406318 C9.39060953,21.1406318 9.04686058,20.960945 8.76561125,20.6015706 C8.48436192,20.2421962 8.40623687,19.8906346 8.53123681,19.5468856 L11.1562306,12.2812779 C11.2812305,11.9062788 11.5312297,11.6562797 11.9062288,11.5312797 L19.1718364,8.90628599 C19.2655862,8.87503582 19.359336,8.8594111 19.4530858,8.8594111 Z M16.7343423,17.1093914 L19.0780867,10.5469071 L12.5156023,12.8906515 L10.1718579,19.4531358 L16.7343423,17.1093914 Z M14.6249723,3.37504917 C16.7187175,3.37504917 18.6562127,3.89848566 20.4374584,4.94535793 C22.2187042,5.9922302 23.6327635,7.40628956 24.6796358,9.18753532 C25.7265081,10.9687811 26.2499446,12.9062762 26.2499446,15.0000215 C26.2499446,17.0937667 25.7265081,19.0312618 24.6796358,20.8125076 C23.6327635,22.5937534 22.2187042,24.0078127 20.4374584,25.054685 C18.6562127,26.1015573 16.7187175,26.6249937 14.6249723,26.6249937 C12.531227,26.6249937 10.5937319,26.1015573 8.81248614,25.054685 C7.03124039,24.0078127 5.61718102,22.5937534 4.57030876,20.8125076 C3.52343649,19.0312618 3,17.0937667 3,15.0000215 C3,12.9062762 3.52343649,10.9687811 4.57030876,9.18753532 C5.61718102,7.40628956 7.03124039,5.9922302 8.81248614,4.94535793 C10.5937319,3.89848566 12.531227,3.37504917 14.6249723,3.37504917 Z M14.6249723,25.1249973 C16.4687176,25.1249973 18.1640263,24.6718732 19.7108977,23.7656256 C21.257769,22.859378 22.4843288,21.6328181 23.3905764,20.0859468 C24.296824,18.5390755 24.7499481,16.8437668 24.7499481,15.0000215 C24.7499481,13.1562761 24.296824,11.4609674 23.3905764,9.91409608 C22.4843288,8.36722477 21.257769,7.14066496 19.7108977,6.23441736 C18.1640263,5.32816976 16.4687176,4.8750456 14.6249723,4.8750456 C12.7812269,4.8750456 11.0859182,5.32816976 9.53904691,6.23441736 C7.9921756,7.14066496 6.76561578,8.36722477 5.85936818,9.91409608 C4.95312058,11.4609674 4.49999642,13.1562761 4.49999642,15.0000215 C4.49999642,16.8437668 4.95312058,18.5390755 5.85936818,20.0859468 C6.76561578,21.6328181 7.9921756,22.859378 9.53904691,23.7656256 C11.0859182,24.6718732 12.7812269,25.1249973 14.6249723,25.1249973 Z"/>
</svg>
