<svg xmlns="http://www.w3.org/2000/svg" width="16" height="16" viewBox="0 0 16 16">
  <path fill="#B5B4B5" fill-rule="evenodd" d="M13.1093449,7.82032485 C13.7968432,7.96094951 14.3671546,8.30469881 14.8202784,8.85157239 C15.2734022,9.39844597 15.4999642,10.031257 15.4999642,10.7500054 C15.4999642,11.2968789 15.3671519,11.800784 15.1015277,12.2617205 C14.8359034,12.722657 14.4726231,13.0859374 14.0116865,13.3515617 C13.55075,13.6171859 13.046845,13.7499982 12.4999714,13.7499982 L3.87499195,13.7499982 C3.26561841,13.7499982 2.70311975,13.5976548 2.18749598,13.2929681 C1.67187221,12.9882813 1.26171693,12.578126 0.95703016,12.0625022 C0.652343387,11.5468785 0.5,10.9843798 0.5,10.3750063 C0.5,9.64063313 0.710936997,8.98438469 1.13281099,8.40626095 C1.55468499,7.82813721 2.0937462,7.4218883 2.74999464,7.18751386 L2.74999464,7.00001431 C2.74999464,6.32814079 2.9179631,5.70314252 3.25389968,5.12501878 C3.58983626,4.54689503 4.04686642,4.08986487 4.62499017,3.75392829 C5.20311391,3.41799171 5.83201854,3.25002325 6.51170442,3.25002325 C7.1913903,3.25002325 7.82029493,3.42189772 8.39841867,3.76564702 C8.97654241,4.10939632 9.42966621,4.56252012 9.75779043,5.12501878 C10.1327895,4.87501925 10.5468512,4.75001967 10.999975,4.75001967 C11.6249736,4.75001967 12.1562221,4.96876903 12.5937212,5.4062681 C13.0312202,5.84376718 13.2499696,6.37501568 13.2499696,7.00001431 C13.2499696,7.28126363 13.2030947,7.5547006 13.1093449,7.82032485 Z M9.71091554,9.25000894 C9.88279001,9.25000894 9.99997723,9.17188425 10.0624772,9.0156345 C10.1249772,8.85938475 10.1015397,8.72657281 9.99216487,8.61719795 L7.50779579,6.13282887 C7.44529582,6.0703289 7.35935877,6.0390791 7.24998391,6.0390791 C7.14060905,6.0390791 7.05467199,6.0703289 6.99217202,6.13282887 L4.50780294,8.61719795 C4.39842809,8.72657281 4.37499064,8.85938475 4.43749061,9.0156345 C4.49999058,9.17188425 4.6171778,9.25000894 4.78905227,9.25000894 L6.31248614,9.25000894 L6.31248614,11.8750027 C6.31248614,11.9843775 6.34764231,12.074221 6.41795464,12.1445333 C6.48826697,12.2148456 6.57811039,12.2500018 6.68748525,12.2500018 L7.81248257,12.2500018 C7.92185742,12.2500018 8.01170084,12.2148456 8.08201317,12.1445333 C8.15232551,12.074221 8.18748167,11.9843775 8.18748167,11.8750027 L8.18748167,9.25000894 L9.71091554,9.25000894 Z"/>
</svg>
