<svg xmlns="http://www.w3.org/2000/svg" width="30" height="30" viewBox="0 0 30 30">
  <path fill="#AC6289" fill-rule="evenodd" d="M11.499975,16.5000179 L11.499975,21.0000072 C11.499975,21.4062564 11.6484124,21.7578181 11.9452864,22.0546921 C12.2421605,22.3515662 12.5937221,22.5000036 12.9999714,22.5000036 L17.9218347,22.5000036 L21.9999499,24.843748 L21.9999499,22.5000036 L24.9999428,22.5000036 C25.406192,22.5000036 25.7577537,22.3515662 26.0546278,22.0546921 C26.3515018,21.7578181 26.4999392,21.4062564 26.4999392,21.0000072 L26.4999392,13.500025 C26.4999392,13.0937758 26.3515018,12.7422141 26.0546278,12.44534 C25.7577537,12.148466 25.406192,12.0000286 24.9999428,12.0000286 L20.4999535,12.0000286 L20.4999535,13.500025 C20.4999535,14.3125229 20.2030795,15.0156462 19.6093306,15.609395 C19.0155818,16.2031438 18.3124585,16.5000179 17.4999607,16.5000179 L11.499975,16.5000179 Z M9.99997854,17.3532269 L6.39061215,19.406261 C6.29686237,19.4687606 6.17967515,19.5000107 6.03905049,19.5000107 C5.89842582,19.5000107 5.77342588,19.4453231 5.66405138,19.3359486 C5.55467688,19.2265741 5.49998927,19.0937615 5.49998927,18.9375121 L5.49998927,16.5000179 L3.99999285,16.5000179 C3.18749502,16.5000179 2.4843717,16.2031438 1.89062288,15.609395 C1.29687405,15.0156462 1,14.3125229 1,13.500025 L1,6.00004292 C1,5.18754509 1.29687405,4.48442177 1.89062288,3.89067294 C2.4843717,3.29692412 3.18749502,3.00005007 3.99999285,3.00005007 L17.4999607,3.00005007 C18.3124585,3.00005007 19.0155818,3.29692412 19.6093306,3.89067294 C20.2030795,4.48442177 20.4999535,5.18754509 20.4999535,6.00004292 L20.4999535,10.5000322 L24.9999428,10.5000322 C25.8124406,10.5000322 26.5155639,10.7969062 27.1093128,11.3906551 C27.7030616,11.9844039 27.9999356,12.6875272 27.9999356,13.500025 L27.9999356,21.0000072 C27.9999356,21.812505 27.7030616,22.5156283 27.1093128,23.1093771 C26.5155639,23.7031259 25.8124406,24 24.9999428,24 L23.4999464,24 L23.4999464,26.4374942 C23.4999464,26.5937436 23.4452587,26.7265562 23.3358842,26.8359307 C23.2265097,26.9453052 23.1015098,26.9999928 22.9608851,26.9999928 C22.8202605,26.9999928 22.7030733,26.9687427 22.6093235,26.9062431 L17.4999607,24 L12.9999714,24 C12.1874736,24 11.4843502,23.7031259 10.8906014,23.1093771 C10.2968526,22.5156283 9.99997854,21.812505 9.99997854,21.0000072 L9.99997854,17.3532269 Z M18.9999571,13.500025 L18.9999571,6.00004292 C18.9999571,5.59379365 18.8515197,5.24223198 18.5546456,4.94535793 C18.2577716,4.64848388 17.9062099,4.50004649 17.4999607,4.50004649 L3.99999285,4.50004649 C3.59374358,4.50004649 3.24218192,4.64848388 2.94530786,4.94535793 C2.64843381,5.24223198 2.49999642,5.59379365 2.49999642,6.00004292 L2.49999642,13.500025 C2.49999642,13.9062743 2.64843381,14.257836 2.94530786,14.55471 C3.24218192,14.8515841 3.59374358,15.0000215 3.99999285,15.0000215 L6.99998569,15.0000215 L6.99998569,17.3437659 L11.1249759,15.0000215 L17.4999607,15.0000215 C17.9062099,15.0000215 18.2577716,14.8515841 18.5546456,14.55471 C18.8515197,14.257836 18.9999571,13.9062743 18.9999571,13.500025 Z"/>
</svg>
