<svg xmlns="http://www.w3.org/2000/svg" width="30" height="30" viewBox="0 0 30 30">
  <path fill="#B5B4B5" fill-rule="evenodd" d="M12.499975,16.5000179 L12.499975,21.0000072 C12.499975,21.4062564 12.6484124,21.7578181 12.9452864,22.0546921 C13.2421605,22.3515662 13.5937221,22.5000036 13.9999714,22.5000036 L18.9218347,22.5000036 L22.9999499,24.843748 L22.9999499,22.5000036 L25.9999428,22.5000036 C26.406192,22.5000036 26.7577537,22.3515662 27.0546278,22.0546921 C27.3515018,21.7578181 27.4999392,21.4062564 27.4999392,21.0000072 L27.4999392,13.500025 C27.4999392,13.0937758 27.3515018,12.7422141 27.0546278,12.44534 C26.7577537,12.148466 26.406192,12.0000286 25.9999428,12.0000286 L21.4999535,12.0000286 L21.4999535,13.500025 C21.4999535,14.3125229 21.2030795,15.0156462 20.6093306,15.609395 C20.0155818,16.2031438 19.3124585,16.5000179 18.4999607,16.5000179 L12.499975,16.5000179 Z M10.9999785,17.3532269 L7.39061215,19.406261 C7.29686237,19.4687606 7.17967515,19.5000107 7.03905049,19.5000107 C6.89842582,19.5000107 6.77342588,19.4453231 6.66405138,19.3359486 C6.55467688,19.2265741 6.49998927,19.0937615 6.49998927,18.9375121 L6.49998927,16.5000179 L4.99999285,16.5000179 C4.18749502,16.5000179 3.4843717,16.2031438 2.89062288,15.609395 C2.29687405,15.0156462 2,14.3125229 2,13.500025 L2,6.00004292 C2,5.18754509 2.29687405,4.48442177 2.89062288,3.89067294 C3.4843717,3.29692412 4.18749502,3.00005007 4.99999285,3.00005007 L18.4999607,3.00005007 C19.3124585,3.00005007 20.0155818,3.29692412 20.6093306,3.89067294 C21.2030795,4.48442177 21.4999535,5.18754509 21.4999535,6.00004292 L21.4999535,10.5000322 L25.9999428,10.5000322 C26.8124406,10.5000322 27.5155639,10.7969062 28.1093128,11.3906551 C28.7030616,11.9844039 28.9999356,12.6875272 28.9999356,13.500025 L28.9999356,21.0000072 C28.9999356,21.812505 28.7030616,22.5156283 28.1093128,23.1093771 C27.5155639,23.7031259 26.8124406,24 25.9999428,24 L24.4999464,24 L24.4999464,26.4374942 C24.4999464,26.5937436 24.4452587,26.7265562 24.3358842,26.8359307 C24.2265097,26.9453052 24.1015098,26.9999928 23.9608851,26.9999928 C23.8202605,26.9999928 23.7030733,26.9687427 23.6093235,26.9062431 L18.4999607,24 L13.9999714,24 C13.1874736,24 12.4843502,23.7031259 11.8906014,23.1093771 C11.2968526,22.5156283 10.9999785,21.812505 10.9999785,21.0000072 L10.9999785,17.3532269 Z M19.9999571,13.500025 L19.9999571,6.00004292 C19.9999571,5.59379365 19.8515197,5.24223198 19.5546456,4.94535793 C19.2577716,4.64848388 18.9062099,4.50004649 18.4999607,4.50004649 L4.99999285,4.50004649 C4.59374358,4.50004649 4.24218192,4.64848388 3.94530786,4.94535793 C3.64843381,5.24223198 3.49999642,5.59379365 3.49999642,6.00004292 L3.49999642,13.500025 C3.49999642,13.9062743 3.64843381,14.257836 3.94530786,14.55471 C4.24218192,14.8515841 4.59374358,15.0000215 4.99999285,15.0000215 L7.99998569,15.0000215 L7.99998569,17.3437659 L12.1249759,15.0000215 L18.4999607,15.0000215 C18.9062099,15.0000215 19.2577716,14.8515841 19.5546456,14.55471 C19.8515197,14.257836 19.9999571,13.9062743 19.9999571,13.500025 Z"/>
</svg>
