<svg xmlns="http://www.w3.org/2000/svg" width="30" height="30" viewBox="0 0 30 30">
  <path fill="#AC6289" fill-rule="evenodd" d="M25.4999499,26.0624951 L25.4999499,26.9999928 L4.5,26.9999928 L4.5,26.0624951 C4.5,25.9062457 4.55468761,25.773433 4.66406211,25.6640585 C4.77343661,25.554684 4.90624927,25.4999964 5.06249866,25.4999964 L5.99999642,25.4999964 L5.99999642,4.12504739 C5.99999642,3.81254789 6.10937092,3.546924 6.32812064,3.32817429 C6.54687036,3.10942457 6.81249425,3.00005007 7.12499374,3.00005007 L22.8749562,3.00005007 C23.1874557,3.00005007 23.4530796,3.10942457 23.6718293,3.32817429 C23.890579,3.546924 23.9999535,3.81254789 23.9999535,4.12504739 L23.9999535,25.4999964 L24.9374513,25.4999964 C25.0937007,25.4999964 25.2265133,25.554684 25.3358878,25.6640585 C25.4452623,25.773433 25.4999499,25.9062457 25.4999499,26.0624951 Z M22.4999571,25.4999964 L22.4999571,4.50004649 L7.49999285,4.50004649 L7.49999285,25.4999964 L13.4999785,25.4999964 L13.4999785,21.5156309 C13.4999785,21.3593815 13.5546662,21.2265689 13.6640407,21.1171944 C13.7734152,21.0078199 13.9062278,20.9531323 14.0624772,20.9531323 L15.9374727,20.9531323 C16.0937221,20.9531323 16.2265348,21.0078199 16.3359093,21.1171944 C16.4452838,21.2265689 16.4999714,21.3593815 16.4999714,21.5156309 L16.4999714,25.4999964 L22.4999571,25.4999964 Z M13.4999785,8.01566311 L13.4999785,9.89065864 C13.4999785,10.046908 13.4452909,10.1797207 13.3359164,10.2890952 C13.2265419,10.3984697 13.0937293,10.4531573 12.9374799,10.4531573 L11.0624844,10.4531573 C10.906235,10.4531573 10.7734223,10.3984697 10.6640478,10.2890952 C10.5546733,10.1797207 10.4999857,10.046908 10.4999857,9.89065864 L10.4999857,8.01566311 C10.4999857,7.85941372 10.5546733,7.72660106 10.6640478,7.61722656 C10.7734223,7.50785206 10.906235,7.45316445 11.0624844,7.45316445 L12.9374799,7.45316445 C13.0937293,7.45316445 13.2265419,7.50785206 13.3359164,7.61722656 C13.4452909,7.72660106 13.4999785,7.85941372 13.4999785,8.01566311 Z M17.06247,7.45316445 L18.9374656,7.45316445 C19.093715,7.45316445 19.2265276,7.50785206 19.3359021,7.61722656 C19.4452766,7.72660106 19.4999642,7.85941372 19.4999642,8.01566311 L19.4999642,9.89065864 C19.4999642,10.046908 19.4452766,10.1797207 19.3359021,10.2890952 C19.2265276,10.3984697 19.093715,10.4531573 18.9374656,10.4531573 L17.06247,10.4531573 C16.9062207,10.4531573 16.773408,10.3984697 16.6640335,10.2890952 C16.554659,10.1797207 16.4999714,10.046908 16.4999714,9.89065864 L16.4999714,8.01566311 C16.4999714,7.85941372 16.554659,7.72660106 16.6640335,7.61722656 C16.773408,7.50785206 16.9062207,7.45316445 17.06247,7.45316445 Z M11.0624844,11.9531537 L12.9374799,11.9531537 C13.0937293,11.9531537 13.2265419,12.0078413 13.3359164,12.1172158 C13.4452909,12.2265903 13.4999785,12.359403 13.4999785,12.5156524 L13.4999785,14.3906479 C13.4999785,14.5468973 13.4452909,14.67971 13.3359164,14.7890845 C13.2265419,14.898459 13.0937293,14.9531466 12.9374799,14.9531466 L11.0624844,14.9531466 C10.906235,14.9531466 10.7734223,14.898459 10.6640478,14.7890845 C10.5546733,14.67971 10.4999857,14.5468973 10.4999857,14.3906479 L10.4999857,12.5156524 C10.4999857,12.359403 10.5546733,12.2265903 10.6640478,12.1172158 C10.7734223,12.0078413 10.906235,11.9531537 11.0624844,11.9531537 Z M17.06247,11.9531537 L18.9374656,11.9531537 C19.093715,11.9531537 19.2265276,12.0078413 19.3359021,12.1172158 C19.4452766,12.2265903 19.4999642,12.359403 19.4999642,12.5156524 L19.4999642,14.3906479 C19.4999642,14.5468973 19.4452766,14.67971 19.3359021,14.7890845 C19.2265276,14.898459 19.093715,14.9531466 18.9374656,14.9531466 L17.06247,14.9531466 C16.9062207,14.9531466 16.773408,14.898459 16.6640335,14.7890845 C16.554659,14.67971 16.4999714,14.5468973 16.4999714,14.3906479 L16.4999714,12.5156524 C16.4999714,12.359403 16.554659,12.2265903 16.6640335,12.1172158 C16.773408,12.0078413 16.9062207,11.9531537 17.06247,11.9531537 Z M11.0624844,16.453143 L12.9374799,16.453143 C13.0937293,16.453143 13.2265419,16.5078306 13.3359164,16.6172051 C13.4452909,16.7265796 13.4999785,16.8593923 13.4999785,17.0156417 L13.4999785,18.8906372 C13.4999785,19.0468866 13.4452909,19.1796992 13.3359164,19.2890737 C13.2265419,19.3984482 13.0937293,19.4531358 12.9374799,19.4531358 L11.0624844,19.4531358 C10.906235,19.4531358 10.7734223,19.3984482 10.6640478,19.2890737 C10.5546733,19.1796992 10.4999857,19.0468866 10.4999857,18.8906372 L10.4999857,17.0156417 C10.4999857,16.8593923 10.5546733,16.7265796 10.6640478,16.6172051 C10.7734223,16.5078306 10.906235,16.453143 11.0624844,16.453143 Z M17.06247,16.453143 L18.9374656,16.453143 C19.093715,16.453143 19.2265276,16.5078306 19.3359021,16.6172051 C19.4452766,16.7265796 19.4999642,16.8593923 19.4999642,17.0156417 L19.4999642,18.8906372 C19.4999642,19.0468866 19.4452766,19.1796992 19.3359021,19.2890737 C19.2265276,19.3984482 19.093715,19.4531358 18.9374656,19.4531358 L17.06247,19.4531358 C16.9062207,19.4531358 16.773408,19.3984482 16.6640335,19.2890737 C16.554659,19.1796992 16.4999714,19.0468866 16.4999714,18.8906372 L16.4999714,17.0156417 C16.4999714,16.8593923 16.554659,16.7265796 16.6640335,16.6172051 C16.773408,16.5078306 16.9062207,16.453143 17.06247,16.453143 Z"/>
</svg>
