<svg xmlns="http://www.w3.org/2000/svg" width="30" height="30" viewBox="0 0 30 30">
  <path fill="#AC6289" fill-rule="evenodd" d="M14.9999714,3.37504917 C17.0937166,3.37504917 19.0312118,3.89848566 20.8124575,4.94535793 C22.5937033,5.9922302 24.0077627,7.40628956 25.0546349,9.18753532 C26.1015072,10.9687811 26.6249437,12.9062762 26.6249437,15.0000215 C26.6249437,17.0937667 26.1015072,19.0312618 25.0546349,20.8125076 C24.0077627,22.5937534 22.5937033,24.0078127 20.8124575,25.054685 C19.0312118,26.1015573 17.0937166,26.6249937 14.9999714,26.6249937 C12.9062261,26.6249937 10.968731,26.1015573 9.18748525,25.054685 C7.40623949,24.0078127 5.99218013,22.5937534 4.94530786,20.8125076 C3.8984356,19.0312618 3.37499911,17.0937667 3.37499911,15.0000215 C3.37499911,12.9062762 3.8984356,10.9687811 4.94530786,9.18753532 C5.99218013,7.40628956 7.40623949,5.9922302 9.18748525,4.94535793 C10.968731,3.89848566 12.9062261,3.37504917 14.9999714,3.37504917 Z M22.9218275,8.67191155 C22.4530786,8.07816272 21.9218301,7.54691423 21.3280813,7.07816534 L18.3749633,10.0312833 C18.9999616,10.468782 19.5312108,11.0000312 19.9687095,11.6250295 L22.9218275,8.67191155 Z M14.9999714,19.5000107 C16.2499686,19.5000107 17.3124656,19.062512 18.1874638,18.1875139 C19.0624619,17.3125157 19.4999607,16.2500187 19.4999607,15.0000215 C19.4999607,13.7500242 19.0624619,12.6875272 18.1874638,11.8125291 C17.3124656,10.9375309 16.2499686,10.5000322 14.9999714,10.5000322 C13.7499741,10.5000322 12.6874771,10.9375309 11.812479,11.8125291 C10.9374808,12.6875272 10.4999821,13.7500242 10.4999821,15.0000215 C10.4999821,16.2500187 10.9374808,17.3125157 11.812479,18.1875139 C12.6874771,19.062512 13.7499741,19.5000107 14.9999714,19.5000107 Z M20.0624593,6.23441736 C18.4999633,5.32816976 16.8124673,4.8750456 14.9999714,4.8750456 C13.1874755,4.8750456 11.4999795,5.32816976 9.93748346,6.23441736 L13.0312261,9.32815998 C14.343723,8.89066126 15.6562198,8.89066126 16.9687167,9.32815998 L20.0624593,6.23441736 Z M8.67186148,7.07816534 C8.07811265,7.54691423 7.54686416,8.07816272 7.07811528,8.67191155 L10.0312332,11.6250295 C10.468732,11.0000312 10.9999812,10.468782 11.6249794,10.0312833 L8.67186148,7.07816534 Z M6.23436729,9.93753353 C5.32811969,11.5000296 4.87499553,13.1875255 4.87499553,15.0000215 C4.87499553,16.8125174 5.32811969,18.5000134 6.23436729,20.0625094 L9.32810991,16.9687668 C8.89061119,15.6562699 8.89061119,14.343773 9.32810991,13.0312762 L6.23436729,9.93753353 Z M7.07811528,21.3281314 C7.54686416,21.9218802 8.07811265,22.4531287 8.67186148,22.9218776 L11.6249794,19.9687596 C10.9999812,19.5312609 10.468732,19.0000117 10.0312332,18.3750134 L7.07811528,21.3281314 Z M9.93748346,23.7656256 C11.4999795,24.6718732 13.1874755,25.1249973 14.9999714,25.1249973 C16.8124673,25.1249973 18.4999633,24.6718732 20.0624593,23.7656256 L16.9687167,20.6718829 C15.6562198,21.1093817 14.343723,21.1093817 13.0312261,20.6718829 L9.93748346,23.7656256 Z M21.3280813,22.9218776 C21.9218301,22.4531287 22.4530786,21.9218802 22.9218275,21.3281314 L19.9687095,18.3750134 C19.5312108,19.0000117 18.9999616,19.5312609 18.3749633,19.9687596 L21.3280813,22.9218776 Z M23.7655755,20.0625094 C24.6718231,18.5000134 25.1249472,16.8125174 25.1249472,15.0000215 C25.1249472,13.1875255 24.6718231,11.5000296 23.7655755,9.93753353 L20.6718329,13.0312762 C21.1093316,14.343773 21.1093316,15.6562699 20.6718329,16.9687668 L23.7655755,20.0625094 Z"/>
</svg>
