<svg xmlns="http://www.w3.org/2000/svg" width="16" height="16" viewBox="0 0 16 16">
  <path fill="#AB6388" fill-rule="evenodd" d="M10.6952918,5.6172051 C10.3202927,5.2734558 9.90232503,5.01173791 9.44138851,4.83205072 C8.98045199,4.65236353 8.49998438,4.56252012 7.99998569,4.56252012 C7.09373774,4.56252012 6.28514591,4.83986309 5.57421023,5.39454938 C4.86327454,5.94923568 4.39843166,6.66407773 4.1796823,7.53907552 C4.16405722,7.60157549 4.13280741,7.65235638 4.08593253,7.69141891 C4.03905764,7.73048143 3.97655767,7.75001252 3.89843297,7.75001252 L2.56249866,7.75001252 C2.46874888,7.75001252 2.39453019,7.71485635 2.33984294,7.64454402 C2.28515569,7.57423169 2.26562425,7.50001299 2.28124933,7.4218883 C2.4531238,6.53126542 2.81249818,5.72657996 3.35937176,5.00783155 C3.90624534,4.28908315 4.58202521,3.72267849 5.38671068,3.30861686 C6.19139614,2.89455522 7.06248793,2.68752459 7.99998569,2.68752459 C8.76560899,2.68752459 9.49216976,2.82814925 10.179668,3.10939858 C10.8671662,3.39064791 11.4765398,3.78908446 12.0077886,4.30470823 L12.8515366,3.46096024 C12.9609115,3.35158538 13.0937234,3.29689813 13.2499732,3.29689813 C13.4062229,3.29689813 13.5390349,3.35158538 13.6484097,3.46096024 C13.7577846,3.5703351 13.8124718,3.70314705 13.8124718,3.85939679 L13.8124718,7.00001431 C13.8124718,7.15626405 13.7577846,7.289076 13.6484097,7.39845086 C13.5390349,7.50782571 13.4062229,7.56251296 13.2499732,7.56251296 L10.1093557,7.56251296 C9.95310592,7.56251296 9.82029397,7.50782571 9.71091912,7.39845086 C9.60154426,7.289076 9.54685701,7.15626405 9.54685701,7.00001431 C9.54685701,6.84376456 9.60154426,6.71095261 9.71091912,6.60157776 L10.6952918,5.6172051 Z M2.74999821,9.43750849 L5.89061572,9.43750849 C6.04686547,9.43750849 6.17967742,9.49219574 6.28905227,9.6015706 C6.39842713,9.71094546 6.45311438,9.84375741 6.45311438,10.0000072 C6.45311438,10.1562569 6.39842713,10.2890688 6.28905227,10.3984437 L5.30467962,11.3828164 C5.67967873,11.7265657 6.09764636,11.9882835 6.55858288,12.1679707 C7.0195194,12.3476579 7.49998701,12.4375013 7.99998569,12.4375013 C8.90623365,12.4375013 9.71482548,12.1601584 10.4257612,11.6054721 C11.1366968,11.0507858 11.6015397,10.3359437 11.8202891,9.46094594 C11.8359142,9.39844597 11.867164,9.34766508 11.9140389,9.30860255 C11.9609138,9.26954002 12.0234137,9.25000894 12.1015384,9.25000894 L13.4374727,9.25000894 C13.5312225,9.25000894 13.6054412,9.28516511 13.6601285,9.35547744 C13.7148157,9.42578977 13.7343471,9.50000846 13.7187221,9.57813316 C13.5468476,10.468756 13.1874732,11.2734415 12.6405996,11.9921899 C12.0937261,12.7109383 11.4179462,13.277343 10.6132607,13.6914046 C9.80857525,14.1054662 8.93748346,14.3124969 7.99998569,14.3124969 C7.2343624,14.3124969 6.50780163,14.1718722 5.82030339,13.8906229 C5.13280515,13.6093735 4.5234316,13.210937 3.99218275,12.6953132 L3.14843476,13.5390612 C3.0390599,13.6484361 2.90624796,13.7031233 2.74999821,13.7031233 C2.59374847,13.7031233 2.46093652,13.6484361 2.35156166,13.5390612 C2.2421868,13.4296864 2.18749955,13.2968744 2.18749955,13.1406247 L2.18749955,10.0000072 C2.18749955,9.84375741 2.2421868,9.71094546 2.35156166,9.6015706 C2.46093652,9.49219574 2.59374847,9.43750849 2.74999821,9.43750849 Z"/>
</svg>
