<svg xmlns="http://www.w3.org/2000/svg" width="26" height="26" viewBox="0 0 26 26">
  <path fill="#65656A" fill-rule="evenodd" d="M22.8827651,22.3281218 C22.9608899,22.4062466 22.9999523,22.5104133 22.9999523,22.6406211 C22.9999523,22.7708289 22.9608899,22.8880161 22.8827651,22.9921828 L22.492141,23.3437444 C22.3879744,23.447911 22.2707872,23.499994 22.1405794,23.499994 C22.0103715,23.499994 21.9062049,23.447911 21.8280801,23.3437444 L16.7890296,18.3046939 C16.684863,18.2265691 16.63278,18.1224025 16.63278,17.9921947 L16.63278,17.6015706 C15.9036149,18.2786521 15.0637731,18.8059946 14.1132548,19.1835981 C13.1627364,19.5612015 12.166645,19.750003 11.1249806,19.750003 C9.64060917,19.750003 8.27993553,19.3854207 7.04295911,18.6562556 C5.80598269,17.9270905 4.82291252,16.9440203 4.09374739,15.7070439 C3.36458227,14.4700675 3,13.1093938 3,11.6250224 C3,10.1406509 3.36458227,8.77997725 4.09374739,7.54300083 C4.82291252,6.30602442 5.80598269,5.32295424 7.04295911,4.59378912 C8.27993553,3.86462399 9.64060917,3.50004172 11.1249806,3.50004172 C12.6093521,3.50004172 13.9700257,3.86462399 15.2070021,4.59378912 C16.4439786,5.32295424 17.4270487,6.30602442 18.1562139,7.54300083 C18.885379,8.77997725 19.2499613,10.1406509 19.2499613,11.6250224 C19.2499613,12.6666867 19.0611598,13.6627781 18.6835564,14.6132965 C18.3059529,15.5638148 17.7786104,16.4036566 17.1015289,17.1328217 L17.4921529,17.1328217 C17.6223608,17.1328217 17.739548,17.1849047 17.8437146,17.2890713 L22.8827651,22.3281218 Z M11.1249806,18.500006 C12.3749776,18.500006 13.5273187,18.1940173 14.5820036,17.5820394 C15.6366886,16.9700615 16.4700198,16.1367303 17.0819977,15.0820454 C17.6939756,14.0273604 17.9999642,12.8750194 17.9999642,11.6250224 C17.9999642,10.3750253 17.6939756,9.22268433 17.0819977,8.16799934 C16.4700198,7.11331436 15.6366886,6.27998321 14.5820036,5.6680053 C13.5273187,5.0560274 12.3749776,4.75003874 11.1249806,4.75003874 C9.87498361,4.75003874 8.72264261,5.0560274 7.66795762,5.6680053 C6.61327264,6.27998321 5.77994149,7.11331436 5.16796358,8.16799934 C4.55598567,9.22268433 4.24999702,10.3750253 4.24999702,11.6250224 C4.24999702,12.8750194 4.55598567,14.0273604 5.16796358,15.0820454 C5.77994149,16.1367303 6.61327264,16.9700615 7.66795762,17.5820394 C8.72264261,18.1940173 9.87498361,18.500006 11.1249806,18.500006 Z"/>
</svg>
