<svg xmlns="http://www.w3.org/2000/svg" width="30" height="30" viewBox="0 0 30 30">
  <path fill="#AC6289" fill-rule="evenodd" d="M26.6249437,22.5000036 C26.7186935,22.5000036 26.8046305,22.5390657 26.8827556,22.6171908 C26.9608806,22.6953158 26.9999428,22.7812529 26.9999428,22.8750027 L26.9999428,23.6250009 C26.9999428,23.7187507 26.9608806,23.8046877 26.8827556,23.8828128 C26.8046305,23.9609378 26.7186935,24 26.6249437,24 L3.74999821,24 C3.53124849,24 3.35156166,23.9296877 3.210937,23.789063 C3.07031233,23.6484383 3,23.4687515 3,23.2500018 L3,6.37504202 C3,6.28129224 3.03906217,6.19535519 3.11718722,6.11723014 C3.19531227,6.03910508 3.28124933,6.00004292 3.37499911,6.00004292 L4.12499732,6.00004292 C4.21874709,6.00004292 4.30468415,6.03910508 4.3828092,6.11723014 C4.46093426,6.19535519 4.49999642,6.28129224 4.49999642,6.37504202 L4.49999642,22.5000036 L26.6249437,22.5000036 Z M7.59373905,15.3281457 L11.5312297,11.43753 C11.687479,11.2812806 11.8671666,11.2031555 12.0702909,11.2031555 C12.2734152,11.2031555 12.4531027,11.2812806 12.6093521,11.43753 L16.5937176,15.3750206 L20.4374584,11.5312797 L18.3280885,9.42190976 C18.1093387,9.20316004 17.9999642,8.93753615 17.9999642,8.62503666 C17.9999642,8.31253716 18.1093387,8.04691327 18.3280885,7.82816356 C18.5468382,7.60941384 18.8124621,7.50003934 19.1249616,7.50003934 L24.7499481,7.50003934 C24.9686979,7.50003934 25.1483847,7.57035167 25.2890094,7.71097634 C25.429634,7.851601 25.4999464,8.03128783 25.4999464,8.25003755 L25.4999464,13.8750241 C25.4999464,14.1875236 25.3827591,14.4531475 25.1483847,14.6718972 C24.9140103,14.890647 24.6483856,15.0000215 24.3515116,15.0000215 C24.0546375,15.0000215 23.7968257,14.890647 23.5780759,14.6718972 L21.5155809,12.6094022 L17.1093414,16.9687668 C16.953092,17.1250162 16.7734044,17.2031412 16.5702801,17.2031412 C16.3671559,17.2031412 16.1874683,17.1250162 16.0312189,16.9687668 L12.0937283,13.0312762 L8.67186148,16.4062681 C8.60936186,16.4687677 8.52342409,16.5000179 8.41404959,16.5000179 C8.30467509,16.5000179 8.21873732,16.4687677 8.15623771,16.4062681 L7.59373905,15.8437694 C7.53123944,15.7812698 7.49998927,15.6953321 7.49998927,15.5859576 C7.49998927,15.4765831 7.53123944,15.3906453 7.59373905,15.3281457 Z M20.0155844,9.00003576 L23.9999499,12.9844013 L23.9999499,9.00003576 L20.0155844,9.00003576 Z"/>
</svg>
