<svg xmlns="http://www.w3.org/2000/svg" width="26" height="26" viewBox="0 0 26 26">
  <path fill="#AC6289" fill-rule="evenodd" d="M13.8124814,3.50004172 C14.9583118,3.50004172 16.0715904,3.77347857 17.1523172,4.32035227 C18.2330439,4.86722596 19.0989269,5.60941169 19.7499672,6.54690946 C20.4270487,7.53649023 20.7655898,8.60419642 20.7655898,9.75002682 C20.7655898,10.6875246 20.5702778,11.5208557 20.1796537,12.2500209 C19.8671544,12.8229364 19.4244474,13.3437683 18.8515319,13.8125171 C18.5129908,14.0729334 18.0312213,14.3854326 17.4062228,14.7500149 C17.0676817,14.9583475 16.8333073,15.1015766 16.7030995,15.1797014 L16.7030995,15.3750134 C16.7030995,15.6875127 16.6314853,15.9739701 16.4882562,16.2343864 C16.3450272,16.4948026 16.1562258,16.7161558 15.9218513,16.8984473 C16.3385172,17.2369883 16.6640371,17.6536536 16.8984115,18.1484443 C17.132786,18.643235 17.2499732,19.1770875 17.2499732,19.750003 C17.2499732,20.7916674 16.8853909,21.6770815 16.1562258,22.4062466 C15.4270607,23.1354118 14.5416465,23.499994 13.4999821,23.499994 C12.4583177,23.499994 11.5729036,23.1354118 10.8437385,22.4062466 C10.1145733,21.6770815 9.74999106,20.7916674 9.74999106,19.750003 C9.74999106,19.1770875 9.86717828,18.643235 10.1015527,18.1484443 C10.3359272,17.6536536 10.661447,17.2369883 11.0781129,16.8984473 C10.8437385,16.7161558 10.654937,16.4948026 10.511708,16.2343864 C10.368479,15.9739701 10.2968648,15.6875127 10.2968648,15.3750134 L10.2968648,14.8281397 C10.2968648,14.0208498 10.4791562,13.3307477 10.8437385,12.7578322 C11.1301959,12.2890833 11.5338412,11.8854386 12.0546731,11.5468975 C12.3671723,11.3646061 12.8359212,11.1432529 13.4609197,10.8828366 C13.8515438,10.7005452 14.11196,10.5703374 14.2421678,10.4922126 C14.4505005,10.3620047 14.5546671,10.2057551 14.5546671,10.0234637 C14.5546671,9.84117224 14.4439905,9.68492261 14.2226366,9.55471479 C14.0012828,9.42450696 13.7864396,9.35940275 13.5781069,9.35940275 C13.2395659,9.35940275 12.959619,9.43101697 12.7382652,9.57424599 C12.5169113,9.71747502 12.1979021,10.0625261 11.7812362,10.6093998 C11.468737,11.0000238 11.0585817,11.2278877 10.5507704,11.2929919 C10.0429591,11.3580961 9.58072083,11.2343983 9.16405496,10.921899 L7.52343387,9.67190201 C7.1328098,9.38544456 6.89843536,8.99482049 6.82031054,8.5000298 C6.74218573,8.00523912 6.83333115,7.54951143 7.09374739,7.13284556 C7.92707854,5.90889035 8.89061811,4.99743379 9.9843655,4.39847708 C11.0781129,3.79952037 12.3541517,3.50004172 13.8124814,3.50004172 Z M13.4999821,22.249997 C14.1770636,22.249997 14.7629997,22.002602 15.2577904,21.5078113 C15.7525811,21.0130206 15.9999762,20.4270845 15.9999762,19.750003 C15.9999762,19.0729215 15.7525811,18.4869854 15.2577904,17.9921947 C14.7629997,17.497404 14.1770636,17.2500089 13.4999821,17.2500089 C12.8229006,17.2500089 12.2369645,17.497404 11.7421738,17.9921947 C11.2473831,18.4869854 10.9999881,19.0729215 10.9999881,19.750003 C10.9999881,20.4270845 11.2473831,21.0130206 11.7421738,21.5078113 C12.2369645,22.002602 12.8229006,22.249997 13.4999821,22.249997 Z M15.4531025,14.9843893 C15.4531025,14.7500149 15.5833103,14.5156405 15.8437265,14.281266 C15.9999762,14.1510582 16.3124754,13.9557462 16.7812243,13.6953299 C17.6405972,13.2005392 18.239554,12.7448115 18.578095,12.3281457 C19.2030935,11.6250224 19.5155928,10.7656494 19.5155928,9.75002682 C19.5155928,8.83857086 19.2291353,7.97919791 18.6562198,7.17190797 C18.1353879,6.44274284 17.4322646,5.85680674 16.5468499,5.41409966 C15.6614351,4.97139258 14.7499791,4.75003874 13.8124814,4.75003874 C12.5364426,4.75003874 11.4296746,5.02347559 10.4921768,5.57034929 C9.60676204,6.06513997 8.8255139,6.82034631 8.14843238,7.83596889 C8.04426576,7.96617671 8.00520335,8.11591633 8.03124516,8.28518656 C8.05728696,8.4544568 8.13541177,8.59117522 8.2656196,8.69534184 L9.90624069,9.94533886 C10.0624903,10.0495055 10.2252505,10.0885679 10.3945208,10.0625261 C10.563791,10.0364843 10.7005094,9.95835946 10.804676,9.82815164 C11.2994667,9.20315313 11.7031114,8.77346665 12.0156107,8.53909221 C12.4322765,8.25263476 12.9335772,8.10940573 13.5195133,8.10940573 C14.1054494,8.10940573 14.6197713,8.27867596 15.0624784,8.61721702 C15.5572691,9.00784109 15.8046641,9.48961058 15.8046641,10.0625261 C15.8046641,10.583358 15.6093521,11.0130444 15.218728,11.3515855 C14.9843536,11.5338769 14.5416465,11.7552302 13.8906062,12.0156464 C13.1353999,12.3541875 12.6015468,12.6536655 12.2890475,12.9140818 C11.7942568,13.3828307 11.5468618,14.0208498 11.5468618,14.8281397 L11.5468618,15.3750134 C11.5468618,15.5573048 11.6054554,15.7070439 11.7226426,15.8242311 C11.8398298,15.9414183 11.9895689,16.0000119 12.1718603,16.0000119 L14.828104,16.0000119 C15.0103954,16.0000119 15.1601344,15.9414183 15.2773216,15.8242311 C15.3945089,15.7070439 15.4531025,15.5573048 15.4531025,15.3750134 L15.4531025,14.9843893 Z"/>
</svg>
