<svg xmlns="http://www.w3.org/2000/svg" width="26" height="26" viewBox="0 0 26 26">
  <path fill="#FFF" fill-rule="evenodd" d="M24.1249449,3.50004172 C24.6457768,3.50004172 25.0884844,3.68233315 25.4530667,4.04691542 C25.817649,4.41149768 25.9999404,4.85420536 25.9999404,5.37503725 L25.9999404,21.6249985 C25.9999404,22.1458304 25.817649,22.5885381 25.4530667,22.9531203 C25.0884844,23.3177026 24.6457768,23.499994 24.1249449,23.499994 L2.87499553,23.499994 C2.35416364,23.499994 1.91145596,23.3177026 1.5468737,22.9531203 C1.18229143,22.5885381 1,22.1458304 1,21.6249985 L1,5.37503725 C1,4.85420536 1.18229143,4.41149768 1.5468737,4.04691542 C1.91145596,3.68233315 2.35416364,3.50004172 2.87499553,3.50004172 L24.1249449,3.50004172 Z M7.2499851,19.4375037 L7.2499851,7.56253204 C7.2499851,7.48440722 7.21743329,7.41279301 7.15232908,7.3476888 C7.08722487,7.28258459 7.01561066,7.25003278 6.93748584,7.25003278 L5.06249031,7.25003278 C4.9843655,7.25003278 4.91275129,7.28258459 4.84764708,7.3476888 C4.78254287,7.41279301 4.74999106,7.48440722 4.74999106,7.56253204 L4.74999106,19.4375037 C4.74999106,19.5156285 4.78254287,19.5872428 4.84764708,19.652347 C4.91275129,19.7174512 4.9843655,19.750003 5.06249031,19.750003 L6.93748584,19.750003 C7.01561066,19.750003 7.08722487,19.7174512 7.15232908,19.652347 C7.21743329,19.5872428 7.2499851,19.5156285 7.2499851,19.4375037 Z M9.74997914,19.4375037 L9.74997914,7.56253204 C9.74997914,7.48440722 9.71742733,7.41279301 9.65232312,7.3476888 C9.58721891,7.28258459 9.5156047,7.25003278 9.43747988,7.25003278 L8.81248137,7.25003278 C8.73435656,7.25003278 8.66274235,7.28258459 8.59763814,7.3476888 C8.53253393,7.41279301 8.49998212,7.48440722 8.49998212,7.56253204 L8.49998212,19.4375037 C8.49998212,19.5156285 8.53253393,19.5872428 8.59763814,19.652347 C8.66274235,19.7174512 8.73435656,19.750003 8.81248137,19.750003 L9.43747988,19.750003 C9.5156047,19.750003 9.58721891,19.7174512 9.65232312,19.652347 C9.71742733,19.5872428 9.74997914,19.5156285 9.74997914,19.4375037 Z M12.2499732,19.4375037 L12.2499732,7.56253204 C12.2499732,7.48440722 12.2174214,7.41279301 12.1523172,7.3476888 C12.087213,7.28258459 12.0155987,7.25003278 11.9374739,7.25003278 L11.3124754,7.25003278 C11.2343506,7.25003278 11.1627364,7.28258459 11.0976322,7.3476888 C11.032528,7.41279301 10.9999762,7.48440722 10.9999762,7.56253204 L10.9999762,19.4375037 C10.9999762,19.5156285 11.032528,19.5872428 11.0976322,19.652347 C11.1627364,19.7174512 11.2343506,19.750003 11.3124754,19.750003 L11.9374739,19.750003 C12.0155987,19.750003 12.087213,19.7174512 12.1523172,19.652347 C12.2174214,19.5872428 12.2499732,19.5156285 12.2499732,19.4375037 Z M17.2499613,19.4375037 L17.2499613,7.56253204 C17.2499613,7.48440722 17.2174094,7.41279301 17.1523052,7.3476888 C17.087201,7.28258459 17.0155868,7.25003278 16.937462,7.25003278 L15.0624665,7.25003278 C14.9843417,7.25003278 14.9127274,7.28258459 14.8476232,7.3476888 C14.782519,7.41279301 14.7499672,7.48440722 14.7499672,7.56253204 L14.7499672,19.4375037 C14.7499672,19.5156285 14.782519,19.5872428 14.8476232,19.652347 C14.9127274,19.7174512 14.9843417,19.750003 15.0624665,19.750003 L16.937462,19.750003 C17.0155868,19.750003 17.087201,19.7174512 17.1523052,19.652347 C17.2174094,19.5872428 17.2499613,19.5156285 17.2499613,19.4375037 Z M22.2499493,19.4375037 L22.2499493,7.56253204 C22.2499493,7.48440722 22.2173975,7.41279301 22.1522933,7.3476888 C22.0871891,7.28258459 22.0155749,7.25003278 21.9374501,7.25003278 L20.0624546,7.25003278 C19.9843297,7.25003278 19.9127155,7.28258459 19.8476113,7.3476888 C19.7825071,7.41279301 19.7499553,7.48440722 19.7499553,7.56253204 L19.7499553,19.4375037 C19.7499553,19.5156285 19.7825071,19.5872428 19.8476113,19.652347 C19.9127155,19.7174512 19.9843297,19.750003 20.0624546,19.750003 L21.9374501,19.750003 C22.0155749,19.750003 22.0871891,19.7174512 22.1522933,19.652347 C22.2173975,19.5872428 22.2499493,19.5156285 22.2499493,19.4375037 Z"/>
</svg>
