<svg xmlns="http://www.w3.org/2000/svg" width="26" height="26" viewBox="0 0 26 26">
  <path fill="#B5B4B5" fill-rule="evenodd" d="M12.9999762,3.81254098 C14.7708051,3.81254098 16.3984056,4.19665445 17.882777,4.96488198 C19.3671485,5.73310951 20.5260001,6.7943045 21.3593312,8.14846814 C22.244746,9.55471479 22.6874531,11.1302317 22.6874531,12.8750194 C22.6874531,14.5416823 22.1796418,15.8437623 21.1640192,16.7812601 C20.0963136,17.7968826 18.5338173,18.3046939 16.4765304,18.3046939 C15.9296567,18.3046939 15.4934596,18.1614649 15.1679397,17.8750075 C14.8424199,17.58855 14.6796597,17.1849047 14.6796597,16.6640728 C14.3411186,17.1588635 13.8984115,17.5755288 13.3515378,17.9140699 C12.7004975,18.3046939 12.023416,18.500006 11.3202927,18.500006 C10.2005035,18.500006 9.32810991,18.1614649 8.7031114,17.4843834 C8.07811289,16.8073019 7.76561364,15.8698041 7.76561364,14.6718901 C7.76561364,13.4739761 8.02602988,12.3932499 8.54686178,11.4297103 C9.01561066,10.5182544 9.64711977,9.80210983 10.4413885,9.28127794 C11.2356572,8.76044605 12.075499,8.5000298 12.9609138,8.5000298 C13.6379953,8.5000298 14.230442,8.64976883 14.7382533,8.94924748 C15.2460646,9.24872613 15.6171574,9.6588814 15.8515319,10.1797133 C15.8775737,9.91929705 15.9166361,9.64586021 15.9687191,9.35940275 L16.0077815,9.20315313 C16.0077815,9.0729453 16.0533545,8.97528928 16.1444999,8.91018507 C16.2356453,8.84508086 16.3333013,8.81252906 16.437468,8.81252906 L16.9452793,8.81252906 C17.0754871,8.81252906 17.1926743,8.87112267 17.2968409,8.98830989 C17.4010075,9.10549711 17.4400699,9.22919493 17.4140281,9.35940275 L16.1249687,15.7656375 C16.0468439,16.2343864 16.0663751,16.5729274 16.1835623,16.7812601 C16.3007495,16.9895927 16.5416346,17.0937593 16.9062168,17.0937593 C18.2082969,17.0937593 19.2760031,16.7421977 20.1093342,16.0390743 C20.994749,15.283868 21.437456,14.229183 21.437456,12.8750194 C21.437456,11.3646061 21.046832,9.99742187 20.2655838,8.77346665 C19.5364187,7.60159444 18.5273067,6.69013848 17.2382473,6.03909817 C15.9491879,5.38805786 14.5364306,5.062538 12.9999762,5.062538 C11.4635217,5.062538 10.0507644,5.44014146 8.76170501,6.1953478 C7.47264559,6.95055413 6.45051241,7.97268731 5.69530607,9.26174674 C4.94009974,10.5508062 4.56249627,11.9635634 4.56249627,13.5000179 C4.56249627,15.0364724 4.94009974,16.4492296 5.69530607,17.738289 C6.45051241,19.0273485 7.47264559,20.0494816 8.76170501,20.804688 C10.0507644,21.5598943 11.4635217,21.9374978 12.9999762,21.9374978 C13.8853909,21.9374978 14.7577845,21.7942687 15.6171574,21.5078113 C16.4765304,21.2213538 17.2707991,20.8177086 17.9999642,20.2968767 C18.1041309,20.2187519 18.2148075,20.1927101 18.3319947,20.2187519 C18.4491819,20.2447937 18.5468379,20.2968767 18.6249627,20.3750015 L18.8202748,20.6093759 C18.8983996,20.7135425 18.9309514,20.8372398 18.9179308,20.9804688 C18.9049102,21.1236978 18.8463166,21.2343744 18.74215,21.3124993 C17.9088188,21.911456 17.0038729,22.3736948 16.0273127,22.6992147 C15.0507525,23.0247346 14.0416405,23.1874948 12.9999762,23.1874948 C11.2551885,23.1874948 9.64060917,22.7512977 8.15623771,21.8789042 C6.67186625,21.0065106 5.49348344,19.8281278 4.62108989,18.3437563 C3.74869633,16.8593849 3.31249925,15.2448056 3.31249925,13.5000179 C3.31249925,11.7552302 3.74869633,10.1406509 4.62108989,8.65627943 C5.49348344,7.17190797 6.67186625,5.99352516 8.15623771,5.12113161 C9.64060917,4.24873805 11.2551885,3.81254098 12.9999762,3.81254098 Z M11.5156047,17.2109465 C12.2447698,17.2109465 12.9088307,16.9635515 13.5077874,16.4687608 C14.0546611,16.0000119 14.4908582,15.3945446 14.8163781,14.6523589 C15.1418979,13.9101732 15.3046582,13.1549668 15.3046582,12.3867393 C15.3046582,11.6185118 15.1093461,11.0000238 14.7187221,10.531275 C14.328098,10.0625261 13.7682037,9.82815164 13.0390386,9.82815164 C12.4140401,9.82815164 11.8085727,10.0234637 11.2226366,10.4140877 C10.6367005,10.8047118 10.1614411,11.3515855 9.79685879,12.0547088 C9.43227653,12.8099152 9.2499851,13.6432469 9.2499851,14.5547029 C9.2499851,15.388034 9.45180773,16.0390743 9.85545241,16.5078232 C10.2590971,16.9765721 10.8124814,17.2109465 11.5156047,17.2109465 Z"/>
</svg>
