<svg xmlns="http://www.w3.org/2000/svg" width="30" height="30" viewBox="0 0 30 30">
  <path fill="#AC6289" fill-rule="evenodd" d="M23.9062037,7.31253979 C23.9999535,7.18753985 24.1249534,7.12504023 24.2812028,7.12504023 C24.4374522,7.12504023 24.5624522,7.18753985 24.6562019,7.31253979 L25.2187006,7.82816356 C25.3124504,7.9531635 25.3593253,8.09378816 25.3593253,8.25003755 C25.3593253,8.40628694 25.3124504,8.53128688 25.2187006,8.62503666 L11.1562341,22.6875031 C11.0312342,22.8125031 10.8984222,22.8750027 10.7577976,22.8750027 C10.6171729,22.8750027 10.484361,22.8125031 10.359361,22.6875031 L4.78124933,17.1093914 C4.68749955,17.0156417 4.64062466,16.8906417 4.64062466,16.7343923 C4.64062466,16.5781429 4.68749955,16.4375183 4.78124933,16.3125183 L5.34374799,15.7968946 C5.43749776,15.6718946 5.56249771,15.609395 5.71874709,15.609395 C5.87499648,15.609395 5.99999642,15.6718946 6.0937462,15.7968946 L10.7343601,20.4375085 L23.9062037,7.31253979 Z"/>
</svg>
