<svg xmlns="http://www.w3.org/2000/svg" width="30" height="30" viewBox="0 0 30 30">
  <path fill="#AC6289" fill-rule="evenodd" d="M19.2187149,16.5000179 C20.3437122,16.5000179 21.3905845,16.7812672 22.3593324,17.3437659 C23.3280803,17.9062645 24.0937033,18.6718875 24.6562019,19.6406354 C25.2187006,20.6093833 25.4999499,21.6562556 25.4999499,22.7812529 L25.4999499,24.7499982 C25.4999499,25.3749965 25.2812002,25.9062457 24.8437015,26.3437444 C24.4062028,26.7812431 23.8749536,26.9999928 23.2499553,26.9999928 L6.74999464,26.9999928 C6.12499636,26.9999928 5.59374715,26.7812431 5.15624844,26.3437444 C4.71874972,25.9062457 4.5,25.3749965 4.5,24.7499982 L4.5,22.7812529 C4.5,21.6562556 4.78124933,20.6093833 5.34374799,19.6406354 C5.90624665,18.6718875 6.67186958,17.9062645 7.64061751,17.3437659 C8.60936544,16.7812672 9.65623771,16.5000179 10.781235,16.5000179 C11.1874843,16.5000179 11.7187328,16.6093924 12.3749812,16.8281421 C12.8124799,16.953142 13.1718543,17.0468918 13.4531037,17.1093914 C13.9218525,17.2031412 14.4374763,17.2500161 14.999975,17.2500161 C15.5624736,17.2500161 16.0780974,17.2031412 16.5468463,17.1093914 C16.8280956,17.0468918 17.18747,16.953142 17.6249687,16.8281421 C18.2812171,16.6093924 18.8124656,16.5000179 19.2187149,16.5000179 Z M23.9999535,24.7499982 L23.9999535,22.7812529 C23.9999535,21.468756 23.5312046,20.3437587 22.5937069,19.406261 C21.6562091,18.4687632 20.5312118,18.0000143 19.2187149,18.0000143 C18.9687157,18.0000143 18.5780912,18.0781394 18.0468427,18.2343887 C16.984345,18.5781377 15.9687229,18.7500125 14.999975,18.7500125 C14.031227,18.7500125 13.0156049,18.5781377 11.9531072,18.2343887 C11.4218587,18.0781394 11.0312342,18.0000143 10.781235,18.0000143 C9.46873815,18.0000143 8.34374084,18.4687632 7.40624307,19.406261 C6.46874531,20.3437587 5.99999642,21.468756 5.99999642,22.7812529 L5.99999642,24.7499982 C5.99999642,24.9687479 6.07030876,25.1484348 6.21093342,25.2890594 C6.35155809,25.4296841 6.53124492,25.4999964 6.74999464,25.4999964 L23.2499553,25.4999964 C23.468705,25.4999964 23.6483918,25.4296841 23.7890165,25.2890594 C23.9296412,25.1484348 23.9999535,24.9687479 23.9999535,24.7499982 Z M14.999975,15.0000215 C13.9062278,15.0000215 12.8984177,14.7343969 11.9765447,14.2031484 C11.0546716,13.6718999 10.3281109,12.9453391 9.79686237,12.0234661 C9.26561388,11.101593 8.99998927,10.0937829 8.99998927,9.00003576 C8.99998927,7.90628861 9.26561388,6.89847851 9.79686237,5.97660547 C10.3281109,5.05473243 11.0546716,4.32817166 11.9765447,3.79692317 C12.8984177,3.26567467 13.9062278,3.00005007 14.999975,3.00005007 C16.0937221,3.00005007 17.1015322,3.26567467 18.0234053,3.79692317 C18.9452783,4.32817166 19.6718391,5.05473243 20.2030876,5.97660547 C20.7343361,6.89847851 20.9999607,7.90628861 20.9999607,9.00003576 C20.9999607,10.0937829 20.7343361,11.101593 20.2030876,12.0234661 C19.6718391,12.9453391 18.9452783,13.6718999 18.0234053,14.2031484 C17.1015322,14.7343969 16.0937221,15.0000215 14.999975,15.0000215 Z M14.999975,4.50004649 C13.7499777,4.50004649 12.6874807,4.93754521 11.8124826,5.81254336 C10.9374844,6.68754151 10.4999857,7.7500385 10.4999857,9.00003576 C10.4999857,10.250033 10.9374844,11.31253 11.8124826,12.1875282 C12.6874807,13.0625263 13.7499777,13.500025 14.999975,13.500025 C16.2499722,13.500025 17.3124692,13.0625263 18.1874674,12.1875282 C19.0624655,11.31253 19.4999642,10.250033 19.4999642,9.00003576 C19.4999642,7.7500385 19.0624655,6.68754151 18.1874674,5.81254336 C17.3124692,4.93754521 16.2499722,4.50004649 14.999975,4.50004649 Z"/>
</svg>
