<svg xmlns="http://www.w3.org/2000/svg" width="30" height="30" viewBox="0 0 30 30">
  <path fill="#AC6289" fill-rule="evenodd" d="M25.1405674,4.50004649 C25.9218158,4.50004649 26.593689,4.7734831 27.1561876,5.32035704 C27.7186863,5.86723097 27.9999356,6.51566669 27.9999356,7.2656649 L27.9999356,21.1875067 C27.9999356,21.9062548 27.734311,22.5312537 27.2030625,23.0625022 C26.671814,23.5937507 26.0311903,23.8906255 25.2811921,23.9531251 C23.9686952,24.0156247 22.7030733,24.1249999 21.4843262,24.2812493 C19.546831,24.5624987 17.9687095,24.921873 16.7499624,25.3593718 C16.4999633,25.4531215 16.2499634,25.4999964 15.9999642,25.4999964 L12.9999714,25.4999964 C12.7499722,25.4999964 12.4999723,25.4531215 12.2499732,25.3593718 C11.0312261,24.921873 9.45310461,24.5624987 7.51560947,24.2812493 C6.29686237,24.1249999 5.03124039,24.0156247 3.71874352,23.9531251 C2.96874531,23.8906255 2.3281216,23.5937507 1.7968731,23.0625022 C1.26562461,22.5312537 1,21.9062548 1,21.1875067 L1,7.2656649 C1,6.51566669 1.28124933,5.86723097 1.84374799,5.32035704 C2.40624665,4.7734831 3.07811981,4.50004649 3.85936818,4.50004649 C4.9843655,4.50004649 6.40623687,4.64067116 8.12498301,4.92192049 C10.656227,5.3594192 12.6718472,5.96879275 14.1718436,6.75004113 C14.3905933,6.87504107 14.6093423,6.87504107 14.828092,6.75004113 C16.3280885,5.96879275 18.3437086,5.3594192 20.8749526,4.92192049 C22.5936988,4.64067116 24.0155701,4.50004649 25.1405674,4.50004649 Z M13.7499696,23.2968767 L13.7499696,9.09378554 C13.7499696,8.81253621 13.6718445,8.55472432 13.5155952,8.32034988 C13.3593458,8.08597544 13.1405961,7.90628861 12.8593467,7.78128867 C11.4531001,7.1562904 9.6562296,6.68754151 7.46873458,6.37504202 C5.96873815,6.12504286 4.76561578,6.00004292 3.85936818,6.00004292 C3.48436908,6.00004292 3.16405758,6.12504286 2.89843297,6.37504202 C2.63280837,6.62504119 2.49999642,6.92191596 2.49999642,7.2656649 L2.49999642,21.1875067 C2.49999642,21.5000062 2.62499636,21.7812555 2.87499553,22.0312547 C3.1249947,22.2812539 3.42186946,22.4218785 3.76561841,22.4531287 C7.54685963,22.6406282 10.5468525,23.1406273 12.7655969,23.9531251 C12.8593467,23.9843753 12.9530965,24 13.0468463,24 C13.2343458,24 13.3984079,23.9296877 13.5390326,23.789063 C13.6796573,23.6484383 13.7499696,23.4843762 13.7499696,23.2968767 Z M26.4999392,21.1875067 L26.4999392,7.2656649 C26.4999392,6.92191596 26.3671273,6.62504119 26.1015027,6.37504202 C25.835878,6.12504286 25.5155666,6.00004292 25.1405674,6.00004292 C24.2343198,6.00004292 23.0311975,6.12504286 21.531201,6.37504202 C19.343706,6.68754151 17.5468355,7.1562904 16.1405889,7.78128867 C15.8593396,7.90628861 15.6405899,8.08597544 15.4843405,8.32034988 C15.3280911,8.55472432 15.249966,8.81253621 15.249966,9.09378554 L15.249966,23.2968767 C15.249966,23.4843762 15.3202784,23.6484383 15.460903,23.789063 C15.6015277,23.9296877 15.7655898,24 15.9530893,24 C16.0468391,24 16.1405889,23.9843753 16.2343387,23.9531251 C18.4530832,23.1406273 21.453076,22.6406282 25.2343172,22.4531287 C25.5780662,22.4218785 25.8749409,22.2812539 26.1249401,22.0312547 C26.3749393,21.7812555 26.4999392,21.5000062 26.4999392,21.1875067 Z"/>
</svg>
