<svg xmlns="http://www.w3.org/2000/svg" width="26" height="26" viewBox="0 0 26 26">
  <path fill="#65656A" fill-rule="evenodd" d="M13.0624784,22.0937474 C12.9583118,22.1718722 12.8411246,22.2109346 12.7109167,22.2109346 C12.5807089,22.2109346 12.4765423,22.1718722 12.3984175,22.0937474 L4.15624963,13.8125171 C4.05208301,13.7343923 4,13.6302257 4,13.5000179 C4,13.3698101 4.05208301,13.2656434 4.15624963,13.1875186 L12.3984175,4.90628837 C12.4765423,4.82816356 12.5807089,4.78910115 12.7109167,4.78910115 C12.8411246,4.78910115 12.9583118,4.82816356 13.0624784,4.90628837 L13.3359152,5.21878763 C13.4140401,5.29691244 13.4531025,5.40107906 13.4531025,5.53128688 C13.4531025,5.6614947 13.4140401,5.77868193 13.3359152,5.88284854 L6.34374441,12.835957 L21.0312094,12.835957 C21.1614172,12.835957 21.2720944,12.88153 21.3632399,12.9726754 C21.4543853,13.0638208 21.4999583,13.174498 21.4999583,13.3047058 L21.4999583,13.6953299 C21.4999583,13.8255377 21.4543853,13.936215 21.3632399,14.0273604 C21.2720944,14.1185058 21.1614172,14.1640788 21.0312094,14.1640788 L6.34374441,14.1640788 L13.3359152,21.1171872 C13.4140401,21.2213538 13.4531025,21.3385411 13.4531025,21.4687489 C13.4531025,21.5989567 13.4140401,21.7031233 13.3359152,21.7812481 L13.0624784,22.0937474 Z"/>
</svg>
