<svg xmlns="http://www.w3.org/2000/svg" width="18" height="18" viewBox="0 0 18 18">
  <path fill="#B5B4B5" fill-rule="evenodd" d="M8.99997854,0.53128688 C10.5702875,0.53128688 12.0234088,0.923864248 13.3593431,1.70901845 C14.6952775,2.49417265 15.755822,3.55471717 16.5409762,4.89065149 C17.3261304,6.2265858 17.7187078,7.67970716 17.7187078,9.25001609 C17.7187078,10.820325 17.3261304,12.2734464 16.5409762,13.6093807 C15.755822,14.945315 14.6952775,16.0058595 13.3593431,16.7910137 C12.0234088,17.5761679 10.5702875,17.9687453 8.99997854,17.9687453 C7.42966961,17.9687453 5.97654825,17.5761679 4.64061394,16.7910137 C3.30467962,16.0058595 2.2441351,14.945315 1.4589809,13.6093807 C0.673826697,12.2734464 0.281249329,10.820325 0.281249329,9.25001609 C0.281249329,7.67970716 0.673826697,6.2265858 1.4589809,4.89065149 C2.2441351,3.55471717 3.30467962,2.49417265 4.64061394,1.70901845 C5.97654825,0.923864248 7.42966961,0.53128688 8.99997854,0.53128688 Z M13.2890308,11.5351669 L10.9687238,9.25001609 L13.2890308,6.96486529 C13.3593431,6.87111534 13.3944993,6.77150638 13.3944993,6.66603788 C13.3944993,6.56056938 13.3593431,6.46096042 13.2890308,6.36721047 L11.8827842,4.96096382 C11.8124718,4.89065149 11.7187219,4.85549532 11.6015348,4.85549532 C11.4843478,4.85549532 11.3788793,4.89065149 11.2851293,4.96096382 L8.99997854,7.28127079 L6.71482774,4.96096382 C6.62107779,4.89065149 6.52146883,4.85549532 6.41600033,4.85549532 C6.31053183,4.85549532 6.21092287,4.89065149 6.11717292,4.96096382 L4.71092627,6.36721047 C4.64061394,6.4375228 4.60545777,6.53127275 4.60545777,6.6484598 C4.60545777,6.76564684 4.64061394,6.87111534 4.71092627,6.96486529 L7.03123324,9.25001609 L4.71092627,11.5351669 C4.64061394,11.6289169 4.60545777,11.7285258 4.60545777,11.8339943 C4.60545777,11.9394628 4.64061394,12.0390718 4.71092627,12.1328217 L6.11717292,13.5390684 C6.18748525,13.6093807 6.2812352,13.6445369 6.39842224,13.6445369 C6.51560929,13.6445369 6.62107779,13.6093807 6.71482774,13.5390684 L8.99997854,11.2187614 L11.2851293,13.5390684 C11.3788793,13.6093807 11.4784883,13.6445369 11.5839568,13.6445369 C11.6894253,13.6445369 11.7890342,13.6093807 11.8827842,13.5390684 L13.2890308,12.1328217 C13.3593431,12.0625094 13.3944993,11.9687594 13.3944993,11.8515724 C13.3944993,11.7343853 13.3593431,11.6289169 13.2890308,11.5351669 Z"/>
</svg>
