<svg xmlns="http://www.w3.org/2000/svg" width="30" height="30" viewBox="0 0 30 30">
  <path fill="#B5B4B5" fill-rule="evenodd" d="M0.749998212,18.0000143 C0.531248495,18.0000143 0.351561662,17.9218893 0.210936997,17.7656399 C0.0703123324,17.6093905 0,17.4297029 0,17.2265786 C0,17.0234544 0.0703123324,16.8515795 0.210936997,16.7109549 C0.351561662,16.5703302 0.531248495,16.5000179 0.749998212,16.5000179 C0.968747929,16.5000179 1.14843476,16.5703302 1.28905943,16.7109549 C1.42968409,16.8515795 1.49999642,17.0234544 1.49999642,17.2265786 C1.49999642,17.4297029 1.42968409,17.6093905 1.28905943,17.7656399 C1.14843476,17.9218893 0.968747929,18.0000143 0.749998212,18.0000143 Z M29.6249294,9.00003576 C29.7186791,9.00003576 29.8046162,9.03909793 29.8827413,9.11722298 C29.9608663,9.19534804 29.9999285,9.28128509 29.9999285,9.37503487 L29.9999285,10.1250331 C29.9999285,10.2187829 29.9608663,10.3047199 29.8827413,10.382845 C29.8046162,10.46097 29.7186791,10.5000322 29.6249294,10.5000322 L26.9999356,10.5000322 L26.9999356,19.5000107 L29.6249294,19.5000107 C29.7186791,19.5000107 29.8046162,19.5390729 29.8827413,19.6171979 C29.9608663,19.695323 29.9999285,19.7812601 29.9999285,19.8750098 L29.9999285,20.625008 C29.9999285,20.7187578 29.9608663,20.8046949 29.8827413,20.8828199 C29.8046162,20.960945 29.7186791,21.0000072 29.6249294,21.0000072 L26.9999356,21.0000072 C26.5936864,21.0000072 26.2421247,20.8515698 25.9452506,20.5546957 C25.6483766,20.2578217 25.4999392,19.90626 25.4999392,19.5000107 L23.2499446,19.5000107 C23.187445,19.9687596 23.0155701,20.3750089 22.7343208,20.7187578 L22.3124468,21.2812565 C21.9374477,21.7187552 21.4530741,21.9843798 20.8593253,22.0781296 C20.3593262,22.1406292 19.9062028,22.0625049 19.4999535,21.8437551 L18.468706,23.0625022 C17.9687069,23.6875005 17.3124585,24 16.4999607,24 C15.9062118,24 15.3905881,23.8125004 14.9530893,23.4375013 L14.6249651,23.156252 C13.9374665,23.7187507 13.1484062,24 12.2577833,24 C11.3671604,24 10.5781,23.7187507 9.89060142,23.156252 L6.04686058,19.5000107 L4.49998927,19.5000107 C4.49998927,19.90626 4.35155189,20.2578217 4.05467783,20.5546957 C3.75780378,20.8515698 3.40624212,21.0000072 2.99999285,21.0000072 L0.374999106,21.0000072 C0.281249329,21.0000072 0.195312273,20.960945 0.117187221,20.8828199 C0.0390621684,20.8046949 0,20.7187578 0,20.625008 L0,19.8750098 C0,19.7812601 0.0390621684,19.695323 0.117187221,19.6171979 C0.195312273,19.5390729 0.281249329,19.5000107 0.374999106,19.5000107 L2.99999285,19.5000107 L2.99999285,10.5000322 L0.374999106,10.5000322 C0.281249329,10.5000322 0.195312273,10.46097 0.117187221,10.382845 C0.0390621684,10.3047199 0,10.2187829 0,10.1250331 L0,9.37503487 C0,9.28128509 0.0390621684,9.19534804 0.117187221,9.11722298 C0.195312273,9.03909793 0.281249329,9.00003576 0.374999106,9.00003576 L5.67186148,9.00003576 L8.01560589,6.65629135 C8.48435477,6.21879263 9.01560327,6.00004292 9.60935209,6.00004292 L12.8905943,6.00004292 C13.3905933,6.00004292 13.8437168,6.1562923 14.249966,6.4687918 C14.6874647,6.1562923 15.1249642,6.00004292 15.5624629,6.00004292 L20.2968266,6.00004292 C20.9218249,6.00004292 21.4530741,6.21879263 21.8905728,6.65629135 L24.328067,9.00003576 L29.6249294,9.00003576 Z M21.5624486,19.7812601 C21.6874485,19.5937605 21.7421354,19.3984482 21.7265107,19.195324 C21.710886,18.9921997 21.6249482,18.8281376 21.4686988,18.7031376 L15.5624629,13.921899 L14.4843405,14.9062717 C13.953092,15.4062707 13.3593431,15.6875201 12.7030947,15.7500197 C12.1405961,15.8125193 11.5937221,15.7187695 11.0624736,15.4687703 C10.5937247,15.2500206 10.2343504,15.0000215 9.9843512,14.7187721 C9.35935292,14.0625237 9.07029087,13.289088 9.11716576,12.3984652 C9.16404065,11.5078423 9.51560231,10.7656568 10.1718507,10.171908 L12.9374692,7.640664 L12.8905943,7.50003934 L9.60935209,7.50003934 C9.42185254,7.50003934 9.24997771,7.57816439 9.09372832,7.73441378 L6.32810991,10.5000322 L4.49998927,10.5000322 L4.49998927,18.0000143 L6.65623413,18.0000143 L10.8749741,22.0312547 C11.343723,22.4062538 11.8827842,22.5625032 12.4921577,22.5000036 C13.1015313,22.437504 13.6093423,22.1562546 14.0155916,21.6562556 L14.4843405,21.046882 L15.937462,22.312504 C16.1249616,22.4687534 16.3515233,22.5312537 16.6171479,22.5000036 C16.8827725,22.4687534 17.1093342,22.3437542 17.2968338,22.1250045 L19.2187042,19.7343852 L20.0624522,20.4375085 C20.2187016,20.5625084 20.4062011,20.6093833 20.6249508,20.5781332 C20.8437005,20.546883 21.0155747,20.4531332 21.1405746,20.2968838 L21.5624486,19.7812601 Z M25.4999392,18.0000143 L25.4999392,10.5000322 L23.6718186,10.5000322 L20.8593253,7.73441378 C20.7030759,7.57816439 20.5155763,7.50003934 20.2968266,7.50003934 L15.5624629,7.50003934 C15.3749633,7.50003934 15.2030885,7.56253895 15.0468391,7.68753889 L11.1562234,11.2500304 C10.8124745,11.5937793 10.6327869,12.0000286 10.6171622,12.4687775 C10.6015375,12.9375264 10.7499741,13.3437756 11.0624736,13.6875246 C11.3749731,14.0312735 11.7734097,14.2109611 12.2577833,14.2265858 C12.7421569,14.2422105 13.1562189,14.0937739 13.4999678,13.7812744 L17.0155844,10.593782 C17.1718338,10.4375326 17.3515214,10.3672202 17.5546456,10.382845 C17.7577699,10.3984697 17.9296448,10.4765947 18.0702694,10.6172194 C18.2108941,10.7578441 18.2733937,10.9375309 18.257769,11.1562806 C18.2421442,11.3750303 18.1718319,11.5469045 18.046832,11.6719044 L16.6874602,12.8906515 L22.4061966,17.5312654 C22.5311965,17.6562654 22.6718212,17.8125148 22.8280706,18.0000143 L25.4999392,18.0000143 Z M29.2499303,16.5000179 C29.46868,16.5000179 29.6483668,16.5703302 29.7889915,16.7109549 C29.9296161,16.8515795 29.9999285,17.0234544 29.9999285,17.2265786 C29.9999285,17.4297029 29.9296161,17.6093905 29.7889915,17.7656399 C29.6483668,17.9218893 29.46868,18.0000143 29.2499303,18.0000143 C29.0311805,18.0000143 28.8514937,17.929702 28.710869,17.7890773 C28.5702444,17.6484526 28.4999321,17.4687658 28.4999321,17.2500161 C28.4999321,17.0312664 28.5702444,16.8515795 28.710869,16.7109549 C28.8514937,16.5703302 29.0311805,16.5000179 29.2499303,16.5000179 Z"/>
</svg>
