<svg xmlns="http://www.w3.org/2000/svg" width="18" height="18" viewBox="0 0 18 18">
  <path fill="#AC6289" fill-rule="evenodd" d="M16.9062121,15.6562484 C16.9687119,15.7187483 16.9999619,15.8020816 16.9999619,15.9062478 C16.9999619,16.0104141 16.9687119,16.1041639 16.9062121,16.1874972 L16.1874638,16.8749955 C16.1041305,16.9583288 16.0103807,16.9999952 15.9062145,16.9999952 C15.8020482,16.9999952 15.7187149,16.9583288 15.6562151,16.8749955 L11.8437241,13.0937545 C11.7812243,13.0104213 11.7499744,12.9270884 11.7499744,12.8437551 L11.7499744,12.4062562 C11.1666423,12.906255 10.5103938,13.2968791 9.78122906,13.5781284 C9.05206429,13.8593777 8.29164912,14.0000024 7.4999845,14.0000024 C6.31248733,14.0000024 5.22394842,13.7083366 4.23436729,13.1250045 C3.24478616,12.5416724 2.45833002,11.7552162 1.87499791,10.7656351 C1.29166581,9.77605396 1,8.68751505 1,7.50001788 C1,6.31252071 1.29166581,5.2239818 1.87499791,4.23440067 C2.45833002,3.24481953 3.24478616,2.45836339 4.23436729,1.87503129 C5.22394842,1.29169919 6.31248733,1.00003338 7.4999845,1.00003338 C8.68748167,1.00003338 9.77602058,1.29169919 10.7656017,1.87503129 C11.7551828,2.45836339 12.541639,3.24481953 13.1249711,4.23440067 C13.7083032,5.2239818 13.999969,6.31252071 13.999969,7.50001788 C13.999969,8.2916825 13.8593443,9.05209767 13.578095,9.78126244 C13.2968457,10.5104272 12.9062216,11.1666756 12.4062228,11.7500077 L12.8437218,11.7500077 C12.947888,11.7500077 13.0312213,11.7812577 13.0937212,11.8437575 L16.9062121,15.6562484 Z M7.4999845,12.500006 C8.39581586,12.500006 9.22914689,12.276048 9.99997854,11.8281326 C10.7708102,11.3802171 11.3801837,10.7708436 11.8280992,10.0000119 C12.2760146,9.22918027 12.4999726,8.39584924 12.4999726,7.50001788 C12.4999726,6.60418652 12.2760146,5.7708555 11.8280992,5.00002384 C11.3801837,4.22919219 10.7708102,3.61981864 9.99997854,3.1719032 C9.22914689,2.72398776 8.39581586,2.5000298 7.4999845,2.5000298 C6.60415315,2.5000298 5.77082212,2.72398776 4.99999046,3.1719032 C4.22915881,3.61981864 3.61978526,4.22919219 3.17186982,5.00002384 C2.72395438,5.7708555 2.49999642,6.60418652 2.49999642,7.50001788 C2.49999642,8.39584924 2.72395438,9.22918027 3.17186982,10.0000119 C3.61978526,10.7708436 4.22915881,11.3802171 4.99999046,11.8281326 C5.77082212,12.276048 6.60415315,12.500006 7.4999845,12.500006 Z"/>
</svg>
