<svg xmlns="http://www.w3.org/2000/svg" width="30" height="30" viewBox="0 0 30 30">
  <path fill="#B5B4B5" fill-rule="evenodd" d="M25.4999464,3.00005007 C25.9374451,3.00005007 26.2968195,3.14848745 26.5780688,3.44536151 C26.8593181,3.74223556 26.9999428,4.09379722 26.9999428,4.50004649 C26.9999428,4.90629576 26.8593181,5.26566943 26.5780688,5.57816892 L17.9999642,14.1093986 L17.9999642,25.4999964 C17.9999642,25.9062457 17.8593396,26.2499946 17.5780902,26.531244 C17.2968409,26.8124933 16.960904,26.9687427 16.5702801,26.9999928 C16.1796563,27.031243 15.8280947,26.9062431 15.5155952,26.6249937 L12.5156023,24 C12.1718534,23.7187507 11.9999785,23.3437516 11.9999785,22.8750027 L11.9999785,14.1093986 L3.42187399,5.57816892 C3.14062466,5.26566943 3,4.90629576 3,4.50004649 C3,4.09379722 3.14062466,3.74223556 3.42187399,3.44536151 C3.70312332,3.14848745 4.06249771,3.00005007 4.49999642,3.00005007 L25.4999464,3.00005007 Z M16.4999678,13.500025 L25.4999464,4.50004649 L4.49999642,4.50004649 L13.499975,13.500025 L13.499975,22.8750027 L16.4999678,25.4999964 L16.4999678,13.500025 Z"/>
</svg>
