<svg xmlns="http://www.w3.org/2000/svg" width="30" height="30" viewBox="0 0 30 30">
  <path fill="#AC6289" fill-rule="evenodd" d="M14.9999714,3.37504917 C17.0937166,3.37504917 19.0312118,3.89848566 20.8124575,4.94535793 C22.5937033,5.9922302 24.0077627,7.40628956 25.0546349,9.18753532 C26.1015072,10.9687811 26.6249437,12.9062762 26.6249437,15.0000215 C26.6249437,17.0937667 26.1015072,19.0312618 25.0546349,20.8125076 C24.0077627,22.5937534 22.5937033,24.0078127 20.8124575,25.054685 C19.0312118,26.1015573 17.0937166,26.6249937 14.9999714,26.6249937 C12.9062261,26.6249937 10.968731,26.1015573 9.18748525,25.054685 C7.40623949,24.0078127 5.99218013,22.5937534 4.94530786,20.8125076 C3.8984356,19.0312618 3.37499911,17.0937667 3.37499911,15.0000215 C3.37499911,12.9062762 3.8984356,10.9687811 4.94530786,9.18753532 C5.99218013,7.40628956 7.40623949,5.9922302 9.18748525,4.94535793 C10.968731,3.89848566 12.9062261,3.37504917 14.9999714,3.37504917 Z M25.1249472,15.0000215 C25.1249472,13.1562761 24.6718231,11.4609674 23.7655755,9.91409608 C22.8593279,8.36722477 21.6249554,7.14066496 20.0624593,6.23441736 C18.4999633,5.32816976 16.8046546,4.8750456 14.9765339,4.8750456 C13.1484133,4.8750456 11.4609173,5.32816976 9.91404602,6.23441736 C8.3671747,7.14066496 7.14061489,8.37503749 6.23436729,9.93753353 C5.32811969,11.5000296 4.87499553,13.1953383 4.87499553,15.0234589 C4.87499553,16.8515795 5.32811969,18.5390755 6.23436729,20.0859468 C7.14061489,21.6328181 8.37498742,22.859378 9.93748346,23.7656256 C11.4999795,24.6718732 13.1952882,25.1249973 15.0234088,25.1249973 C16.8515295,25.1249973 18.5390255,24.6718732 20.0858968,23.7656256 C21.6327681,22.859378 22.8593279,21.6250054 23.7655755,20.0625094 C24.6718231,18.5000134 25.1249472,16.8125174 25.1249472,15.0000215 Z M14.343723,16.3593932 C14.1874736,16.2656434 14.1093485,16.1250188 14.1093485,15.9375192 L14.1093485,8.4375371 C14.1093485,8.28128771 14.1640361,8.14847505 14.2734106,8.03910055 C14.3827851,7.92972605 14.5155978,7.87503844 14.6718472,7.87503844 L15.3280956,7.87503844 C15.484345,7.87503844 15.6171577,7.92972605 15.7265322,8.03910055 C15.8359067,8.14847505 15.8905943,8.28128771 15.8905943,8.4375371 L15.8905943,15.2812708 L19.2187113,17.718765 C19.3437113,17.8125148 19.4140236,17.929702 19.4296483,18.0703266 C19.4452731,18.2109513 19.4062109,18.3437632 19.3124611,18.4687632 L18.937462,19.0312618 C18.8437122,19.1562618 18.7187123,19.2265741 18.5624629,19.2421988 C18.4062135,19.2578236 18.2655888,19.2187614 18.1405889,19.1250116 L14.343723,16.3593932 Z"/>
</svg>
