<svg xmlns="http://www.w3.org/2000/svg" width="26" height="26" viewBox="0 0 26 26">
  <path fill="#B5B4B5" fill-rule="evenodd" d="M22.0624546,4.43753949 C22.3228708,4.4896225 22.544224,4.63285152 22.7265155,4.86722596 C22.9088069,5.1016004 22.9999523,5.34899545 22.9999523,5.60941169 C22.9999523,8.86461207 22.1796418,11.8854386 20.5390207,14.6718901 C18.9765244,17.3541756 16.8411126,19.4895867 14.132786,21.0781248 C11.3723757,22.6927041 8.36457034,23.499994 5.10936997,23.499994 C4.84895373,23.499994 4.60155868,23.4088486 4.36718424,23.2265572 C4.1328098,23.0442658 3.98958078,22.8229125 3.93749776,22.5624963 L3.03906241,18.6171932 C2.96093759,18.3307357 2.9869794,18.0572989 3.11718722,17.7968826 C3.24739504,17.5364664 3.45572828,17.3411544 3.74218573,17.2109465 L7.96092567,15.4140758 C8.22134192,15.3099092 8.48175757,15.290378 8.74217381,15.3554822 C9.00259005,15.4205864 9.2239433,15.5573048 9.40623473,15.7656375 L11.1249806,17.8750075 C12.4791443,17.1979259 13.6900789,16.3255318 14.7577845,15.2578262 C15.8254901,14.1901206 16.6978842,12.979186 17.3749657,11.6250224 L15.2655958,9.90627645 C15.0572631,9.72398502 14.9205447,9.50263178 14.8554405,9.24221553 C14.7903363,8.98179929 14.8098675,8.72138364 14.9140341,8.4609674 L16.7109048,4.24222745 C16.8411126,3.95577 17.0364247,3.74743677 17.2968409,3.61722894 C17.5572572,3.48702112 17.830694,3.46097932 18.1171515,3.53910413 L22.0624546,4.43753949 Z M5.14843238,22.249997 C8.1432171,22.249997 10.9296686,21.4947907 13.5077874,19.9843774 C16.0077815,18.5260478 17.9999642,16.533865 19.4843357,14.0078292 C20.994749,11.4557521 21.7499553,8.66930003 21.7499553,5.6484741 L17.8437146,4.75003874 L16.0468439,8.96877868 L18.8983996,11.2734607 C17.9609018,13.3047058 16.880175,14.9323063 15.6562198,16.1562615 C14.4322646,17.3802168 12.8046641,18.4609436 10.773419,19.3984413 L8.46873696,16.5468856 L4.24999702,18.3437563 L5.14843238,22.249997 Z"/>
</svg>
