<svg xmlns="http://www.w3.org/2000/svg" width="30" height="30" viewBox="0 0 30 30">
  <path fill="#B5B4B5" fill-rule="evenodd" d="M9.28123502,8.34378733 C9.21873541,8.34378733 9.15623508,8.31253716 9.09373547,8.25003755 C9.03123586,8.18753794 8.99998569,8.12503761 8.99998569,8.062538 L8.99998569,6.93754068 C8.99998569,6.87504107 9.03123586,6.81254074 9.09373547,6.75004113 C9.15623508,6.68754151 9.21873541,6.65629135 9.28123502,6.65629135 L26.7186935,6.65629135 C26.7811931,6.65629135 26.8436934,6.68754151 26.906193,6.75004113 C26.9686926,6.81254074 26.9999428,6.87504107 26.9999428,6.93754068 L26.9999428,8.062538 C26.9999428,8.12503761 26.9686926,8.18753794 26.906193,8.25003755 C26.8436934,8.31253716 26.7811931,8.34378733 26.7186935,8.34378733 L9.28123502,8.34378733 Z M26.9999428,15.5625201 C26.9999428,15.6250197 26.9686926,15.6875201 26.906193,15.7500197 C26.8436934,15.8125193 26.7811931,15.8437694 26.7186935,15.8437694 L9.28123502,15.8437694 C9.21873541,15.8437694 9.15623508,15.8125193 9.09373547,15.7500197 C9.03123586,15.6875201 8.99998569,15.6250197 8.99998569,15.5625201 L8.99998569,14.4375228 C8.99998569,14.3750232 9.03123586,14.3125229 9.09373547,14.2500232 C9.15623508,14.1875236 9.21873541,14.1562735 9.28123502,14.1562735 L26.7186935,14.1562735 C26.7811931,14.1562735 26.8436934,14.1875236 26.906193,14.2500232 C26.9686926,14.3125229 26.9999428,14.3750232 26.9999428,14.4375228 L26.9999428,15.5625201 Z M26.9999428,23.0625022 C26.9999428,23.1250018 26.9686926,23.1875022 26.906193,23.2500018 C26.8436934,23.3125014 26.7811931,23.3437516 26.7186935,23.3437516 L9.28123502,23.3437516 C9.21873541,23.3437516 9.15623508,23.3125014 9.09373547,23.2500018 C9.03123586,23.1875022 8.99998569,23.1250018 8.99998569,23.0625022 L8.99998569,21.9375049 C8.99998569,21.8750053 9.03123586,21.812505 9.09373547,21.7500054 C9.15623508,21.6875058 9.21873541,21.6562556 9.28123502,21.6562556 L26.7186935,21.6562556 C26.7811931,21.6562556 26.8436934,21.6875058 26.906193,21.7500054 C26.9686926,21.812505 26.9999428,21.8750053 26.9999428,21.9375049 L26.9999428,23.0625022 Z M5.24999464,5.81254336 C5.71874352,5.81254336 6.11718007,5.97660547 6.44530429,6.30472969 C6.7734285,6.63285391 6.93749061,7.03129046 6.93749061,7.50003934 C6.93749061,7.96878822 6.7734285,8.36722477 6.44530429,8.69534899 C6.11718007,9.02347321 5.71874352,9.18753532 5.24999464,9.18753532 C4.78124575,9.18753532 4.3828092,9.02347321 4.05468499,8.69534899 C3.72656077,8.36722477 3.56249866,7.96878822 3.56249866,7.50003934 C3.56249866,7.03129046 3.72656077,6.63285391 4.05468499,6.30472969 C4.3828092,5.97660547 4.78124575,5.81254336 5.24999464,5.81254336 Z M5.24999464,13.3125255 C5.71874352,13.3125255 6.11718007,13.4765876 6.44530429,13.8047118 C6.7734285,14.132836 6.93749061,14.5312726 6.93749061,15.0000215 C6.93749061,15.4687703 6.7734285,15.8672069 6.44530429,16.1953311 C6.11718007,16.5234553 5.71874352,16.6875174 5.24999464,16.6875174 C4.78124575,16.6875174 4.3828092,16.5234553 4.05468499,16.1953311 C3.72656077,15.8672069 3.56249866,15.4687703 3.56249866,15.0000215 C3.56249866,14.5312726 3.72656077,14.132836 4.05468499,13.8047118 C4.3828092,13.4765876 4.78124575,13.3125255 5.24999464,13.3125255 Z M5.24999464,20.8125076 C5.71874352,20.8125076 6.11718007,20.9765697 6.44530429,21.3046939 C6.7734285,21.6328181 6.93749061,22.0312547 6.93749061,22.5000036 C6.93749061,22.9687525 6.7734285,23.367189 6.44530429,23.6953132 C6.11718007,24.0234374 5.71874352,24.1874996 5.24999464,24.1874996 C4.78124575,24.1874996 4.3828092,24.0234374 4.05468499,23.6953132 C3.72656077,23.367189 3.56249866,22.9687525 3.56249866,22.5000036 C3.56249866,22.0312547 3.72656077,21.6328181 4.05468499,21.3046939 C4.3828092,20.9765697 4.78124575,20.8125076 5.24999464,20.8125076 Z"/>
</svg>
