<svg xmlns="http://www.w3.org/2000/svg" width="30" height="30" viewBox="0 0 30 30">
  <path fill="#AC6289" fill-rule="evenodd" d="M23.2499553,6.00004292 C23.8749536,6.00004292 24.4062028,6.21879263 24.8437015,6.65629135 C25.2812002,7.09379007 25.4999499,7.62503928 25.4999499,8.25003755 L25.4999499,24.7499982 C25.4999499,25.3749965 25.2812002,25.9062457 24.8437015,26.3437444 C24.4062028,26.7812431 23.8749536,26.9999928 23.2499553,26.9999928 L6.74999464,26.9999928 C6.12499636,26.9999928 5.59374715,26.7812431 5.15624844,26.3437444 C4.71874972,25.9062457 4.5,25.3749965 4.5,24.7499982 L4.5,8.25003755 C4.5,7.62503928 4.71874972,7.09379007 5.15624844,6.65629135 C5.59374715,6.21879263 6.12499636,6.00004292 6.74999464,6.00004292 L8.99998927,6.00004292 L8.99998927,3.37504917 C8.99998927,3.2812994 9.03905144,3.19536234 9.11717649,3.11723729 C9.19530154,3.03911224 9.2812386,3.00005007 9.37498838,3.00005007 L10.1249866,3.00005007 C10.2187364,3.00005007 10.3046734,3.03911224 10.3827985,3.11723729 C10.4609235,3.19536234 10.4999857,3.2812994 10.4999857,3.37504917 L10.4999857,6.00004292 L19.4999642,6.00004292 L19.4999642,3.37504917 C19.4999642,3.2812994 19.5390264,3.19536234 19.6171515,3.11723729 C19.6952765,3.03911224 19.7812136,3.00005007 19.8749633,3.00005007 L20.6249616,3.00005007 C20.7187113,3.00005007 20.8046484,3.03911224 20.8827734,3.11723729 C20.9608985,3.19536234 20.9999607,3.2812994 20.9999607,3.37504917 L20.9999607,6.00004292 L23.2499553,6.00004292 Z M23.9999535,24.7499982 L23.9999535,12.0000286 L5.99999642,12.0000286 L5.99999642,24.7499982 C5.99999642,24.9687479 6.07030876,25.1484348 6.21093342,25.2890594 C6.35155809,25.4296841 6.53124492,25.4999964 6.74999464,25.4999964 L23.2499553,25.4999964 C23.468705,25.4999964 23.6483918,25.4296841 23.7890165,25.2890594 C23.9296412,25.1484348 23.9999535,24.9687479 23.9999535,24.7499982 Z M23.9999535,10.5000322 L23.9999535,8.25003755 C23.9999535,8.03128783 23.9296412,7.851601 23.7890165,7.71097634 C23.6483918,7.57035167 23.468705,7.50003934 23.2499553,7.50003934 L6.74999464,7.50003934 C6.53124492,7.50003934 6.35155809,7.57035167 6.21093342,7.71097634 C6.07030876,7.851601 5.99999642,8.03128783 5.99999642,8.25003755 L5.99999642,10.5000322 L23.9999535,10.5000322 Z M9.74998748,21.0000072 C9.53123777,21.0000072 9.35155093,20.9296948 9.21092627,20.7890702 C9.0703016,20.6484455 8.99998927,20.4687587 8.99998927,20.2500089 L8.99998927,15.7500197 C8.99998927,15.53127 9.0703016,15.3515831 9.21092627,15.2109585 C9.35155093,15.0703338 9.53123777,15.0000215 9.74998748,15.0000215 L14.2499768,15.0000215 C14.4687265,15.0000215 14.6484133,15.0703338 14.789038,15.2109585 C14.9296626,15.3515831 14.999975,15.53127 14.999975,15.7500197 L14.999975,20.2500089 C14.999975,20.4687587 14.9296626,20.6484455 14.789038,20.7890702 C14.6484133,20.9296948 14.4687265,21.0000072 14.2499768,21.0000072 L9.74998748,21.0000072 Z M10.4999857,16.5000179 L10.4999857,19.5000107 L13.4999785,19.5000107 L13.4999785,16.5000179 L10.4999857,16.5000179 Z"/>
</svg>
