<svg xmlns="http://www.w3.org/2000/svg" width="30" height="30" viewBox="0 0 30 30">
  <path fill="#AC6289" fill-rule="evenodd" d="M24.7499481,9.00003576 C25.3749464,9.00003576 25.9061956,9.21878548 26.3436943,9.6562842 C26.7811931,10.0937829 26.9999428,10.6250321 26.9999428,11.2500304 L26.9999428,23.2500018 C26.9999428,23.8750001 26.7811931,24.4062493 26.3436943,24.843748 C25.9061956,25.2812467 25.3749464,25.4999964 24.7499481,25.4999964 L5.24999464,25.4999964 C4.62499636,25.4999964 4.09374715,25.2812467 3.65624844,24.843748 C3.21874972,24.4062493 3,23.8750001 3,23.2500018 L3,11.2500304 C3,10.6250321 3.21874972,10.0937829 3.65624844,9.6562842 C4.09374715,9.21878548 4.62499636,9.00003576 5.24999464,9.00003576 L10.4999821,9.00003576 L10.4999821,5.62504381 C10.4999821,5.31254432 10.6093566,5.04692043 10.8281063,4.82817071 C11.0468561,4.60942099 11.3124799,4.50004649 11.6249794,4.50004649 L18.3749633,4.50004649 C18.6874628,4.50004649 18.9530867,4.60942099 19.1718364,4.82817071 C19.3905862,5.04692043 19.4999607,5.31254432 19.4999607,5.62504381 L19.4999607,9.00003576 L24.7499481,9.00003576 Z M11.9999785,6.00004292 L11.9999785,9.00003576 L17.9999642,9.00003576 L17.9999642,6.00004292 L11.9999785,6.00004292 Z M25.4999464,23.2500018 L25.4999464,16.5000179 L17.9999642,16.5000179 L17.9999642,18.3750134 C17.9999642,18.6875129 17.8905897,18.9531368 17.67184,19.1718865 C17.4530903,19.3906362 17.1874664,19.5000107 16.8749669,19.5000107 L13.1249759,19.5000107 C12.8124764,19.5000107 12.5468525,19.3906362 12.3281028,19.1718865 C12.109353,18.9531368 11.9999785,18.6875129 11.9999785,18.3750134 L11.9999785,16.5000179 L4.49999642,16.5000179 L4.49999642,23.2500018 C4.49999642,23.4687515 4.57030876,23.6484383 4.71093342,23.789063 C4.85155809,23.9296877 5.03124492,24 5.24999464,24 L24.7499481,24 C24.9686979,24 25.1483847,23.9296877 25.2890094,23.789063 C25.429634,23.6484383 25.4999464,23.4687515 25.4999464,23.2500018 Z M13.499975,18.0000143 L16.4999678,18.0000143 L16.4999678,16.5000179 L13.499975,16.5000179 L13.499975,18.0000143 Z M25.4999464,15.0000215 L25.4999464,11.2500304 C25.4999464,11.0312807 25.429634,10.8515938 25.2890094,10.7109692 C25.1483847,10.5703445 24.9686979,10.5000322 24.7499481,10.5000322 L5.24999464,10.5000322 C5.03124492,10.5000322 4.85155809,10.5703445 4.71093342,10.7109692 C4.57030876,10.8515938 4.49999642,11.0312807 4.49999642,11.2500304 L4.49999642,15.0000215 L25.4999464,15.0000215 Z"/>
</svg>
