<svg xmlns="http://www.w3.org/2000/svg" width="26" height="26" viewBox="0 0 26 26">
  <path fill="#65656A" fill-rule="evenodd" d="M21.2655838,7.95315611 L4.23437444,7.95315611 C4.18229143,7.95315611 4.13020782,7.9271143 4.07812481,7.87503129 C4.0260418,7.82294828 4,7.77086468 4,7.71878166 L4,6.7812839 C4,6.72920089 4.0260418,6.67711728 4.07812481,6.62503427 C4.13020782,6.57295126 4.18229143,6.54690946 4.23437444,6.54690946 L21.2655838,6.54690946 C21.3176668,6.54690946 21.3697505,6.57295126 21.4218335,6.62503427 C21.4739165,6.67711728 21.4999583,6.72920089 21.4999583,6.7812839 L21.4999583,7.71878166 C21.4999583,7.77086468 21.4739165,7.82294828 21.4218335,7.87503129 C21.3697505,7.9271143 21.3176668,7.95315611 21.2655838,7.95315611 Z M21.2655838,14.2031412 L4.23437444,14.2031412 C4.18229143,14.2031412 4.13020782,14.1770994 4.07812481,14.1250164 C4.0260418,14.0729334 4,14.0208498 4,13.9687668 L4,13.031269 C4,12.979186 4.0260418,12.9271024 4.07812481,12.8750194 C4.13020782,12.8229364 4.18229143,12.7968946 4.23437444,12.7968946 L21.2655838,12.7968946 C21.3176668,12.7968946 21.3697505,12.8229364 21.4218335,12.8750194 C21.4739165,12.9271024 21.4999583,12.979186 21.4999583,13.031269 L21.4999583,13.9687668 C21.4999583,14.0208498 21.4739165,14.0729334 21.4218335,14.1250164 C21.3697505,14.1770994 21.3176668,14.2031412 21.2655838,14.2031412 Z M21.2655838,20.4531263 L4.23437444,20.4531263 C4.18229143,20.4531263 4.13020782,20.4270845 4.07812481,20.3750015 C4.0260418,20.3229185 4,20.2708349 4,20.2187519 L4,19.2812541 C4,19.2291711 4.0260418,19.1770875 4.07812481,19.1250045 C4.13020782,19.0729215 4.18229143,19.0468797 4.23437444,19.0468797 L21.2655838,19.0468797 C21.3176668,19.0468797 21.3697505,19.0729215 21.4218335,19.1250045 C21.4739165,19.1770875 21.4999583,19.2291711 21.4999583,19.2812541 L21.4999583,20.2187519 C21.4999583,20.2708349 21.4739165,20.3229185 21.4218335,20.3750015 C21.3697505,20.4270845 21.3176668,20.4531263 21.2655838,20.4531263 Z"/>
</svg>
