<svg xmlns="http://www.w3.org/2000/svg" width="60" height="60" viewBox="0 0 60 60">
  <path fill="#AC6289" fill-rule="evenodd" d="M37.4999249,9.00009298 C35.0624307,9.00009298 32.8124361,9.60946653 30.749941,10.8282136 C28.6874459,12.0469607 27.0468248,13.6875818 25.8280777,15.7500769 C24.6093306,17.812572 23.9999571,20.0625666 23.9999571,22.5000608 C23.9999571,24.2500571 24.3124559,25.9375531 24.9374548,27.5625487 L8.99999285,43.5000107 L8.99999285,50.9999928 L17.9999714,50.9999928 L17.9999714,45.0000072 L23.9999571,45.0000072 L23.9999571,39.0000215 L28.4999464,39.0000215 L32.437437,35.0625308 C34.0624326,35.6875298 35.7499286,36.0000286 37.4999249,36.0000286 C39.9374191,36.0000286 42.1874137,35.3906551 44.2499088,34.171908 C46.3124039,32.9531609 47.953025,31.3125398 49.1717721,29.2500447 C50.3905192,27.1875496 50.9998927,24.937555 50.9998927,22.5000608 C50.9998927,20.0625666 50.3905192,17.812572 49.1717721,15.7500769 C47.953025,13.6875818 46.3124039,12.0469607 44.2499088,10.8282136 C42.1874137,9.60946653 39.9374191,9.00009298 37.4999249,9.00009298 Z M37.4999249,6.00010014 C40.4999177,6.00010014 43.2655362,6.73447291 45.7967801,8.20321988 C48.3280241,9.67196686 50.3280188,11.6719616 51.7967658,14.2032056 C53.2655128,16.7344495 53.9998856,19.5000679 53.9998856,22.5000608 C53.9998856,25.5000536 53.2655128,28.2656721 51.7967658,30.796916 C50.3280188,33.32816 48.3280241,35.3281547 45.7967801,36.7969017 C43.2655362,38.2656487 40.4999177,39.0000215 37.4999249,39.0000215 C36.0624288,39.0000215 34.6561822,38.8125219 33.281185,38.4375228 L30.3749419,41.3437659 C29.9374425,41.7812653 29.4061947,42.0000143 28.7811957,42.0000143 L26.9999499,42.0000143 L26.9999499,45.7500054 C26.9999499,46.3750044 26.7812009,46.9062521 26.3437015,47.3437516 C25.9062021,47.781251 25.3749543,48 24.7499553,48 L20.9999642,48 L20.9999642,51.7499911 C20.9999642,52.37499 20.7812152,52.9062378 20.3437158,53.3437373 C19.9062164,53.7812367 19.3749686,53.9999857 18.7499696,53.9999857 L8.24999464,53.9999857 C7.62499565,53.9999857 7.09374787,53.7812367 6.65624844,53.3437373 C6.218749,52.9062378 6,52.37499 6,51.7499911 L6,43.2187614 C6,42.5937624 6.218749,42.0625146 6.65624844,41.6250152 L21.5624629,26.7188007 C21.1874638,25.3438035 20.9999642,23.9375569 20.9999642,22.5000608 C20.9999642,19.5000679 21.734337,16.7344495 23.203084,14.2032056 C24.671831,11.6719616 26.6718257,9.67196686 29.2030697,8.20321988 C31.7343136,6.73447291 34.4999321,6.00010014 37.4999249,6.00010014 Z M41.9999142,16.125076 C41.4999158,16.125076 41.0624164,16.3125755 40.6874173,16.6875747 C40.3124182,17.0625738 40.1249186,17.5000732 40.1249186,18.0000715 C40.1249186,18.5000699 40.3124182,18.9375693 40.6874173,19.3125684 C41.0624164,19.6875675 41.4999158,19.8750671 41.9999142,19.8750671 C42.4999125,19.8750671 42.9374119,19.6875675 43.312411,19.3125684 C43.6874101,18.9375693 43.8749097,18.5000699 43.8749097,18.0000715 C43.8749097,17.5000732 43.6874101,17.0625738 43.312411,16.6875747 C42.9374119,16.3125755 42.4999125,16.125076 41.9999142,16.125076 Z M41.9999142,13.5000823 C43.2499107,13.5000823 44.3124091,13.9375817 45.1874066,14.8125791 C46.062404,15.6875766 46.4999034,16.750075 46.4999034,18.0000715 C46.4999034,19.2500681 46.062404,20.3125665 45.1874066,21.1875639 C44.3124091,22.0625614 43.2499107,22.5000608 41.9999142,22.5000608 C40.7499176,22.5000608 39.6874192,22.0625614 38.8124218,21.1875639 C37.9374243,20.3125665 37.4999249,19.2500681 37.4999249,18.0000715 C37.4999249,16.750075 37.9374243,15.6875766 38.8124218,14.8125791 C39.6874192,13.9375817 40.7499176,13.5000823 41.9999142,13.5000823 Z"/>
</svg>
