<svg xmlns="http://www.w3.org/2000/svg" width="26" height="26" viewBox="0 0 26 26">
  <path fill="#65656A" fill-rule="evenodd" d="M21.7499553,3 C22.1145376,3 22.4140162,3.12369782 22.6483907,3.37109287 C22.8827651,3.61848791 22.9999523,3.91145596 22.9999523,4.24999702 C22.9999523,4.58853808 22.8827651,4.88801613 22.6483907,5.14843238 L15.4999702,12.2577904 L15.4999702,21.7499553 C15.4999702,22.0884964 15.382783,22.3749538 15.1484085,22.6093282 C14.9140341,22.8437027 14.6340866,22.9739105 14.3085668,22.9999523 C13.9830469,23.0259941 13.6900789,22.9218275 13.4296626,22.6874531 L10.9296686,20.4999583 C10.6432111,20.2655838 10.4999821,19.9530846 10.4999821,19.5624605 L10.4999821,12.2577904 L3.35156166,5.14843238 C3.11718722,4.88801613 3,4.58853808 3,4.24999702 C3,3.91145596 3.11718722,3.61848791 3.35156166,3.37109287 C3.5859361,3.12369782 3.88541475,3 4.24999702,3 L21.7499553,3 Z M14.2499732,11.7499791 L21.7499553,4.24999702 L4.24999702,4.24999702 L11.7499791,11.7499791 L11.7499791,19.5624605 L14.2499732,21.7499553 L14.2499732,11.7499791 Z"/>
</svg>
