<svg xmlns="http://www.w3.org/2000/svg" width="280" height="190" viewBox="0 0 280 190">
  <g fill="none" fill-rule="evenodd">
    <path fill="#000" d="M279,150 L279,165 L276,165 L276,150 L276,0 L279,0 L279,150 Z M273,150 L273,165 L270,165 L270,150 L270,0 L273,0 L273,150 Z M264,150 L264,165 L261,165 L261,150 L261,0 L264,0 L264,150 Z M258,150 L258,165 L249,165 L249,150 L249,0 L258,0 L258,150 Z M141,150 L141,165 L138,165 L138,150 L138,0 L141,0 L141,150 Z M135,150 L135,165 L132,165 L132,150 L132,0 L135,0 L135,150 Z M24,150 L24,165 L12,165 L12,150 L12,0 L24,0 L24,150 Z M9,150 L9,165 L6,165 L6,150 L6,0 L9,0 L9,150 Z M3,150 L3,165 L0,165 L0,150 L0,0 L3,0 L3,150 Z M27,0 L36,0 L36,150 L27,150 L27,0 Z M39,0 L45,0 L45,150 L39,150 L39,0 Z M54,0 L57,0 L57,150 L54,150 L54,0 Z M60,0 L66,0 L66,150 L60,150 L60,0 Z M69,0 L72,0 L72,150 L69,150 L69,0 Z M75,0 L87,0 L87,150 L75,150 L75,0 Z M90,0 L96,0 L96,150 L90,150 L90,0 Z M105,0 L108,0 L108,150 L105,150 L105,0 Z M111,0 L123,0 L123,150 L111,150 L111,0 Z M126,0 L129,0 L129,150 L126,150 L126,0 Z M144,0 L147,0 L147,150 L144,150 L144,0 Z M159,0 L162,0 L162,150 L159,150 L159,0 Z M165,0 L168,0 L168,150 L165,150 L165,0 Z M174,0 L183,0 L183,150 L174,150 L174,0 Z M186,0 L189,0 L189,150 L186,150 L186,0 Z M192,0 L201,0 L201,150 L192,150 L192,0 Z M207,0 L210,0 L210,150 L207,150 L207,0 Z M222,0 L225,0 L225,150 L222,150 L222,0 Z M228,0 L234,0 L234,150 L228,150 L228,0 Z M237,0 L243,0 L243,150 L237,150 L237,0 Z" opacity=".1"/>
    <path fill="#AB6388" d="M50.6925 176.786L45.1485 171.242 39.6705 176.753 38.1855 175.235 43.6635 169.757 38.1855 164.279 39.7365 162.728 45.2145 168.206 50.6265 162.761 52.1445 164.246 46.6995 169.691 52.2435 175.235 50.6925 176.786zM67.0935 176.786L61.5495 171.242 56.0715 176.753 54.5865 175.235 60.0645 169.757 54.5865 164.279 56.1375 162.728 61.6155 168.206 67.0275 162.761 68.5455 164.246 63.1005 169.691 68.6445 175.235 67.0935 176.786zM83.4945 176.786L77.9505 171.242 72.4725 176.753 70.9875 175.235 76.4655 169.757 70.9875 164.279 72.5385 162.728 78.0165 168.206 83.4285 162.761 84.9465 164.246 79.5015 169.691 85.0455 175.235 83.4945 176.786zM99.8955 176.786L94.3515 171.242 88.8735 176.753 87.3885 175.235 92.8665 169.757 87.3885 164.279 88.9395 162.728 94.4175 168.206 99.8295 162.761 101.3475 164.246 95.9025 169.691 101.4465 175.235 99.8955 176.786zM116.2965 176.786L110.7525 171.242 105.2745 176.753 103.7895 175.235 109.2675 169.757 103.7895 164.279 105.3405 162.728 110.8185 168.206 116.2305 162.761 117.7485 164.246 112.3035 169.691 117.8475 175.235 116.2965 176.786zM167.6925 176.786L162.1485 171.242 156.6705 176.753 155.1855 175.235 160.6635 169.757 155.1855 164.279 156.7365 162.728 162.2145 168.206 167.6265 162.761 169.1445 164.246 163.6995 169.691 169.2435 175.235 167.6925 176.786zM184.0935 176.786L178.5495 171.242 173.0715 176.753 171.5865 175.235 177.0645 169.757 171.5865 164.279 173.1375 162.728 178.6155 168.206 184.0275 162.761 185.5455 164.246 180.1005 169.691 185.6445 175.235 184.0935 176.786zM200.4945 176.786L194.9505 171.242 189.4725 176.753 187.9875 175.235 193.4655 169.757 187.9875 164.279 189.5385 162.728 195.0165 168.206 200.4285 162.761 201.9465 164.246 196.5015 169.691 202.0455 175.235 200.4945 176.786zM216.8955 176.786L211.3515 171.242 205.8735 176.753 204.3885 175.235 209.8665 169.757 204.3885 164.279 205.9395 162.728 211.4175 168.206 216.8295 162.761 218.3475 164.246 212.9025 169.691 218.4465 175.235 216.8955 176.786zM233.2965 176.786L227.7525 171.242 222.2745 176.753 220.7895 175.235 226.2675 169.757 220.7895 164.279 222.3405 162.728 227.8185 168.206 233.2305 162.761 234.7485 164.246 229.3035 169.691 234.8475 175.235 233.2965 176.786z"/>
  </g>
</svg>
