<svg xmlns="http://www.w3.org/2000/svg" width="128" height="128" viewBox="0 0 128 128">
  <path fill="#AC6289" fill-rule="evenodd" d="M33.1989979,10.4753272 C28.8041257,17.3226939 23.6303117,27.7816789 20.1865686,42.538653 C16.267261,59.3302266 12.9793063,86.9321417 15.2833344,104.973891 C6.37059934,94.1553782 1,80.3217364 1,65.2215768 C1,41.7052027 13.9878311,21.2121289 33.1989979,10.4753272 Z M127,65.2215768 C127,81.580083 120.719269,96.4596234 110.437236,107.637664 C117.144335,122.165847 106.140756,130.786339 90.9226915,121.977913 C82.7643001,125.834663 73.6383809,128 63.9959003,128 C56.1654845,128 48.6630442,126.56189 41.7345611,123.955314 C39.5617232,125.663071 36.3803605,126.512863 31.8051018,126.243217 C29.4682762,126.104309 27.607015,124.862305 26.1311251,122.778679 C42.7758834,123.383339 40.3980608,108.544654 37.3314896,91.7612512 C34.0763324,73.9401213 44.013991,59.2158315 60.6833474,89.2854133 C66.1359407,99.1397383 73.449795,110.064475 79.2221644,114.746505 C99.9010217,131.513565 116.201406,116.944526 98.8187024,95.9121609 C76.5491638,68.9639323 67.3084532,54.4357485 75.5652372,42.13827 C82.8380946,31.3034153 99.4500553,12.9184807 94.6124162,5.02521545 C96.1784994,5.16412384 97.7035856,5.70341526 99.2204724,6.73297159 C101.778682,8.49792531 102.237847,11.3169486 101.40151,14.7161187 C116.922952,26.1474625 127,44.5160549 127,65.2215768 Z M58.0267456,29.7754229 C43.3826381,50.3747207 31.9608902,44.0339611 41.0212143,2.84353655 C42.3495152,0.808937121 43.1858528,0 43.1858528,0 C42.8906748,2.14082349 42.6528926,4.19993616 42.4561072,6.21002234 C49.1796056,3.7750399 56.4278649,2.44315353 63.9959003,2.44315353 C69.4402941,2.44315353 74.7207002,3.15403766 79.763324,4.45323971 C73.5399883,8.84111076 66.5049131,17.8374721 58.0267456,29.7754229 Z"/>
</svg>
