<svg xmlns="http://www.w3.org/2000/svg" width="192" height="32" viewBox="0 0 192 32">
  <path fill="#65656A" fill-rule="evenodd" d="M1.42108547e-14,31.4866685 L1.42108547e-14,0.447826143 L4.43430319,0.447826143 L4.43430319,31.4866685 L1.42108547e-14,31.4866685 Z M5.27756122,14.8342925 L16.0959447,0.447826143 L21.7272629,0.447826143 L9.88874292,15.8560117 L22.969526,31.4866685 L17.1160812,31.4866685 L5.27756122,17.1002021 L5.27756122,14.8342925 Z M25.1862662,4.71309207 C28.0204359,1.82096739 32.0145995,0 36.3584067,0 C40.7474619,0 44.6922641,1.82096739 47.5716818,4.71309207 C50.3688304,7.60109691 52.1828635,11.5520194 52.1828635,15.9437642 C52.1828635,20.3437488 50.3688304,24.2946712 47.5716818,27.1826761 C44.6922641,30.1118793 40.7474619,31.8834086 36.3584067,31.8834086 C32.0145995,31.8834086 28.0204359,30.1118793 25.1862662,27.1826761 C22.3932311,24.2946712 20.5750845,20.3437488 20.5750845,15.9437642 C20.5750845,11.5520194 22.3932311,7.60109691 25.1862662,4.71309207 Z M44.3837551,7.90596475 C42.298234,5.81720804 39.4188164,4.53593913 36.3584067,4.53593913 C33.2979971,4.53593913 30.459714,5.81720804 28.4235544,7.90596475 C26.3832813,9.94940327 25.0957702,12.7920899 25.0957702,15.9437642 C25.0957702,19.0995584 26.3832813,21.9381252 28.4235544,23.9815637 C30.459714,26.0662006 33.2979971,27.359829 36.3584067,27.359829 C39.4188164,27.359829 42.298234,26.0662006 44.3837551,23.9815637 C46.3746667,21.9381252 47.6662912,19.1448766 47.6662912,15.9437642 C47.6662912,12.7508916 46.3746667,9.94940327 44.3837551,7.90596475 Z M66.7868585,0.17756492 C72.1096677,0.17756492 78.2304869,3.46519383 78.2304869,9.77266232 L78.2304869,31.5336346 L73.7098012,31.5336346 L73.7098012,9.81386067 C73.7098012,6.39439702 70.0241466,4.66406602 66.7868585,4.66406602 C63.5084358,4.66406602 59.8310081,6.35319867 59.8310081,9.77266232 L59.8310081,31.5336346 L55.3020955,31.5336346 L55.3020955,9.81386067 C55.3020955,3.46519383 61.3324188,0.17756492 66.7868585,0.17756492 Z M94.030263,0.564829477 C104.182267,0.564829477 109.28295,8.33483965 109.28295,16.1048498 C109.28295,23.87486 104.182267,31.6036718 94.030263,31.6036718 L82.9033704,31.6036718 L82.9033704,0.564829477 L94.030263,0.564829477 Z M94.030263,27.1171707 C101.212353,27.1171707 104.848646,21.6130702 104.848646,16.1048498 C104.848646,10.5966295 101.212353,5.05133058 94.030263,5.05133058 L87.3788082,5.05133058 L87.3788082,27.1171707 L94.030263,27.1171707 Z M111.809844,22.2771877 L111.809844,0.561533609 L116.334643,0.561533609 L116.334643,22.3225059 C116.334643,25.7419695 120.012071,27.4269823 123.294607,27.4269823 C126.531895,27.4269823 130.213437,25.6966513 130.213437,22.2771877 L130.213437,0.561533609 L134.734122,0.561533609 L134.734122,22.3225059 C134.734122,28.6258545 128.613303,31.9134834 123.294607,31.9134834 C117.844281,31.9134834 111.809844,28.6258545 111.809844,22.2771877 Z M138.813023,31.6032598 L138.813023,0.564417494 L143.247326,0.564417494 L143.247326,31.6032598 L138.813023,31.6032598 Z M144.090584,14.9508838 L154.908968,0.564417494 L160.540286,0.564417494 L148.701766,15.9726031 L161.782549,31.6032598 L155.929104,31.6032598 L144.090584,17.2167935 L144.090584,14.9508838 Z M163.999289,4.82968342 C166.837572,1.93755874 170.827623,0.116591351 175.17143,0.116591351 C179.560485,0.116591351 183.505287,1.93755874 186.388818,4.82968342 C189.181853,7.71356842 191,11.6644909 191,16.0603556 C191,20.4603401 189.181853,24.4112626 186.388818,27.2992674 C183.505287,30.2284706 179.560485,32 175.17143,32 C170.827623,32 166.837572,30.2284706 163.999289,27.2992674 C161.206254,24.4112626 159.388108,20.4603401 159.388108,16.0603556 C159.388108,11.6644909 161.206254,7.71356842 163.999289,4.82968342 Z M183.196778,8.0225561 C181.111257,5.93379939 178.231839,4.65253048 175.17143,4.65253048 C172.11102,4.65253048 169.276851,5.93379939 167.236577,8.0225561 C165.196304,10.0659946 163.912907,12.9086813 163.912907,16.0603556 C163.912907,19.2120299 165.196304,22.0547166 167.236577,24.0981551 C169.276851,26.182792 172.11102,27.4764204 175.17143,27.4764204 C178.231839,27.4764204 181.111257,26.182792 183.196778,24.0981551 C185.191803,22.0547166 186.479314,19.2614679 186.479314,16.0603556 C186.479314,12.8633631 185.191803,10.0659946 183.196778,8.0225561 Z"/>
</svg>
