<svg xmlns="http://www.w3.org/2000/svg" width="81" height="81" viewBox="0 0 81 81">
  <g fill="none" fill-rule="evenodd" transform="translate(1 1)">
    <circle cx="39.5" cy="39.5" r="39.5" stroke="#AC6289" stroke-width="2"/>
    <circle cx="39.5" cy="39.5" r="36.5" stroke="#AC6289"/>
    <path stroke="#AC6289" d="M11,24 L68,24"/>
    <path fill="#AC6289" d="M19.42,43.112 L15.404,43.112 L14.78,45 L11.468,45 L15.612,33.72 L19.244,33.72 L23.372,45 L20.044,45 L19.42,43.112 Z M18.636,40.744 L17.42,37.064 L16.188,40.744 L18.636,40.744 Z M34.7,39.304 C34.7,40.4026722 34.4600024,41.381329 33.98,42.24 C33.4999976,43.098671 32.8173378,43.7733309 31.932,44.264 C31.0466622,44.7546691 30.0066726,45 28.812,45 L24.3,45 L24.3,33.672 L28.812,33.672 C30.0066726,33.672 31.0493289,33.909331 31.94,34.384 C32.8306711,34.858669 33.513331,35.5226624 33.988,36.376 C34.462669,37.2293376 34.7,38.2053278 34.7,39.304 Z M28.524,42.184 C29.4520046,42.184 30.182664,41.9333358 30.716,41.432 C31.249336,40.9306642 31.516,40.2213379 31.516,39.304 C31.516,38.3973288 31.249336,37.6906692 30.716,37.184 C30.182664,36.6773308 29.4520046,36.424 28.524,36.424 L27.452,36.424 L27.452,42.184 L28.524,42.184 Z M46.508,39.304 C46.508,40.4026722 46.2680024,41.381329 45.788,42.24 C45.3079976,43.098671 44.6253378,43.7733309 43.74,44.264 C42.8546622,44.7546691 41.8146726,45 40.62,45 L36.108,45 L36.108,33.672 L40.62,33.672 C41.8146726,33.672 42.8573289,33.909331 43.748,34.384 C44.6386711,34.858669 45.321331,35.5226624 45.796,36.376 C46.270669,37.2293376 46.508,38.2053278 46.508,39.304 Z M40.332,42.184 C41.2600046,42.184 41.990664,41.9333358 42.524,41.432 C43.057336,40.9306642 43.324,40.2213379 43.324,39.304 C43.324,38.3973288 43.057336,37.6906692 42.524,37.184 C41.990664,36.6773308 41.2600046,36.424 40.332,36.424 L39.26,36.424 L39.26,42.184 L40.332,42.184 Z M51.068,36.184 L51.068,38.056 L54.732,38.056 L54.732,40.44 L51.068,40.44 L51.068,42.488 L55.212,42.488 L55.212,45 L47.916,45 L47.916,33.672 L55.212,33.672 L55.212,36.184 L51.068,36.184 Z M67.052,39.304 C67.052,40.4026722 66.8120024,41.381329 66.332,42.24 C65.8519976,43.098671 65.1693378,43.7733309 64.284,44.264 C63.3986622,44.7546691 62.3586726,45 61.164,45 L56.652,45 L56.652,33.672 L61.164,33.672 C62.3586726,33.672 63.4013289,33.909331 64.292,34.384 C65.1826711,34.858669 65.865331,35.5226624 66.34,36.376 C66.814669,37.2293376 67.052,38.2053278 67.052,39.304 Z M60.876,42.184 C61.8040046,42.184 62.534664,41.9333358 63.068,41.432 C63.601336,40.9306642 63.868,40.2213379 63.868,39.304 C63.868,38.3973288 63.601336,37.6906692 63.068,37.184 C62.534664,36.6773308 61.8040046,36.424 60.876,36.424 L59.804,36.424 L59.804,42.184 L60.876,42.184 Z"/>
    <path stroke="#AC6289" d="M11,55 L68,55"/>
  </g>
</svg>
